<svg width="203" height="288" viewBox="0 0 203 288" fill="none" xmlns="http://www.w3.org/2000/svg">
<g clip-path="url(#clip0_5_1860)">
<rect width="203" height="288" rx="10" fill="white"/>
<path d="M195.309 248.74C196.31 248.74 196.971 249.32 196.971 250.241C196.971 250.642 196.871 251.022 196.71 251.502L188.482 274.505C187.982 275.906 187.281 276.547 186 276.547C184.719 276.547 184.018 275.906 183.518 274.505L175.29 251.502C175.129 251.062 175.029 250.642 175.029 250.261C175.029 249.32 175.69 248.74 176.711 248.74C177.672 248.74 178.212 249.2 178.593 250.381L180.895 257.208L191.125 257.208L193.427 250.381C193.808 249.18 194.348 248.74 195.309 248.74ZM190.184 260.031L181.836 260.031L185.94 272.203L186.08 272.203L190.184 260.031Z" fill="black"/>
<path d="M187.968 220C188.185 220 188.361 220.174 188.361 220.389C188.361 221.109 187.068 223.799 186.81 225.904C186.782 226.131 187.114 226.215 187.236 226.021C187.902 224.964 188.81 223.485 191.022 223.537L191.065 223.535C191.093 223.534 191.122 223.533 191.151 223.533C193.553 223.533 195.5 225.646 195.5 228.252C195.5 230.858 193.553 232.97 191.151 232.97C190.682 232.97 190.23 232.889 189.807 232.74C189.708 232.705 189.608 232.819 189.657 232.91C190.032 233.607 190.247 234.418 190.247 235.283C190.247 237.852 188.375 240 186 240C183.625 240 181.753 237.852 181.753 235.283C181.753 234.418 181.968 233.607 182.343 232.91C182.392 232.819 182.292 232.705 182.193 232.74C181.77 232.889 181.318 232.97 180.849 232.97C178.447 232.97 176.5 230.858 176.5 228.252C176.5 225.646 178.447 223.533 180.849 223.533C180.878 223.533 180.907 223.534 180.935 223.535L180.978 223.537C183.19 223.485 184.098 224.964 184.764 226.021C184.886 226.215 185.218 226.131 185.19 225.904C184.932 223.799 183.639 221.109 183.639 220.389C183.639 220.174 183.815 220 184.032 220L187.968 220Z" fill="#211C1D"/>
<path d="M195.664 196L195.664 196.937L190.811 202.143C188.857 204.232 188.301 205.053 188.301 206.332L188.301 206.352C188.301 207.973 189.502 209.213 191.309 209.213C193.145 209.213 194.424 207.982 194.443 206.205L194.443 206.195L195.723 206.195L195.742 206.205C195.713 208.637 193.838 210.385 191.23 210.385C188.799 210.385 186.943 208.715 186.943 206.479L186.943 206.459C186.943 204.887 187.627 203.725 190.107 201.156L193.799 197.328L193.799 197.211L186.602 197.211L186.602 196L195.664 196ZM181.072 195.707C184.168 195.707 186.023 198.539 186.023 203.031L186.023 203.061C186.023 207.562 184.168 210.385 181.072 210.385C177.977 210.385 176.102 207.562 176.102 203.061L176.102 203.031C176.102 198.529 177.977 195.707 181.072 195.707ZM181.072 196.879C178.797 196.879 177.439 199.252 177.439 203.031L177.439 203.061C177.439 206.85 178.797 209.203 181.072 209.203C183.338 209.203 184.686 206.84 184.686 203.061L184.686 203.031C184.686 199.252 183.338 196.879 181.072 196.879Z" fill="black"/>
<g clip-path="url(#clip1_5_1860)">
<path d="M97.34 168C96.825 168 96.4075 167.582 96.4075 167.067C96.4075 165.339 99.4696 158.883 100.082 153.83C100.148 153.287 99.3615 153.085 99.0725 153.55C97.4958 156.086 95.3456 159.636 90.1068 159.512L90.0051 159.515C89.9372 159.518 89.8693 159.52 89.8008 159.52C84.1117 159.52 79.5 154.45 79.5 148.196C79.5 141.942 84.1117 136.872 89.8008 136.872C90.9114 136.872 91.9808 137.066 92.983 137.424C93.2167 137.507 93.4551 137.235 93.3388 137.015C92.451 135.342 91.9416 133.397 91.9416 131.321C91.9416 125.156 96.375 120 102 120C107.625 120 112.058 125.156 112.058 131.321C112.058 133.397 111.549 135.342 110.661 137.015C110.545 137.235 110.783 137.507 111.017 137.424C112.019 137.066 113.089 136.872 114.199 136.872C119.888 136.872 124.5 141.942 124.5 148.196C124.5 154.45 119.888 159.52 114.199 159.52C114.131 159.52 114.063 159.518 113.995 159.515L113.893 159.512C108.654 159.636 106.504 156.086 104.927 153.55C104.638 153.085 103.852 153.287 103.918 153.83C104.53 158.883 107.592 165.339 107.592 167.067C107.592 167.582 107.175 168 106.66 168H97.34Z" fill="#211C1D"/>
</g>
<path d="M7.69092 39.2603C6.68994 39.2603 6.0293 38.6797 6.0293 37.7588C6.0293 37.3584 6.12939 36.978 6.28955 36.4976L14.5176 13.4951C15.0181 12.0938 15.7188 11.4531 17 11.4531C18.2812 11.4531 18.9819 12.0938 19.4824 13.4951L27.7104 36.4976C27.8706 36.938 27.9707 37.3584 27.9707 37.7388C27.9707 38.6797 27.3101 39.2603 26.2891 39.2603C25.3281 39.2603 24.7876 38.7998 24.4072 37.6187L22.105 30.792H11.875L9.57275 37.6187C9.19238 38.8198 8.65186 39.2603 7.69092 39.2603ZM12.8159 27.9692H21.1641L17.0601 15.7974H16.9199L12.8159 27.9692Z" fill="black"/>
<path d="M15.0324 68C14.815 68 14.6387 67.826 14.6387 67.6115C14.6387 66.8912 15.9316 64.2013 16.1901 62.0959C16.2179 61.8695 15.886 61.7854 15.7639 61.9791C15.0982 63.0359 14.1904 64.515 11.9784 64.4633L11.9355 64.4647C11.9068 64.4656 11.8781 64.4666 11.8492 64.4666C9.44715 64.4666 7.5 62.3541 7.5 59.7483C7.5 57.1425 9.44715 55.03 11.8492 55.03C12.3182 55.03 12.7697 55.1108 13.1928 55.26C13.2915 55.2948 13.3921 55.1811 13.3431 55.0897C12.9682 54.3927 12.7531 53.5823 12.7531 52.717C12.7531 50.1483 14.625 48 17 48C19.375 48 21.2469 50.1483 21.2469 52.717C21.2469 53.5823 21.0318 54.3927 20.6569 55.0897C20.6079 55.1811 20.7085 55.2948 20.8072 55.26C21.2303 55.1108 21.6818 55.03 22.1508 55.03C24.5529 55.03 26.5 57.1425 26.5 59.7483C26.5 62.3541 24.5529 64.4666 22.1508 64.4666C22.1219 64.4666 22.0932 64.4656 22.0645 64.4647L22.0216 64.4633C19.8096 64.515 18.9018 63.0359 18.2361 61.9791C18.114 61.7854 17.7821 61.8695 17.8099 62.0959C18.0684 64.2013 19.3613 66.8913 19.3613 67.6114C19.3613 67.826 19.185 68 18.9676 68H15.0324Z" fill="#211C1D"/>
<path d="M7.33594 92V91.0625L12.1895 85.8574C14.1426 83.7676 14.6992 82.9473 14.6992 81.668V81.6484C14.6992 80.0273 13.498 78.7871 11.6914 78.7871C9.85547 78.7871 8.57617 80.0176 8.55664 81.7949V81.8047H7.27734L7.25781 81.7949C7.28711 79.3633 9.16211 77.6152 11.7695 77.6152C14.2012 77.6152 16.0566 79.2852 16.0566 81.5215V81.541C16.0566 83.1133 15.373 84.2754 12.8926 86.8438L9.20117 90.6719V90.7891H16.3984V92H7.33594ZM21.9277 92.293C18.832 92.293 16.9766 89.4609 16.9766 84.9688V84.9395C16.9766 80.4375 18.832 77.6152 21.9277 77.6152C25.0234 77.6152 26.8984 80.4375 26.8984 84.9395V84.9688C26.8984 89.4707 25.0234 92.293 21.9277 92.293ZM21.9277 91.1211C24.2031 91.1211 25.5605 88.748 25.5605 84.9688V84.9395C25.5605 81.1504 24.2031 78.7969 21.9277 78.7969C19.6621 78.7969 18.3145 81.1602 18.3145 84.9395V84.9688C18.3145 88.748 19.6621 91.1211 21.9277 91.1211Z" fill="black"/>
</g>
<defs>
<clipPath id="clip0_5_1860">
<rect width="203" height="288" rx="10" fill="white"/>
</clipPath>
<clipPath id="clip1_5_1860">
<rect width="44" height="179" fill="white" transform="translate(80 54.5)"/>
</clipPath>
</defs>
</svg>
