<svg width="203" height="288" viewBox="0 0 203 288" fill="none" xmlns="http://www.w3.org/2000/svg">
<g clip-path="url(#clip0_3_1844)">
<rect width="203" height="288" rx="10" fill="white"/>
<path d="M195.309 248.74C196.31 248.74 196.971 249.32 196.971 250.241C196.971 250.642 196.871 251.022 196.71 251.502L188.482 274.505C187.982 275.906 187.281 276.547 186 276.547C184.719 276.547 184.018 275.906 183.518 274.505L175.29 251.502C175.129 251.062 175.029 250.642 175.029 250.261C175.029 249.32 175.69 248.74 176.711 248.74C177.672 248.74 178.212 249.2 178.593 250.381L180.895 257.208L191.125 257.208L193.427 250.381C193.808 249.18 194.348 248.74 195.309 248.74ZM190.184 260.031L181.836 260.031L185.94 272.203L186.08 272.203L190.184 260.031Z" fill="#BC1E24"/>
<path d="M185.82 239.896C185.896 240.035 186.104 240.035 186.18 239.896C188.474 235.728 190.128 233.522 193.445 230.135C193.518 230.06 193.518 229.94 193.445 229.865C190.128 226.478 188.474 224.272 186.18 220.104C186.104 219.965 185.896 219.965 185.82 220.104C183.526 224.272 181.872 226.478 178.555 229.865C178.482 229.94 178.482 230.06 178.555 230.135C181.872 233.522 183.526 235.728 185.82 239.896Z" fill="#BC1E24"/>
<path d="M195.664 196L195.664 196.937L190.811 202.143C188.857 204.232 188.301 205.053 188.301 206.332L188.301 206.352C188.301 207.973 189.502 209.213 191.309 209.213C193.145 209.213 194.424 207.982 194.443 206.205L194.443 206.195L195.723 206.195L195.742 206.205C195.713 208.637 193.838 210.385 191.23 210.385C188.799 210.385 186.943 208.715 186.943 206.479L186.943 206.459C186.943 204.887 187.627 203.725 190.107 201.156L193.799 197.328L193.799 197.211L186.602 197.211L186.602 196L195.664 196ZM181.072 195.707C184.168 195.707 186.023 198.539 186.023 203.031L186.023 203.061C186.023 207.562 184.168 210.385 181.072 210.385C177.977 210.385 176.102 207.562 176.102 203.061L176.102 203.031C176.102 198.529 177.977 195.707 181.072 195.707ZM181.072 196.879C178.797 196.879 177.439 199.252 177.439 203.031L177.439 203.061C177.439 206.85 178.797 209.203 181.072 209.203C183.338 209.203 184.686 206.84 184.686 203.061L184.686 203.031C184.686 199.252 183.338 196.879 181.072 196.879Z" fill="#BC1E24"/>
<g clip-path="url(#clip1_3_1844)">
<path d="M102.45 119.26C102.259 118.913 101.741 118.913 101.55 119.26C95.8158 129.681 91.6805 135.196 83.3882 143.662C83.2039 143.85 83.2039 144.15 83.3882 144.338C91.6805 152.804 95.8158 158.319 101.55 168.74C101.741 169.087 102.259 169.087 102.45 168.74C108.184 158.319 112.319 152.804 120.612 144.338C120.796 144.15 120.796 143.85 120.612 143.662C112.319 135.196 108.184 129.681 102.45 119.26Z" fill="#BC1E24"/>
</g>
<path d="M7.69092 39.2603C6.68994 39.2603 6.0293 38.6797 6.0293 37.7588C6.0293 37.3584 6.12939 36.978 6.28955 36.4976L14.5176 13.4951C15.0181 12.0938 15.7188 11.4531 17 11.4531C18.2812 11.4531 18.9819 12.0938 19.4824 13.4951L27.7104 36.4976C27.8706 36.938 27.9707 37.3584 27.9707 37.7388C27.9707 38.6797 27.3101 39.2603 26.2891 39.2603C25.3281 39.2603 24.7876 38.7998 24.4072 37.6187L22.105 30.792H11.875L9.57275 37.6187C9.19238 38.8198 8.65186 39.2603 7.69092 39.2603ZM12.8159 27.9692H21.1641L17.0601 15.7974H16.9199L12.8159 27.9692Z" fill="#BC1E24"/>
<path d="M17.1801 48.104C17.1038 47.9653 16.8962 47.9653 16.8199 48.104C14.5263 52.2724 12.8722 54.4782 9.55529 57.8648C9.48157 57.9401 9.48157 58.0599 9.55529 58.1352C12.8722 61.5218 14.5263 63.7276 16.8199 67.896C16.8962 68.0347 17.1038 68.0347 17.1801 67.896C19.4737 63.7276 21.1278 61.5218 24.4447 58.1352C24.5184 58.0599 24.5184 57.9401 24.4447 57.8648C21.1278 54.4782 19.4737 52.2724 17.1801 48.104Z" fill="#BC1E24"/>
<path d="M7.33594 92V91.0625L12.1895 85.8574C14.1426 83.7676 14.6992 82.9473 14.6992 81.668V81.6484C14.6992 80.0273 13.498 78.7871 11.6914 78.7871C9.85547 78.7871 8.57617 80.0176 8.55664 81.7949V81.8047H7.27734L7.25781 81.7949C7.28711 79.3633 9.16211 77.6152 11.7695 77.6152C14.2012 77.6152 16.0566 79.2852 16.0566 81.5215V81.541C16.0566 83.1133 15.373 84.2754 12.8926 86.8438L9.20117 90.6719V90.7891H16.3984V92H7.33594ZM21.9277 92.293C18.832 92.293 16.9766 89.4609 16.9766 84.9688V84.9395C16.9766 80.4375 18.832 77.6152 21.9277 77.6152C25.0234 77.6152 26.8984 80.4375 26.8984 84.9395V84.9688C26.8984 89.4707 25.0234 92.293 21.9277 92.293ZM21.9277 91.1211C24.2031 91.1211 25.5605 88.748 25.5605 84.9688V84.9395C25.5605 81.1504 24.2031 78.7969 21.9277 78.7969C19.6621 78.7969 18.3145 81.1602 18.3145 84.9395V84.9688C18.3145 88.748 19.6621 91.1211 21.9277 91.1211Z" fill="#BC1E24"/>
</g>
<defs>
<clipPath id="clip0_3_1844">
<rect width="203" height="288" rx="10" fill="white"/>
</clipPath>
<clipPath id="clip1_3_1844">
<rect width="44" height="179" fill="white" transform="translate(80 54.5)"/>
</clipPath>
</defs>
</svg>
