<svg width="203" height="288" viewBox="0 0 203 288" fill="none" xmlns="http://www.w3.org/2000/svg">
<g clip-path="url(#clip0_3_6129)">
<rect width="203" height="288" rx="10" fill="white"/>
<path d="M195.309 248.74C196.31 248.74 196.971 249.32 196.971 250.241C196.971 250.642 196.871 251.022 196.71 251.502L188.482 274.505C187.982 275.906 187.281 276.547 186 276.547C184.719 276.547 184.018 275.906 183.518 274.505L175.29 251.502C175.129 251.062 175.029 250.642 175.029 250.261C175.029 249.32 175.69 248.74 176.711 248.74C177.672 248.74 178.212 249.2 178.593 250.381L180.895 257.208L191.125 257.208L193.427 250.381C193.808 249.18 194.348 248.74 195.309 248.74ZM190.184 260.031L181.836 260.031L185.94 272.203L186.08 272.203L190.184 260.031Z" fill="#BC1E24"/>
<path d="M190.265 238.999C187.548 238.958 186.493 236.602 186.146 235.491C186.111 235.378 185.888 235.378 185.853 235.491C185.506 236.602 184.452 238.958 181.735 238.999C178.177 239.054 175.501 235.071 177.941 231.071C180.117 227.506 185.918 221 186 221C186.083 221 191.883 227.506 194.059 231.071C196.499 235.071 193.823 239.054 190.265 238.999Z" fill="#BC1E24"/>
<path d="M195.664 196L195.664 196.937L190.811 202.143C188.857 204.232 188.301 205.053 188.301 206.332L188.301 206.352C188.301 207.973 189.502 209.213 191.309 209.213C193.145 209.213 194.424 207.982 194.443 206.205L194.443 206.195L195.723 206.195L195.742 206.205C195.713 208.637 193.838 210.385 191.23 210.385C188.799 210.385 186.943 208.715 186.943 206.479L186.943 206.459C186.943 204.887 187.627 203.725 190.107 201.156L193.799 197.328L193.799 197.211L186.602 197.211L186.602 196L195.664 196ZM181.072 195.707C184.168 195.707 186.023 198.539 186.023 203.031L186.023 203.061C186.023 207.562 184.168 210.385 181.072 210.385C177.977 210.385 176.102 207.562 176.102 203.061L176.102 203.031C176.102 198.529 177.977 195.707 181.072 195.707ZM181.072 196.879C178.797 196.879 177.439 199.252 177.439 203.031L177.439 203.061C177.439 206.85 178.797 209.203 181.072 209.203C183.338 209.203 184.686 206.84 184.686 203.061L184.686 203.031C184.686 199.252 183.338 196.879 181.072 196.879Z" fill="#BC1E24"/>
<g clip-path="url(#clip1_3_6129)">
<path d="M91.7206 122.251C98.2688 122.352 100.812 128.046 101.648 130.731C101.732 131.003 102.27 131.003 102.355 130.731C103.19 128.046 105.731 122.352 112.279 122.251C120.853 122.12 127.304 131.745 121.422 141.411C116.179 150.027 102.198 165.75 102 165.75C101.799 165.75 87.8218 150.028 82.5785 141.411C76.6963 131.745 83.1467 122.12 91.7206 122.251Z" fill="#BC1E24"/>
</g>
<path d="M7.69092 39.2603C6.68994 39.2603 6.0293 38.6797 6.0293 37.7588C6.0293 37.3584 6.12939 36.978 6.28955 36.4976L14.5176 13.4951C15.0181 12.0938 15.7188 11.4531 17 11.4531C18.2812 11.4531 18.9819 12.0938 19.4824 13.4951L27.7104 36.4976C27.8706 36.938 27.9707 37.3584 27.9707 37.7388C27.9707 38.6797 27.3101 39.2603 26.2891 39.2603C25.3281 39.2603 24.7876 38.7998 24.4072 37.6187L22.105 30.792H11.875L9.57275 37.6187C9.19238 38.8198 8.65186 39.2603 7.69092 39.2603ZM12.8159 27.9692H21.1641L17.0601 15.7974H16.9199L12.8159 27.9692Z" fill="#BC1E24"/>
<path d="M12.7347 49.0006C15.4518 49.042 16.5069 51.3984 16.8537 52.5094C16.8888 52.6218 17.1122 52.6217 17.1472 52.5093C17.4938 51.3983 18.5482 49.042 21.2653 49.0006C24.8229 48.9462 27.4995 52.9292 25.0587 56.9289C22.8832 60.4939 17.0821 67 17 67C16.9165 67 11.1169 60.4943 8.94127 56.9289C6.50053 52.9291 9.17705 48.9462 12.7347 49.0006Z" fill="#BC1E24"/>
<path d="M7.33594 92V91.0625L12.1895 85.8574C14.1426 83.7676 14.6992 82.9473 14.6992 81.668V81.6484C14.6992 80.0273 13.498 78.7871 11.6914 78.7871C9.85547 78.7871 8.57617 80.0176 8.55664 81.7949V81.8047H7.27734L7.25781 81.7949C7.28711 79.3633 9.16211 77.6152 11.7695 77.6152C14.2012 77.6152 16.0566 79.2852 16.0566 81.5215V81.541C16.0566 83.1133 15.373 84.2754 12.8926 86.8438L9.20117 90.6719V90.7891H16.3984V92H7.33594ZM21.9277 92.293C18.832 92.293 16.9766 89.4609 16.9766 84.9688V84.9395C16.9766 80.4375 18.832 77.6152 21.9277 77.6152C25.0234 77.6152 26.8984 80.4375 26.8984 84.9395V84.9688C26.8984 89.4707 25.0234 92.293 21.9277 92.293ZM21.9277 91.1211C24.2031 91.1211 25.5605 88.748 25.5605 84.9688V84.9395C25.5605 81.1504 24.2031 78.7969 21.9277 78.7969C19.6621 78.7969 18.3145 81.1602 18.3145 84.9395V84.9688C18.3145 88.748 19.6621 91.1211 21.9277 91.1211Z" fill="#BC1E24"/>
</g>
<defs>
<clipPath id="clip0_3_6129">
<rect width="203" height="288" rx="10" fill="white"/>
</clipPath>
<clipPath id="clip1_3_6129">
<rect width="44" height="179" fill="white" transform="translate(80 54.5)"/>
</clipPath>
</defs>
</svg>
