<svg width="203" height="288" viewBox="0 0 203 288" fill="none" xmlns="http://www.w3.org/2000/svg">
<g clip-path="url(#clip0_5_510)">
<rect width="203" height="288" rx="10" fill="white"/>
<path d="M195.309 248.74C196.31 248.74 196.971 249.32 196.971 250.241C196.971 250.642 196.871 251.022 196.71 251.502L188.482 274.505C187.982 275.906 187.281 276.547 186 276.547C184.719 276.547 184.018 275.906 183.518 274.505L175.29 251.502C175.129 251.062 175.029 250.642 175.029 250.261C175.029 249.32 175.69 248.74 176.711 248.74C177.672 248.74 178.212 249.2 178.593 250.381L180.895 257.208L191.125 257.208L193.427 250.381C193.808 249.18 194.348 248.74 195.309 248.74ZM190.184 260.031L181.836 260.031L185.94 272.203L186.08 272.203L190.184 260.031Z" fill="black"/>
<path d="M187.762 220C187.973 220 188.143 220.164 188.143 220.365C188.143 220.795 187.066 223.617 186.806 225.517C186.774 225.745 187.064 225.836 187.195 225.65C187.823 224.76 188.456 223.808 190.178 223.785C193.385 223.743 195.233 226.79 194.224 229.563C193.729 230.922 186.925 240 186 240C185.075 240 178.271 230.922 177.776 229.563C176.767 226.79 178.615 223.743 181.823 223.785C183.544 223.808 184.177 224.76 184.805 225.65C184.936 225.836 185.226 225.745 185.194 225.517C184.934 223.617 183.857 220.795 183.857 220.365C183.857 220.164 184.027 220 184.238 220L187.762 220Z" fill="#211C1D"/>
<path d="M195.664 196L195.664 196.937L190.811 202.143C188.857 204.232 188.301 205.053 188.301 206.332L188.301 206.352C188.301 207.973 189.502 209.213 191.309 209.213C193.145 209.213 194.424 207.982 194.443 206.205L194.443 206.195L195.723 206.195L195.742 206.205C195.713 208.637 193.838 210.385 191.23 210.385C188.799 210.385 186.943 208.715 186.943 206.479L186.943 206.459C186.943 204.887 187.627 203.725 190.107 201.156L193.799 197.328L193.799 197.211L186.602 197.211L186.602 196L195.664 196ZM181.072 195.707C184.168 195.707 186.023 198.539 186.023 203.031L186.023 203.061C186.023 207.562 184.168 210.385 181.072 210.385C177.977 210.385 176.102 207.562 176.102 203.061L176.102 203.031C176.102 198.529 177.977 195.707 181.072 195.707ZM181.072 196.879C178.797 196.879 177.439 199.252 177.439 203.031L177.439 203.061C177.439 206.85 178.797 209.203 181.072 209.203C183.338 209.203 184.686 206.84 184.686 203.061L184.686 203.031C184.686 199.252 183.338 196.879 181.072 196.879Z" fill="black"/>
<g clip-path="url(#clip1_5_510)">
<path d="M97.853 168C97.3588 168 96.9582 167.608 96.9582 167.123C96.9582 166.093 99.4923 159.318 100.104 154.76C100.178 154.211 99.4958 153.993 99.1876 154.439C97.7105 156.576 96.2215 158.861 92.1706 158.916C84.6234 159.017 80.2757 151.704 82.6497 145.05C83.8137 141.787 99.8245 120 102 120C104.175 120 120.186 141.787 121.35 145.05C123.724 151.704 119.377 159.017 111.829 158.916C107.779 158.861 106.289 156.576 104.812 154.439C104.504 153.993 103.822 154.211 103.896 154.76C104.508 159.318 107.042 166.093 107.042 167.123C107.042 167.608 106.641 168 106.147 168H97.853Z" fill="#211C1D"/>
</g>
<path d="M7.69092 39.2603C6.68994 39.2603 6.0293 38.6797 6.0293 37.7588C6.0293 37.3584 6.12939 36.978 6.28955 36.4976L14.5176 13.4951C15.0181 12.0938 15.7188 11.4531 17 11.4531C18.2812 11.4531 18.9819 12.0938 19.4824 13.4951L27.7104 36.4976C27.8706 36.938 27.9707 37.3584 27.9707 37.7388C27.9707 38.6797 27.3101 39.2603 26.2891 39.2603C25.3281 39.2603 24.7876 38.7998 24.4072 37.6187L22.105 30.792H11.875L9.57275 37.6187C9.19238 38.8198 8.65186 39.2603 7.69092 39.2603ZM12.8159 27.9692H21.1641L17.0601 15.7974H16.9199L12.8159 27.9692Z" fill="black"/>
<path d="M15.2375 68C15.0275 68 14.8572 67.8365 14.8572 67.6348C14.8572 67.2053 15.9342 64.3825 16.1943 62.4832C16.2256 62.2548 15.9357 62.1637 15.8047 62.3495C15.177 63.2399 14.5441 64.1922 12.8225 64.2149C9.61496 64.2572 7.76719 61.2101 8.77613 58.4373C9.2708 57.0778 16.0754 48 17 48C17.9245 48 24.7292 57.0778 25.2239 58.4373C26.2328 61.2101 24.385 64.2572 21.1775 64.2149C19.4559 64.1922 18.823 63.2399 18.1953 62.3495C18.0643 62.1637 17.7744 62.2548 17.8057 62.4832C18.0658 64.3825 19.1428 67.2053 19.1428 67.6348C19.1428 67.8365 18.9725 68 18.7625 68H15.2375Z" fill="#211C1D"/>
<path d="M7.33594 92V91.0625L12.1895 85.8574C14.1426 83.7676 14.6992 82.9473 14.6992 81.668V81.6484C14.6992 80.0273 13.498 78.7871 11.6914 78.7871C9.85547 78.7871 8.57617 80.0176 8.55664 81.7949V81.8047H7.27734L7.25781 81.7949C7.28711 79.3633 9.16211 77.6152 11.7695 77.6152C14.2012 77.6152 16.0566 79.2852 16.0566 81.5215V81.541C16.0566 83.1133 15.373 84.2754 12.8926 86.8438L9.20117 90.6719V90.7891H16.3984V92H7.33594ZM21.9277 92.293C18.832 92.293 16.9766 89.4609 16.9766 84.9688V84.9395C16.9766 80.4375 18.832 77.6152 21.9277 77.6152C25.0234 77.6152 26.8984 80.4375 26.8984 84.9395V84.9688C26.8984 89.4707 25.0234 92.293 21.9277 92.293ZM21.9277 91.1211C24.2031 91.1211 25.5605 88.748 25.5605 84.9688V84.9395C25.5605 81.1504 24.2031 78.7969 21.9277 78.7969C19.6621 78.7969 18.3145 81.1602 18.3145 84.9395V84.9688C18.3145 88.748 19.6621 91.1211 21.9277 91.1211Z" fill="black"/>
</g>
<defs>
<clipPath id="clip0_5_510">
<rect width="203" height="288" rx="10" fill="white"/>
</clipPath>
<clipPath id="clip1_5_510">
<rect width="44" height="179" fill="white" transform="translate(80 54.5)"/>
</clipPath>
</defs>
</svg>
