<svg width="203" height="288" viewBox="0 0 203 288" fill="none" xmlns="http://www.w3.org/2000/svg">
<g clip-path="url(#clip0_5_503)">
<rect width="203" height="288" rx="10" fill="white"/>
<path d="M186.08 248.419C191.726 248.419 195.649 251.703 195.649 256.427C195.649 259.73 193.427 262.513 190.124 263.314L190.124 263.514C192.807 264.395 194.568 266.817 194.568 269.6C194.568 273.804 190.965 276.907 186 276.907C181.035 276.907 177.412 273.804 177.412 269.6C177.412 266.857 179.233 264.395 181.876 263.514L181.876 263.314C178.613 262.533 176.371 259.73 176.371 256.467C176.371 251.763 180.415 248.419 186.08 248.419ZM186 264.695C182.957 264.695 180.815 266.637 180.815 269.36C180.815 272.062 182.937 273.944 186 273.944C189.043 273.944 191.185 272.042 191.185 269.36C191.185 266.657 189.023 264.695 186 264.695ZM186 251.342C182.376 251.342 179.774 253.524 179.774 256.567C179.774 259.61 182.376 261.833 186 261.833C189.624 261.833 192.226 259.63 192.226 256.567C192.226 253.524 189.624 251.342 186 251.342Z" fill="black"/>
<path d="M187.762 220C187.973 220 188.143 220.164 188.143 220.365C188.143 220.795 187.066 223.617 186.806 225.517C186.774 225.745 187.064 225.836 187.195 225.65C187.823 224.76 188.456 223.808 190.178 223.785C193.385 223.743 195.233 226.79 194.224 229.563C193.729 230.922 186.925 240 186 240C185.075 240 178.271 230.922 177.776 229.563C176.767 226.79 178.615 223.743 181.823 223.785C183.544 223.808 184.177 224.76 184.805 225.65C184.936 225.836 185.226 225.745 185.194 225.517C184.934 223.617 183.857 220.795 183.857 220.365C183.857 220.164 184.027 220 184.238 220L187.762 220Z" fill="#211C1D"/>
<path d="M191.934 196L191.934 210.092L190.596 210.092L190.596 196L191.934 196ZM184.529 195.707C187.625 195.707 189.48 198.539 189.48 203.031L189.48 203.061C189.48 207.562 187.625 210.385 184.529 210.385C181.434 210.385 179.559 207.562 179.559 203.061L179.559 203.031C179.559 198.529 181.434 195.707 184.529 195.707ZM184.529 196.879C182.254 196.879 180.896 199.252 180.896 203.031L180.896 203.061C180.896 206.85 182.254 209.203 184.529 209.203C186.795 209.203 188.143 206.84 188.143 203.061L188.143 203.031C188.143 199.252 186.795 196.879 184.529 196.879Z" fill="black"/>
<g clip-path="url(#clip1_5_503)">
<path d="M141.353 72C140.859 72 140.458 71.6076 140.458 71.1235C140.458 70.0926 142.992 63.318 143.604 58.7596C143.678 58.2115 142.996 57.993 142.688 58.4389C141.211 60.5759 139.721 62.8613 135.671 62.9157C128.123 63.0172 123.776 55.7041 126.15 49.0496C127.314 45.7867 143.325 24 145.5 24C147.675 24 163.686 45.7867 164.85 49.0496C167.224 55.7041 162.877 63.0172 155.329 62.9157C151.279 62.8613 149.789 60.5759 148.312 58.4389C148.004 57.993 147.322 58.2115 147.396 58.7596C148.008 63.318 150.542 70.0926 150.542 71.1235C150.542 71.6076 150.141 72 149.647 72H141.353Z" fill="#211C1D"/>
<path d="M141.353 168C140.859 168 140.458 167.608 140.458 167.123C140.458 166.093 142.992 159.318 143.604 154.76C143.678 154.211 142.996 153.993 142.688 154.439C141.211 156.576 139.721 158.861 135.671 158.916C128.123 159.017 123.776 151.704 126.15 145.05C127.314 141.787 143.325 120 145.5 120C147.675 120 163.686 141.787 164.85 145.05C167.224 151.704 162.877 159.017 155.329 158.916C151.279 158.861 149.789 156.576 148.312 154.439C148.004 153.993 147.322 154.211 147.396 154.76C148.008 159.318 150.542 166.093 150.542 167.123C150.542 167.608 150.141 168 149.647 168H141.353Z" fill="#211C1D"/>
<path d="M141.353 264C140.859 264 140.458 263.608 140.458 263.123C140.458 262.093 142.992 255.318 143.604 250.76C143.678 250.211 142.996 249.993 142.688 250.439C141.211 252.576 139.721 254.861 135.671 254.916C128.123 255.017 123.776 247.704 126.15 241.05C127.314 237.787 143.325 216 145.5 216C147.675 216 163.686 237.787 164.85 241.05C167.224 247.704 162.877 255.017 155.329 254.916C151.279 254.861 149.789 252.576 148.312 250.439C148.004 249.993 147.322 250.211 147.396 250.76C148.008 255.318 150.542 262.093 150.542 263.123C150.542 263.608 150.141 264 149.647 264H141.353Z" fill="#211C1D"/>
</g>
<g clip-path="url(#clip2_5_503)">
<path d="M97.853 119.5C97.3588 119.5 96.9582 119.108 96.9582 118.623C96.9582 117.593 99.4923 110.818 100.104 106.26C100.178 105.711 99.4958 105.493 99.1876 105.939C97.7105 108.076 96.2215 110.361 92.1706 110.416C84.6234 110.517 80.2757 103.204 82.6497 96.5496C83.8137 93.2867 99.8245 71.5 102 71.5C104.175 71.5 120.186 93.2867 121.35 96.5496C123.724 103.204 119.377 110.517 111.829 110.416C107.779 110.361 106.289 108.076 104.812 105.939C104.504 105.493 103.822 105.711 103.896 106.26C104.508 110.818 107.042 117.593 107.042 118.623C107.042 119.108 106.641 119.5 106.147 119.5H97.853Z" fill="#211C1D"/>
<path d="M97.853 216.5C97.3588 216.5 96.9582 216.108 96.9582 215.623C96.9582 214.593 99.4923 207.818 100.104 203.26C100.178 202.711 99.4958 202.493 99.1876 202.939C97.7105 205.076 96.2215 207.361 92.1706 207.416C84.6234 207.517 80.2757 200.204 82.6497 193.55C83.8137 190.287 99.8245 168.5 102 168.5C104.175 168.5 120.186 190.287 121.35 193.55C123.724 200.204 119.377 207.517 111.829 207.416C107.779 207.361 106.289 205.076 104.812 202.939C104.504 202.493 103.822 202.711 103.896 203.26C104.508 207.818 107.042 214.593 107.042 215.623C107.042 216.108 106.641 216.5 106.147 216.5H97.853Z" fill="#211C1D"/>
</g>
<g clip-path="url(#clip3_5_503)">
<path d="M53.353 72C52.8588 72 52.4582 71.6076 52.4582 71.1235C52.4582 70.0926 54.9923 63.318 55.6043 58.7596C55.6779 58.2115 54.9958 57.993 54.6876 58.4389C53.2105 60.5759 51.7215 62.8613 47.6706 62.9157C40.1234 63.0172 35.7757 55.7041 38.1497 49.0496C39.3137 45.7867 55.3245 24 57.5 24C59.6754 24 75.6864 45.7867 76.8503 49.0496C79.2243 55.7041 74.8766 63.0172 67.3294 62.9157C63.2785 62.8613 61.7895 60.5759 60.3124 58.4389C60.0042 57.993 59.3221 58.2115 59.3957 58.7596C60.0077 63.318 62.5418 70.0926 62.5418 71.1235C62.5418 71.6076 62.1412 72 61.647 72H53.353Z" fill="#211C1D"/>
<path d="M53.353 168C52.8588 168 52.4582 167.608 52.4582 167.123C52.4582 166.093 54.9923 159.318 55.6043 154.76C55.6779 154.211 54.9958 153.993 54.6876 154.439C53.2105 156.576 51.7215 158.861 47.6706 158.916C40.1234 159.017 35.7757 151.704 38.1497 145.05C39.3137 141.787 55.3245 120 57.5 120C59.6754 120 75.6864 141.787 76.8503 145.05C79.2243 151.704 74.8766 159.017 67.3294 158.916C63.2785 158.861 61.7895 156.576 60.3124 154.439C60.0042 153.993 59.3221 154.211 59.3957 154.76C60.0077 159.318 62.5418 166.093 62.5418 167.123C62.5418 167.608 62.1412 168 61.647 168H53.353Z" fill="#211C1D"/>
<path d="M53.353 264C52.8588 264 52.4582 263.608 52.4582 263.123C52.4582 262.093 54.9923 255.318 55.6043 250.76C55.6779 250.211 54.9958 249.993 54.6876 250.439C53.2105 252.576 51.7215 254.861 47.6706 254.916C40.1234 255.017 35.7757 247.704 38.1497 241.05C39.3137 237.787 55.3245 216 57.5 216C59.6754 216 75.6864 237.787 76.8503 241.05C79.2243 247.704 74.8766 255.017 67.3294 254.916C63.2785 254.861 61.7895 252.576 60.3124 250.439C60.0042 249.993 59.3221 250.211 59.3957 250.76C60.0077 255.318 62.5418 262.093 62.5418 263.123C62.5418 263.608 62.1412 264 61.647 264H53.353Z" fill="#211C1D"/>
</g>
<path d="M16.9199 39.5806C11.2744 39.5806 7.35059 36.2974 7.35059 31.5728C7.35059 28.2695 9.57275 25.4868 12.876 24.686V24.4858C10.1934 23.605 8.43164 21.1826 8.43164 18.3999C8.43164 14.1958 12.0352 11.0928 17 11.0928C21.9648 11.0928 25.5884 14.1958 25.5884 18.3999C25.5884 21.1426 23.7666 23.605 21.124 24.4858V24.686C24.3872 25.4668 26.6294 28.2695 26.6294 31.5327C26.6294 36.2373 22.5854 39.5806 16.9199 39.5806ZM17 23.3047C20.043 23.3047 22.1851 21.3628 22.1851 18.6401C22.1851 15.9375 20.063 14.0557 17 14.0557C13.957 14.0557 11.8149 15.9575 11.8149 18.6401C11.8149 21.3428 13.9771 23.3047 17 23.3047ZM17 36.6577C20.6235 36.6577 23.2261 34.4756 23.2261 31.4326C23.2261 28.3896 20.6235 26.1675 17 26.1675C13.3765 26.1675 10.7739 28.3696 10.7739 31.4326C10.7739 34.4756 13.3765 36.6577 17 36.6577Z" fill="black"/>
<path d="M15.2375 68C15.0275 68 14.8572 67.8365 14.8572 67.6348C14.8572 67.2053 15.9342 64.3825 16.1943 62.4832C16.2256 62.2548 15.9357 62.1637 15.8047 62.3495C15.177 63.2399 14.5441 64.1922 12.8225 64.2149C9.61496 64.2572 7.76719 61.2101 8.77613 58.4373C9.2708 57.0778 16.0754 48 17 48C17.9245 48 24.7292 57.0778 25.2239 58.4373C26.2328 61.2101 24.385 64.2572 21.1775 64.2149C19.4559 64.1922 18.823 63.2399 18.1953 62.3495C18.0643 62.1637 17.7744 62.2548 17.8057 62.4832C18.0658 64.3825 19.1428 67.2053 19.1428 67.6348C19.1428 67.8365 18.9725 68 18.7625 68H15.2375Z" fill="#211C1D"/>
<path d="M11.0664 92V77.9082H12.4043V92H11.0664ZM18.4707 92.293C15.375 92.293 13.5195 89.4609 13.5195 84.9688V84.9395C13.5195 80.4375 15.375 77.6152 18.4707 77.6152C21.5664 77.6152 23.4414 80.4375 23.4414 84.9395V84.9688C23.4414 89.4707 21.5664 92.293 18.4707 92.293ZM18.4707 91.1211C20.7461 91.1211 22.1035 88.748 22.1035 84.9688V84.9395C22.1035 81.1504 20.7461 78.7969 18.4707 78.7969C16.2051 78.7969 14.8574 81.1602 14.8574 84.9395V84.9688C14.8574 88.748 16.2051 91.1211 18.4707 91.1211Z" fill="black"/>
</g>
<defs>
<clipPath id="clip0_5_503">
<rect width="203" height="288" rx="10" fill="white"/>
</clipPath>
<clipPath id="clip1_5_503">
<rect width="44" height="244" fill="white" transform="translate(123.5 22)"/>
</clipPath>
<clipPath id="clip2_5_503">
<rect width="44" height="179" fill="white" transform="translate(80 54.5)"/>
</clipPath>
<clipPath id="clip3_5_503">
<rect width="44" height="244" fill="white" transform="translate(35.5 22)"/>
</clipPath>
</defs>
</svg>
