<svg width="203" height="288" viewBox="0 0 203 288" fill="none" xmlns="http://www.w3.org/2000/svg">
<g clip-path="url(#clip0_3_1627)">
<rect width="203" height="288" rx="10" fill="white"/>
<path d="M186.08 248.419C191.726 248.419 195.649 251.703 195.649 256.427C195.649 259.73 193.427 262.513 190.124 263.314L190.124 263.514C192.807 264.395 194.568 266.817 194.568 269.6C194.568 273.804 190.965 276.907 186 276.907C181.035 276.907 177.412 273.804 177.412 269.6C177.412 266.857 179.233 264.395 181.876 263.514L181.876 263.314C178.613 262.533 176.371 259.73 176.371 256.467C176.371 251.763 180.415 248.419 186.08 248.419ZM186 264.695C182.957 264.695 180.815 266.637 180.815 269.36C180.815 272.062 182.937 273.944 186 273.944C189.043 273.944 191.185 272.042 191.185 269.36C191.185 266.657 189.023 264.695 186 264.695ZM186 251.342C182.376 251.342 179.774 253.524 179.774 256.567C179.774 259.61 182.376 261.833 186 261.833C189.624 261.833 192.226 259.63 192.226 256.567C192.226 253.524 189.624 251.342 186 251.342Z" fill="#BC1E24"/>
<path d="M185.82 239.896C185.896 240.035 186.104 240.035 186.18 239.896C188.474 235.728 190.128 233.522 193.445 230.135C193.518 230.06 193.518 229.94 193.445 229.865C190.128 226.478 188.474 224.272 186.18 220.104C186.104 219.965 185.896 219.965 185.82 220.104C183.526 224.272 181.872 226.478 178.555 229.865C178.482 229.94 178.482 230.06 178.555 230.135C181.872 233.522 183.526 235.728 185.82 239.896Z" fill="#BC1E24"/>
<path d="M191.934 196L191.934 210.092L190.596 210.092L190.596 196L191.934 196ZM184.529 195.707C187.625 195.707 189.48 198.539 189.48 203.031L189.48 203.061C189.48 207.562 187.625 210.385 184.529 210.385C181.434 210.385 179.559 207.562 179.559 203.061L179.559 203.031C179.559 198.529 181.434 195.707 184.529 195.707ZM184.529 196.879C182.254 196.879 180.896 199.252 180.896 203.031L180.896 203.061C180.896 206.85 182.254 209.203 184.529 209.203C186.795 209.203 188.143 206.84 188.143 203.061L188.143 203.031C188.143 199.252 186.795 196.879 184.529 196.879Z" fill="#BC1E24"/>
<g clip-path="url(#clip1_3_1627)">
<path d="M145.95 23.2599C145.759 22.9134 145.241 22.9134 145.05 23.2599C139.316 33.6809 135.181 39.1955 126.888 47.6621C126.704 47.8503 126.704 48.1498 126.888 48.338C135.181 56.8045 139.316 62.3191 145.05 72.7401C145.241 73.0866 145.759 73.0866 145.95 72.7401C151.684 62.3191 155.819 56.8045 164.112 48.338C164.296 48.1498 164.296 47.8503 164.112 47.6621C155.819 39.1955 151.684 33.6809 145.95 23.2599Z" fill="#BC1E24"/>
<path d="M145.95 119.26C145.759 118.913 145.241 118.913 145.05 119.26C139.316 129.681 135.181 135.196 126.888 143.662C126.704 143.85 126.704 144.15 126.888 144.338C135.181 152.804 139.316 158.319 145.05 168.74C145.241 169.087 145.759 169.087 145.95 168.74C151.684 158.319 155.819 152.804 164.112 144.338C164.296 144.15 164.296 143.85 164.112 143.662C155.819 135.196 151.684 129.681 145.95 119.26Z" fill="#BC1E24"/>
<path d="M145.95 215.26C145.759 214.913 145.241 214.913 145.05 215.26C139.316 225.681 135.181 231.196 126.888 239.662C126.704 239.85 126.704 240.15 126.888 240.338C135.181 248.804 139.316 254.319 145.05 264.74C145.241 265.087 145.759 265.087 145.95 264.74C151.684 254.319 155.819 248.804 164.112 240.338C164.296 240.15 164.296 239.85 164.112 239.662C155.819 231.196 151.684 225.681 145.95 215.26Z" fill="#BC1E24"/>
</g>
<g clip-path="url(#clip2_3_1627)">
<path d="M102.45 70.7599C102.259 70.4134 101.741 70.4134 101.55 70.7599C95.8158 81.1809 91.6805 86.6955 83.3882 95.1621C83.2039 95.3503 83.2039 95.6498 83.3882 95.838C91.6805 104.304 95.8158 109.819 101.55 120.24C101.741 120.587 102.259 120.587 102.45 120.24C108.184 109.819 112.319 104.304 120.612 95.838C120.796 95.6498 120.796 95.3503 120.612 95.1621C112.319 86.6955 108.184 81.1809 102.45 70.7599Z" fill="#BC1E24"/>
<path d="M102.45 167.76C102.259 167.413 101.741 167.413 101.55 167.76C95.8158 178.181 91.6805 183.696 83.3882 192.162C83.2039 192.35 83.2039 192.65 83.3882 192.838C91.6805 201.304 95.8158 206.819 101.55 217.24C101.741 217.587 102.259 217.587 102.45 217.24C108.184 206.819 112.319 201.304 120.612 192.838C120.796 192.65 120.796 192.35 120.612 192.162C112.319 183.696 108.184 178.181 102.45 167.76Z" fill="#BC1E24"/>
</g>
<g clip-path="url(#clip3_3_1627)">
<path d="M57.9501 23.2599C57.7594 22.9134 57.2406 22.9134 57.0499 23.2599C51.3158 33.6809 47.1805 39.1955 38.8882 47.6621C38.7039 47.8503 38.7039 48.1498 38.8882 48.338C47.1805 56.8045 51.3158 62.3191 57.0499 72.7401C57.2406 73.0866 57.7594 73.0866 57.9501 72.7401C63.6842 62.3191 67.8195 56.8045 76.1118 48.338C76.2961 48.1498 76.2961 47.8503 76.1118 47.6621C67.8195 39.1955 63.6842 33.6809 57.9501 23.2599Z" fill="#BC1E24"/>
<path d="M57.9501 119.26C57.7594 118.913 57.2406 118.913 57.0499 119.26C51.3158 129.681 47.1805 135.196 38.8882 143.662C38.7039 143.85 38.7039 144.15 38.8882 144.338C47.1805 152.804 51.3158 158.319 57.0499 168.74C57.2406 169.087 57.7594 169.087 57.9501 168.74C63.6842 158.319 67.8195 152.804 76.1118 144.338C76.2961 144.15 76.2961 143.85 76.1118 143.662C67.8195 135.196 63.6842 129.681 57.9501 119.26Z" fill="#BC1E24"/>
<path d="M57.9501 215.26C57.7594 214.913 57.2406 214.913 57.0499 215.26C51.3158 225.681 47.1805 231.196 38.8882 239.662C38.7039 239.85 38.7039 240.15 38.8882 240.338C47.1805 248.804 51.3158 254.319 57.0499 264.74C57.2406 265.087 57.7594 265.087 57.9501 264.74C63.6842 254.319 67.8195 248.804 76.1118 240.338C76.2961 240.15 76.2961 239.85 76.1118 239.662C67.8195 231.196 63.6842 225.681 57.9501 215.26Z" fill="#BC1E24"/>
</g>
<path d="M16.9199 39.5806C11.2744 39.5806 7.35059 36.2974 7.35059 31.5728C7.35059 28.2695 9.57275 25.4868 12.876 24.686V24.4858C10.1934 23.605 8.43164 21.1826 8.43164 18.3999C8.43164 14.1958 12.0352 11.0928 17 11.0928C21.9648 11.0928 25.5884 14.1958 25.5884 18.3999C25.5884 21.1426 23.7666 23.605 21.124 24.4858V24.686C24.3872 25.4668 26.6294 28.2695 26.6294 31.5327C26.6294 36.2373 22.5854 39.5806 16.9199 39.5806ZM17 23.3047C20.043 23.3047 22.1851 21.3628 22.1851 18.6401C22.1851 15.9375 20.063 14.0557 17 14.0557C13.957 14.0557 11.8149 15.9575 11.8149 18.6401C11.8149 21.3428 13.9771 23.3047 17 23.3047ZM17 36.6577C20.6235 36.6577 23.2261 34.4756 23.2261 31.4326C23.2261 28.3896 20.6235 26.1675 17 26.1675C13.3765 26.1675 10.7739 28.3696 10.7739 31.4326C10.7739 34.4756 13.3765 36.6577 17 36.6577Z" fill="#BC1E24"/>
<path d="M17.1801 48.104C17.1038 47.9653 16.8962 47.9653 16.8199 48.104C14.5263 52.2724 12.8722 54.4782 9.55529 57.8648C9.48157 57.9401 9.48157 58.0599 9.55529 58.1352C12.8722 61.5218 14.5263 63.7276 16.8199 67.896C16.8962 68.0347 17.1038 68.0347 17.1801 67.896C19.4737 63.7276 21.1278 61.5218 24.4447 58.1352C24.5184 58.0599 24.5184 57.9401 24.4447 57.8648C21.1278 54.4782 19.4737 52.2724 17.1801 48.104Z" fill="#BC1E24"/>
<path d="M11.0664 92V77.9082H12.4043V92H11.0664ZM18.4707 92.293C15.375 92.293 13.5195 89.4609 13.5195 84.9688V84.9395C13.5195 80.4375 15.375 77.6152 18.4707 77.6152C21.5664 77.6152 23.4414 80.4375 23.4414 84.9395V84.9688C23.4414 89.4707 21.5664 92.293 18.4707 92.293ZM18.4707 91.1211C20.7461 91.1211 22.1035 88.748 22.1035 84.9688V84.9395C22.1035 81.1504 20.7461 78.7969 18.4707 78.7969C16.2051 78.7969 14.8574 81.1602 14.8574 84.9395V84.9688C14.8574 88.748 16.2051 91.1211 18.4707 91.1211Z" fill="#BC1E24"/>
</g>
<defs>
<clipPath id="clip0_3_1627">
<rect width="203" height="288" rx="10" fill="white"/>
</clipPath>
<clipPath id="clip1_3_1627">
<rect width="44" height="244" fill="white" transform="translate(123.5 22)"/>
</clipPath>
<clipPath id="clip2_3_1627">
<rect width="44" height="179" fill="white" transform="translate(80 54.5)"/>
</clipPath>
<clipPath id="clip3_3_1627">
<rect width="44" height="244" fill="white" transform="translate(35.5 22)"/>
</clipPath>
</defs>
</svg>
