<svg width="203" height="288" viewBox="0 0 203 288" fill="none" xmlns="http://www.w3.org/2000/svg">
<g clip-path="url(#clip0_3_6122)">
<rect width="203" height="288" rx="10" fill="white"/>
<path d="M186.08 248.419C191.726 248.419 195.649 251.703 195.649 256.427C195.649 259.73 193.427 262.513 190.124 263.314L190.124 263.514C192.807 264.395 194.568 266.817 194.568 269.6C194.568 273.804 190.965 276.907 186 276.907C181.035 276.907 177.412 273.804 177.412 269.6C177.412 266.857 179.233 264.395 181.876 263.514L181.876 263.314C178.613 262.533 176.371 259.73 176.371 256.467C176.371 251.763 180.415 248.419 186.08 248.419ZM186 264.695C182.957 264.695 180.815 266.637 180.815 269.36C180.815 272.062 182.937 273.944 186 273.944C189.043 273.944 191.185 272.042 191.185 269.36C191.185 266.657 189.023 264.695 186 264.695ZM186 251.342C182.376 251.342 179.774 253.524 179.774 256.567C179.774 259.61 182.376 261.833 186 261.833C189.624 261.833 192.226 259.63 192.226 256.567C192.226 253.524 189.624 251.342 186 251.342Z" fill="#BC1E24"/>
<path d="M190.265 238.999C187.548 238.958 186.493 236.602 186.146 235.491C186.111 235.378 185.888 235.378 185.853 235.491C185.506 236.602 184.452 238.958 181.735 238.999C178.177 239.054 175.501 235.071 177.941 231.071C180.117 227.506 185.918 221 186 221C186.083 221 191.883 227.506 194.059 231.071C196.499 235.071 193.823 239.054 190.265 238.999Z" fill="#BC1E24"/>
<path d="M191.934 196L191.934 210.092L190.596 210.092L190.596 196L191.934 196ZM184.529 195.707C187.625 195.707 189.48 198.539 189.48 203.031L189.48 203.061C189.48 207.562 187.625 210.385 184.529 210.385C181.434 210.385 179.559 207.562 179.559 203.061L179.559 203.031C179.559 198.529 181.434 195.707 184.529 195.707ZM184.529 196.879C182.254 196.879 180.896 199.252 180.896 203.031L180.896 203.061C180.896 206.85 182.254 209.203 184.529 209.203C186.795 209.203 188.143 206.84 188.143 203.061L188.143 203.031C188.143 199.252 186.795 196.879 184.529 196.879Z" fill="#BC1E24"/>
<g clip-path="url(#clip1_3_6122)">
<path d="M135.221 26.2514C141.769 26.3516 144.312 32.0461 145.148 34.731C145.232 35.0026 145.77 35.0025 145.855 34.7309C146.69 32.0459 149.231 26.3516 155.779 26.2514C164.353 26.1199 170.804 35.7455 164.922 45.4115C159.679 54.0269 145.698 69.75 145.5 69.75C145.299 69.7499 131.322 54.0278 126.079 45.4115C120.196 35.7454 126.647 26.1199 135.221 26.2514Z" fill="#BC1E24"/>
<path d="M135.221 122.251C141.769 122.352 144.312 128.046 145.148 130.731C145.232 131.003 145.77 131.003 145.855 130.731C146.69 128.046 149.231 122.352 155.779 122.251C164.353 122.12 170.804 131.745 164.922 141.411C159.679 150.027 145.698 165.75 145.5 165.75C145.299 165.75 131.322 150.028 126.079 141.411C120.196 131.745 126.647 122.12 135.221 122.251Z" fill="#BC1E24"/>
<path d="M135.221 218.251C141.769 218.352 144.312 224.046 145.148 226.731C145.232 227.003 145.77 227.003 145.855 226.731C146.69 224.046 149.231 218.352 155.779 218.251C164.353 218.12 170.804 227.745 164.922 237.411C159.679 246.027 145.698 261.75 145.5 261.75C145.299 261.75 131.322 246.028 126.079 237.411C120.196 227.745 126.647 218.12 135.221 218.251Z" fill="#BC1E24"/>
</g>
<g clip-path="url(#clip2_3_6122)">
<path d="M91.7207 73.7514C98.2689 73.8516 100.812 79.5461 101.648 82.231C101.732 82.5026 102.27 82.5025 102.355 82.2309C103.19 79.5459 105.731 73.8516 112.279 73.7514C120.853 73.6199 127.304 83.2455 121.422 92.9115C116.179 101.527 102.198 117.25 102 117.25C101.799 117.25 87.8219 101.528 82.5785 92.9115C76.6963 83.2454 83.1467 73.6199 91.7207 73.7514Z" fill="#BC1E24"/>
<path d="M91.7207 170.751C98.2689 170.852 100.812 176.546 101.648 179.231C101.732 179.503 102.27 179.503 102.355 179.231C103.19 176.546 105.731 170.852 112.279 170.751C120.853 170.62 127.304 180.245 121.422 189.911C116.179 198.527 102.198 214.25 102 214.25C101.799 214.25 87.8219 198.528 82.5785 189.911C76.6963 180.245 83.1467 170.62 91.7207 170.751Z" fill="#BC1E24"/>
</g>
<g clip-path="url(#clip3_3_6122)">
<path d="M47.2207 26.2514C53.7689 26.3516 56.3116 32.0461 57.1476 34.731C57.2321 35.0026 57.7704 35.0025 57.8549 34.7309C58.6901 32.0459 61.2313 26.3516 67.7794 26.2514C76.3533 26.1199 82.8039 35.7455 76.9216 45.4115C71.6786 54.0269 57.6979 69.75 57.5 69.75C57.2989 69.7499 43.3219 54.0278 38.0785 45.4115C32.1963 35.7454 38.6467 26.1199 47.2207 26.2514Z" fill="#BC1E24"/>
<path d="M47.2207 122.251C53.7689 122.352 56.3116 128.046 57.1476 130.731C57.2321 131.003 57.7704 131.003 57.8549 130.731C58.6901 128.046 61.2313 122.352 67.7794 122.251C76.3533 122.12 82.8039 131.745 76.9216 141.411C71.6786 150.027 57.6979 165.75 57.5 165.75C57.2989 165.75 43.3219 150.028 38.0785 141.411C32.1963 131.745 38.6467 122.12 47.2207 122.251Z" fill="#BC1E24"/>
<path d="M47.2207 218.251C53.7689 218.352 56.3116 224.046 57.1476 226.731C57.2321 227.003 57.7704 227.003 57.8549 226.731C58.6901 224.046 61.2313 218.352 67.7794 218.251C76.3533 218.12 82.8039 227.745 76.9216 237.411C71.6786 246.027 57.6979 261.75 57.5 261.75C57.2989 261.75 43.3219 246.028 38.0785 237.411C32.1963 227.745 38.6467 218.12 47.2207 218.251Z" fill="#BC1E24"/>
</g>
<path d="M16.9199 39.5806C11.2744 39.5806 7.35059 36.2974 7.35059 31.5728C7.35059 28.2695 9.57275 25.4868 12.876 24.686V24.4858C10.1934 23.605 8.43164 21.1826 8.43164 18.3999C8.43164 14.1958 12.0352 11.0928 17 11.0928C21.9648 11.0928 25.5884 14.1958 25.5884 18.3999C25.5884 21.1426 23.7666 23.605 21.124 24.4858V24.686C24.3872 25.4668 26.6294 28.2695 26.6294 31.5327C26.6294 36.2373 22.5854 39.5806 16.9199 39.5806ZM17 23.3047C20.043 23.3047 22.1851 21.3628 22.1851 18.6401C22.1851 15.9375 20.063 14.0557 17 14.0557C13.957 14.0557 11.8149 15.9575 11.8149 18.6401C11.8149 21.3428 13.9771 23.3047 17 23.3047ZM17 36.6577C20.6235 36.6577 23.2261 34.4756 23.2261 31.4326C23.2261 28.3896 20.6235 26.1675 17 26.1675C13.3765 26.1675 10.7739 28.3696 10.7739 31.4326C10.7739 34.4756 13.3765 36.6577 17 36.6577Z" fill="#BC1E24"/>
<path d="M12.7347 49.0006C15.4518 49.042 16.5069 51.3984 16.8537 52.5094C16.8888 52.6218 17.1122 52.6217 17.1472 52.5093C17.4938 51.3983 18.5482 49.042 21.2653 49.0006C24.8229 48.9462 27.4995 52.9292 25.0587 56.9289C22.8832 60.4939 17.0821 67 17 67C16.9165 67 11.1169 60.4943 8.94127 56.9289C6.50053 52.9291 9.17705 48.9462 12.7347 49.0006Z" fill="#BC1E24"/>
<path d="M11.0664 92V77.9082H12.4043V92H11.0664ZM18.4707 92.293C15.375 92.293 13.5195 89.4609 13.5195 84.9688V84.9395C13.5195 80.4375 15.375 77.6152 18.4707 77.6152C21.5664 77.6152 23.4414 80.4375 23.4414 84.9395V84.9688C23.4414 89.4707 21.5664 92.293 18.4707 92.293ZM18.4707 91.1211C20.7461 91.1211 22.1035 88.748 22.1035 84.9688V84.9395C22.1035 81.1504 20.7461 78.7969 18.4707 78.7969C16.2051 78.7969 14.8574 81.1602 14.8574 84.9395V84.9688C14.8574 88.748 16.2051 91.1211 18.4707 91.1211Z" fill="#BC1E24"/>
</g>
<defs>
<clipPath id="clip0_3_6122">
<rect width="203" height="288" rx="10" fill="white"/>
</clipPath>
<clipPath id="clip1_3_6122">
<rect width="44" height="244" fill="white" transform="translate(123.5 22)"/>
</clipPath>
<clipPath id="clip2_3_6122">
<rect width="44" height="179" fill="white" transform="translate(80 54.5)"/>
</clipPath>
<clipPath id="clip3_3_6122">
<rect width="44" height="244" fill="white" transform="translate(35.5 22)"/>
</clipPath>
</defs>
</svg>
