<svg width="203" height="288" viewBox="0 0 203 288" fill="none" xmlns="http://www.w3.org/2000/svg">
<g clip-path="url(#clip0_5_1853)">
<rect width="203" height="288" rx="10" fill="white"/>
<path d="M186.08 248.419C191.726 248.419 195.649 251.703 195.649 256.427C195.649 259.73 193.427 262.513 190.124 263.314L190.124 263.514C192.807 264.395 194.568 266.817 194.568 269.6C194.568 273.804 190.965 276.907 186 276.907C181.035 276.907 177.412 273.804 177.412 269.6C177.412 266.857 179.233 264.395 181.876 263.514L181.876 263.314C178.613 262.533 176.371 259.73 176.371 256.467C176.371 251.763 180.415 248.419 186.08 248.419ZM186 264.695C182.957 264.695 180.815 266.637 180.815 269.36C180.815 272.062 182.937 273.944 186 273.944C189.043 273.944 191.185 272.042 191.185 269.36C191.185 266.657 189.023 264.695 186 264.695ZM186 251.342C182.376 251.342 179.774 253.524 179.774 256.567C179.774 259.61 182.376 261.833 186 261.833C189.624 261.833 192.226 259.63 192.226 256.567C192.226 253.524 189.624 251.342 186 251.342Z" fill="black"/>
<path d="M187.968 220C188.185 220 188.361 220.174 188.361 220.389C188.361 221.109 187.068 223.799 186.81 225.904C186.782 226.131 187.114 226.215 187.236 226.021C187.902 224.964 188.81 223.485 191.022 223.537L191.065 223.535C191.093 223.534 191.122 223.533 191.151 223.533C193.553 223.533 195.5 225.646 195.5 228.252C195.5 230.858 193.553 232.97 191.151 232.97C190.682 232.97 190.23 232.889 189.807 232.74C189.708 232.705 189.608 232.819 189.657 232.91C190.032 233.607 190.247 234.418 190.247 235.283C190.247 237.852 188.375 240 186 240C183.625 240 181.753 237.852 181.753 235.283C181.753 234.418 181.968 233.607 182.343 232.91C182.392 232.819 182.292 232.705 182.193 232.74C181.77 232.889 181.318 232.97 180.849 232.97C178.447 232.97 176.5 230.858 176.5 228.252C176.5 225.646 178.447 223.533 180.849 223.533C180.878 223.533 180.907 223.534 180.935 223.535L180.978 223.537C183.19 223.485 184.098 224.964 184.764 226.021C184.886 226.215 185.218 226.131 185.19 225.904C184.932 223.799 183.639 221.109 183.639 220.389C183.639 220.174 183.815 220 184.032 220L187.968 220Z" fill="#211C1D"/>
<path d="M191.934 196L191.934 210.092L190.596 210.092L190.596 196L191.934 196ZM184.529 195.707C187.625 195.707 189.48 198.539 189.48 203.031L189.48 203.061C189.48 207.562 187.625 210.385 184.529 210.385C181.434 210.385 179.559 207.562 179.559 203.061L179.559 203.031C179.559 198.529 181.434 195.707 184.529 195.707ZM184.529 196.879C182.254 196.879 180.896 199.252 180.896 203.031L180.896 203.061C180.896 206.85 182.254 209.203 184.529 209.203C186.795 209.203 188.143 206.84 188.143 203.061L188.143 203.031C188.143 199.252 186.795 196.879 184.529 196.879Z" fill="black"/>
<g clip-path="url(#clip1_5_1853)">
<path d="M140.84 72C140.325 72 139.908 71.5825 139.908 71.0675C139.908 69.3389 142.97 62.8831 143.582 57.8301C143.648 57.2867 142.862 57.0849 142.573 57.5498C140.996 60.0863 138.846 63.6359 133.607 63.512L133.505 63.5152C133.437 63.5176 133.369 63.5199 133.301 63.5199C127.612 63.5199 123 58.4499 123 52.1959C123 45.9419 127.612 40.8719 133.301 40.8719C134.411 40.8719 135.481 41.066 136.483 41.4239C136.717 41.5074 136.955 41.2346 136.839 41.0153C135.951 39.3424 135.442 37.3975 135.442 35.3209C135.442 29.156 139.875 24 145.5 24C151.125 24 155.558 29.156 155.558 35.3209C155.558 37.3975 155.049 39.3424 154.161 41.0153C154.045 41.2346 154.283 41.5074 154.517 41.4239C155.519 41.066 156.589 40.8719 157.699 40.8719C163.388 40.8719 168 45.9419 168 52.1959C168 58.4499 163.388 63.5199 157.699 63.5199C157.631 63.5199 157.563 63.5176 157.495 63.5152L157.393 63.512C152.154 63.6359 150.004 60.0863 148.427 57.5498C148.138 57.0849 147.352 57.2867 147.418 57.8301C148.03 62.883 151.092 69.339 151.092 71.0675C151.092 71.5825 150.675 72 150.16 72H140.84Z" fill="#211C1D"/>
<path d="M140.84 168C140.325 168 139.908 167.582 139.908 167.067C139.908 165.339 142.97 158.883 143.582 153.83C143.648 153.287 142.862 153.085 142.573 153.55C140.996 156.086 138.846 159.636 133.607 159.512L133.505 159.515C133.437 159.518 133.369 159.52 133.301 159.52C127.612 159.52 123 154.45 123 148.196C123 141.942 127.612 136.872 133.301 136.872C134.411 136.872 135.481 137.066 136.483 137.424C136.717 137.507 136.955 137.235 136.839 137.015C135.951 135.342 135.442 133.397 135.442 131.321C135.442 125.156 139.875 120 145.5 120C151.125 120 155.558 125.156 155.558 131.321C155.558 133.397 155.049 135.342 154.161 137.015C154.045 137.235 154.283 137.507 154.517 137.424C155.519 137.066 156.589 136.872 157.699 136.872C163.388 136.872 168 141.942 168 148.196C168 154.45 163.388 159.52 157.699 159.52C157.631 159.52 157.563 159.518 157.495 159.515L157.393 159.512C152.154 159.636 150.004 156.086 148.427 153.55C148.138 153.085 147.352 153.287 147.418 153.83C148.03 158.883 151.092 165.339 151.092 167.067C151.092 167.582 150.675 168 150.16 168H140.84Z" fill="#211C1D"/>
<path d="M140.84 264C140.325 264 139.908 263.582 139.908 263.067C139.908 261.339 142.97 254.883 143.582 249.83C143.648 249.287 142.862 249.085 142.573 249.55C140.996 252.086 138.846 255.636 133.607 255.512L133.505 255.515C133.437 255.518 133.369 255.52 133.301 255.52C127.612 255.52 123 250.45 123 244.196C123 237.942 127.612 232.872 133.301 232.872C134.411 232.872 135.481 233.066 136.483 233.424C136.717 233.507 136.955 233.235 136.839 233.015C135.951 231.342 135.442 229.397 135.442 227.321C135.442 221.156 139.875 216 145.5 216C151.125 216 155.558 221.156 155.558 227.321C155.558 229.397 155.049 231.342 154.161 233.015C154.045 233.235 154.283 233.507 154.517 233.424C155.519 233.066 156.589 232.872 157.699 232.872C163.388 232.872 168 237.942 168 244.196C168 250.45 163.388 255.52 157.699 255.52C157.631 255.52 157.563 255.518 157.495 255.515L157.393 255.512C152.154 255.636 150.004 252.086 148.427 249.55C148.138 249.085 147.352 249.287 147.418 249.83C148.03 254.883 151.092 261.339 151.092 263.067C151.092 263.582 150.675 264 150.16 264H140.84Z" fill="#211C1D"/>
</g>
<g clip-path="url(#clip2_5_1853)">
<path d="M97.34 119.5C96.825 119.5 96.4075 119.082 96.4075 118.567C96.4075 116.839 99.4696 110.383 100.082 105.33C100.148 104.787 99.3615 104.585 99.0725 105.05C97.4958 107.586 95.3456 111.136 90.1068 111.012L90.0051 111.015C89.9372 111.018 89.8693 111.02 89.8008 111.02C84.1117 111.02 79.5 105.95 79.5 99.6959C79.5 93.4419 84.1117 88.3719 89.8008 88.3719C90.9114 88.3719 91.9808 88.566 92.983 88.9239C93.2167 89.0074 93.4551 88.7346 93.3388 88.5153C92.451 86.8424 91.9416 84.8975 91.9416 82.8209C91.9416 76.656 96.375 71.5 102 71.5C107.625 71.5 112.058 76.656 112.058 82.8209C112.058 84.8975 111.549 86.8424 110.661 88.5153C110.545 88.7346 110.783 89.0074 111.017 88.9239C112.019 88.566 113.089 88.3719 114.199 88.3719C119.888 88.3719 124.5 93.4419 124.5 99.6959C124.5 105.95 119.888 111.02 114.199 111.02C114.131 111.02 114.063 111.018 113.995 111.015L113.893 111.012C108.654 111.136 106.504 107.586 104.927 105.05C104.638 104.585 103.852 104.787 103.918 105.33C104.53 110.383 107.592 116.839 107.592 118.567C107.592 119.082 107.175 119.5 106.66 119.5H97.34Z" fill="#211C1D"/>
<path d="M97.34 216.5C96.825 216.5 96.4075 216.082 96.4075 215.567C96.4075 213.839 99.4696 207.383 100.082 202.33C100.148 201.787 99.3615 201.585 99.0725 202.05C97.4958 204.586 95.3456 208.136 90.1068 208.012L90.0051 208.015C89.9372 208.018 89.8693 208.02 89.8008 208.02C84.1117 208.02 79.5 202.95 79.5 196.696C79.5 190.442 84.1117 185.372 89.8008 185.372C90.9114 185.372 91.9808 185.566 92.983 185.924C93.2167 186.007 93.4551 185.735 93.3388 185.515C92.451 183.842 91.9416 181.897 91.9416 179.821C91.9416 173.656 96.375 168.5 102 168.5C107.625 168.5 112.058 173.656 112.058 179.821C112.058 181.897 111.549 183.842 110.661 185.515C110.545 185.735 110.783 186.007 111.017 185.924C112.019 185.566 113.089 185.372 114.199 185.372C119.888 185.372 124.5 190.442 124.5 196.696C124.5 202.95 119.888 208.02 114.199 208.02C114.131 208.02 114.063 208.018 113.995 208.015L113.893 208.012C108.654 208.136 106.504 204.586 104.927 202.05C104.638 201.585 103.852 201.787 103.918 202.33C104.53 207.383 107.592 213.839 107.592 215.567C107.592 216.082 107.175 216.5 106.66 216.5H97.34Z" fill="#211C1D"/>
</g>
<g clip-path="url(#clip3_5_1853)">
<path d="M52.84 72C52.325 72 51.9075 71.5825 51.9075 71.0675C51.9075 69.3389 54.9696 62.8831 55.5817 57.8301C55.6476 57.2867 54.8615 57.0849 54.5725 57.5498C52.9958 60.0863 50.8456 63.6359 45.6068 63.512L45.5051 63.5152C45.4372 63.5176 45.3693 63.5199 45.3008 63.5199C39.6117 63.5199 35 58.4499 35 52.1959C35 45.9419 39.6117 40.8719 45.3008 40.8719C46.4114 40.8719 47.4808 41.066 48.483 41.4239C48.7167 41.5074 48.9551 41.2346 48.8388 41.0153C47.951 39.3424 47.4416 37.3975 47.4416 35.3209C47.4416 29.156 51.875 24 57.5 24C63.125 24 67.5584 29.156 67.5584 35.3209C67.5584 37.3975 67.049 39.3424 66.1612 41.0153C66.0449 41.2346 66.2833 41.5074 66.517 41.4239C67.5192 41.066 68.5886 40.8719 69.6992 40.8719C75.3883 40.8719 80 45.9419 80 52.1959C80 58.4499 75.3883 63.5199 69.6992 63.5199C69.6307 63.5199 69.5628 63.5176 69.4949 63.5152L69.3932 63.512C64.1544 63.6359 62.0042 60.0863 60.4275 57.5498C60.1385 57.0849 59.3524 57.2867 59.4183 57.8301C60.0304 62.883 63.0925 69.339 63.0925 71.0675C63.0925 71.5825 62.675 72 62.16 72H52.84Z" fill="#211C1D"/>
<path d="M52.84 168C52.325 168 51.9075 167.582 51.9075 167.067C51.9075 165.339 54.9696 158.883 55.5817 153.83C55.6476 153.287 54.8615 153.085 54.5725 153.55C52.9958 156.086 50.8456 159.636 45.6068 159.512L45.5051 159.515C45.4372 159.518 45.3693 159.52 45.3008 159.52C39.6117 159.52 35 154.45 35 148.196C35 141.942 39.6117 136.872 45.3008 136.872C46.4114 136.872 47.4808 137.066 48.483 137.424C48.7167 137.507 48.9551 137.235 48.8388 137.015C47.951 135.342 47.4416 133.397 47.4416 131.321C47.4416 125.156 51.875 120 57.5 120C63.125 120 67.5584 125.156 67.5584 131.321C67.5584 133.397 67.049 135.342 66.1612 137.015C66.0449 137.235 66.2833 137.507 66.517 137.424C67.5192 137.066 68.5886 136.872 69.6992 136.872C75.3883 136.872 80 141.942 80 148.196C80 154.45 75.3883 159.52 69.6992 159.52C69.6307 159.52 69.5628 159.518 69.4949 159.515L69.3932 159.512C64.1544 159.636 62.0042 156.086 60.4275 153.55C60.1385 153.085 59.3524 153.287 59.4183 153.83C60.0304 158.883 63.0925 165.339 63.0925 167.067C63.0925 167.582 62.675 168 62.16 168H52.84Z" fill="#211C1D"/>
<path d="M52.84 264C52.325 264 51.9075 263.582 51.9075 263.067C51.9075 261.339 54.9696 254.883 55.5817 249.83C55.6476 249.287 54.8615 249.085 54.5725 249.55C52.9958 252.086 50.8456 255.636 45.6068 255.512L45.5051 255.515C45.4372 255.518 45.3693 255.52 45.3008 255.52C39.6117 255.52 35 250.45 35 244.196C35 237.942 39.6117 232.872 45.3008 232.872C46.4114 232.872 47.4808 233.066 48.483 233.424C48.7167 233.507 48.9551 233.235 48.8388 233.015C47.951 231.342 47.4416 229.397 47.4416 227.321C47.4416 221.156 51.875 216 57.5 216C63.125 216 67.5584 221.156 67.5584 227.321C67.5584 229.397 67.049 231.342 66.1612 233.015C66.0449 233.235 66.2833 233.507 66.517 233.424C67.5192 233.066 68.5886 232.872 69.6992 232.872C75.3883 232.872 80 237.942 80 244.196C80 250.45 75.3883 255.52 69.6992 255.52C69.6307 255.52 69.5628 255.518 69.4949 255.515L69.3932 255.512C64.1544 255.636 62.0042 252.086 60.4275 249.55C60.1385 249.085 59.3524 249.287 59.4183 249.83C60.0304 254.883 63.0925 261.339 63.0925 263.067C63.0925 263.582 62.675 264 62.16 264H52.84Z" fill="#211C1D"/>
</g>
<path d="M16.9199 39.5806C11.2744 39.5806 7.35059 36.2974 7.35059 31.5728C7.35059 28.2695 9.57275 25.4868 12.876 24.686V24.4858C10.1934 23.605 8.43164 21.1826 8.43164 18.3999C8.43164 14.1958 12.0352 11.0928 17 11.0928C21.9648 11.0928 25.5884 14.1958 25.5884 18.3999C25.5884 21.1426 23.7666 23.605 21.124 24.4858V24.686C24.3872 25.4668 26.6294 28.2695 26.6294 31.5327C26.6294 36.2373 22.5854 39.5806 16.9199 39.5806ZM17 23.3047C20.043 23.3047 22.1851 21.3628 22.1851 18.6401C22.1851 15.9375 20.063 14.0557 17 14.0557C13.957 14.0557 11.8149 15.9575 11.8149 18.6401C11.8149 21.3428 13.9771 23.3047 17 23.3047ZM17 36.6577C20.6235 36.6577 23.2261 34.4756 23.2261 31.4326C23.2261 28.3896 20.6235 26.1675 17 26.1675C13.3765 26.1675 10.7739 28.3696 10.7739 31.4326C10.7739 34.4756 13.3765 36.6577 17 36.6577Z" fill="black"/>
<path d="M15.0324 68C14.815 68 14.6387 67.826 14.6387 67.6115C14.6387 66.8912 15.9316 64.2013 16.1901 62.0959C16.2179 61.8695 15.886 61.7854 15.7639 61.9791C15.0982 63.0359 14.1904 64.515 11.9784 64.4633L11.9355 64.4647C11.9068 64.4656 11.8781 64.4666 11.8492 64.4666C9.44715 64.4666 7.5 62.3541 7.5 59.7483C7.5 57.1425 9.44715 55.03 11.8492 55.03C12.3182 55.03 12.7697 55.1108 13.1928 55.26C13.2915 55.2948 13.3921 55.1811 13.3431 55.0897C12.9682 54.3927 12.7531 53.5823 12.7531 52.717C12.7531 50.1483 14.625 48 17 48C19.375 48 21.2469 50.1483 21.2469 52.717C21.2469 53.5823 21.0318 54.3927 20.6569 55.0897C20.6079 55.1811 20.7085 55.2948 20.8072 55.26C21.2303 55.1108 21.6818 55.03 22.1508 55.03C24.5529 55.03 26.5 57.1425 26.5 59.7483C26.5 62.3541 24.5529 64.4666 22.1508 64.4666C22.1219 64.4666 22.0932 64.4656 22.0645 64.4647L22.0216 64.4633C19.8096 64.515 18.9018 63.0359 18.2361 61.9791C18.114 61.7854 17.7821 61.8695 17.8099 62.0959C18.0684 64.2013 19.3613 66.8913 19.3613 67.6114C19.3613 67.826 19.185 68 18.9676 68H15.0324Z" fill="#211C1D"/>
<path d="M11.0664 92V77.9082H12.4043V92H11.0664ZM18.4707 92.293C15.375 92.293 13.5195 89.4609 13.5195 84.9688V84.9395C13.5195 80.4375 15.375 77.6152 18.4707 77.6152C21.5664 77.6152 23.4414 80.4375 23.4414 84.9395V84.9688C23.4414 89.4707 21.5664 92.293 18.4707 92.293ZM18.4707 91.1211C20.7461 91.1211 22.1035 88.748 22.1035 84.9688V84.9395C22.1035 81.1504 20.7461 78.7969 18.4707 78.7969C16.2051 78.7969 14.8574 81.1602 14.8574 84.9395V84.9688C14.8574 88.748 16.2051 91.1211 18.4707 91.1211Z" fill="black"/>
</g>
<defs>
<clipPath id="clip0_5_1853">
<rect width="203" height="288" rx="10" fill="white"/>
</clipPath>
<clipPath id="clip1_5_1853">
<rect width="44" height="244" fill="white" transform="translate(123.5 22)"/>
</clipPath>
<clipPath id="clip2_5_1853">
<rect width="44" height="179" fill="white" transform="translate(80 54.5)"/>
</clipPath>
<clipPath id="clip3_5_1853">
<rect width="44" height="244" fill="white" transform="translate(35.5 22)"/>
</clipPath>
</defs>
</svg>
