<svg width="203" height="288" viewBox="0 0 203 288" fill="none" xmlns="http://www.w3.org/2000/svg">
<g clip-path="url(#clip0_3_1720)">
<rect width="203" height="288" rx="10" fill="white"/>
<path d="M194.889 254.445C194.889 255.446 194.308 256.127 193.427 256.127C192.747 256.127 192.306 255.767 191.786 254.746C190.685 252.604 188.843 251.442 186.44 251.442C182.797 251.442 180.254 254.005 180.254 257.688C180.254 261.212 182.717 263.694 186.18 263.694C187.742 263.694 189.123 263.174 190.284 262.133C191.746 260.771 192.146 260.531 192.787 260.531C193.928 260.531 194.508 261.432 194.408 262.974L193.527 274.185C193.407 275.666 192.546 276.367 190.825 276.367L179.594 276.367C178.433 276.367 177.752 275.786 177.752 274.805C177.752 273.844 178.413 273.304 179.594 273.304L190.384 273.304L191.145 264.395L190.945 264.395C190.044 265.736 187.702 266.697 185.399 266.697C180.314 266.697 176.731 263.054 176.731 257.869C176.731 252.343 180.715 248.419 186.3 248.419C191.585 248.419 194.889 251.643 194.889 254.445Z" fill="#BC1E24"/>
<path d="M185.82 239.896C185.896 240.035 186.104 240.035 186.18 239.896C188.474 235.728 190.128 233.522 193.445 230.135C193.518 230.06 193.518 229.94 193.445 229.865C190.128 226.478 188.474 224.272 186.18 220.104C186.104 219.965 185.896 219.965 185.82 220.104C183.526 224.272 181.872 226.478 178.555 229.865C178.482 229.94 178.482 230.06 178.555 230.135C181.872 233.522 183.526 235.728 185.82 239.896Z" fill="#BC1E24"/>
<path d="M186 195.707C188.539 195.707 190.424 197.348 190.639 199.486L190.648 199.584L189.369 199.584L189.359 199.516C189.164 198.061 187.777 196.898 185.98 196.898C183.92 196.898 182.445 198.383 182.445 200.453L182.445 200.473C182.445 202.523 183.92 204.027 185.922 204.027C187.025 204.027 187.992 203.627 188.676 202.875C188.881 202.67 189.066 202.426 189.223 202.152L190.404 202.152L189.623 210.092L181.967 210.092L181.967 208.891L188.559 208.891L189.125 203.568L188.998 203.568C188.324 204.594 187.094 205.189 185.717 205.189C183.08 205.189 181.137 203.207 181.137 200.502L181.137 200.482C181.137 197.689 183.178 195.707 186 195.707Z" fill="#BC1E24"/>
<g clip-path="url(#clip1_3_1720)">
<path d="M145.95 23.2599C145.759 22.9134 145.241 22.9134 145.05 23.2599C139.316 33.6809 135.181 39.1955 126.888 47.6621C126.704 47.8503 126.704 48.1498 126.888 48.338C135.181 56.8045 139.316 62.3191 145.05 72.7401C145.241 73.0866 145.759 73.0866 145.95 72.7401C151.684 62.3191 155.819 56.8045 164.112 48.338C164.296 48.1498 164.296 47.8503 164.112 47.6621C155.819 39.1955 151.684 33.6809 145.95 23.2599Z" fill="#BC1E24"/>
<path d="M145.95 215.26C145.759 214.913 145.241 214.913 145.05 215.26C139.316 225.681 135.181 231.196 126.888 239.662C126.704 239.85 126.704 240.15 126.888 240.338C135.181 248.804 139.316 254.319 145.05 264.74C145.241 265.087 145.759 265.087 145.95 264.74C151.684 254.319 155.819 248.804 164.112 240.338C164.296 240.15 164.296 239.85 164.112 239.662C155.819 231.196 151.684 225.681 145.95 215.26Z" fill="#BC1E24"/>
</g>
<g clip-path="url(#clip2_3_1720)">
<path d="M102.45 119.26C102.259 118.913 101.741 118.913 101.55 119.26C95.8158 129.681 91.6805 135.196 83.3882 143.662C83.2039 143.85 83.2039 144.15 83.3882 144.338C91.6805 152.804 95.8158 158.319 101.55 168.74C101.741 169.087 102.259 169.087 102.45 168.74C108.184 158.319 112.319 152.804 120.612 144.338C120.796 144.15 120.796 143.85 120.612 143.662C112.319 135.196 108.184 129.681 102.45 119.26Z" fill="#BC1E24"/>
</g>
<g clip-path="url(#clip3_3_1720)">
<path d="M57.9501 23.2599C57.7594 22.9134 57.2406 22.9134 57.0499 23.2599C51.3158 33.6809 47.1805 39.1955 38.8882 47.6621C38.7039 47.8503 38.7039 48.1498 38.8882 48.338C47.1805 56.8045 51.3158 62.3191 57.0499 72.7401C57.2406 73.0866 57.7594 73.0866 57.9501 72.7401C63.6842 62.3191 67.8195 56.8045 76.1118 48.338C76.2961 48.1498 76.2961 47.8503 76.1118 47.6621C67.8195 39.1955 63.6842 33.6809 57.9501 23.2599Z" fill="#BC1E24"/>
<path d="M57.9501 215.26C57.7594 214.913 57.2406 214.913 57.0499 215.26C51.3158 225.681 47.1805 231.196 38.8882 239.662C38.7039 239.85 38.7039 240.15 38.8882 240.338C47.1805 248.804 51.3158 254.319 57.0499 264.74C57.2406 265.087 57.7594 265.087 57.9501 264.74C63.6842 254.319 67.8195 248.804 76.1118 240.338C76.2961 240.15 76.2961 239.85 76.1118 239.662C67.8195 231.196 63.6842 225.681 57.9501 215.26Z" fill="#BC1E24"/>
</g>
<path d="M8.11133 33.5547C8.11133 32.5537 8.69189 31.873 9.57275 31.873C10.2534 31.873 10.6938 32.2334 11.2144 33.2544C12.3154 35.3965 14.1572 36.5576 16.5596 36.5576C20.2031 36.5576 22.7456 33.9951 22.7456 30.3115C22.7456 26.7881 20.2832 24.3057 16.8198 24.3057C15.2583 24.3057 13.877 24.8262 12.7158 25.8672C11.2544 27.2285 10.854 27.4688 10.2134 27.4688C9.07227 27.4688 8.4917 26.5679 8.5918 25.0264L9.47266 13.8154C9.59277 12.334 10.4536 11.6333 12.1753 11.6333H23.4062C24.5674 11.6333 25.248 12.2139 25.248 13.1948C25.248 14.1558 24.5874 14.6963 23.4062 14.6963H12.6157L11.855 23.605H12.0552C12.9561 22.2637 15.2983 21.3027 17.6006 21.3027C22.6855 21.3027 26.269 24.9463 26.269 30.1313C26.269 35.6567 22.2852 39.5806 16.6997 39.5806C11.4146 39.5806 8.11133 36.3574 8.11133 33.5547Z" fill="#BC1E24"/>
<path d="M17.1801 48.104C17.1038 47.9653 16.8962 47.9653 16.8199 48.104C14.5263 52.2724 12.8722 54.4782 9.55529 57.8648C9.48157 57.9401 9.48157 58.0599 9.55529 58.1352C12.8722 61.5218 14.5263 63.7276 16.8199 67.896C16.8962 68.0347 17.1038 68.0347 17.1801 67.896C19.4737 63.7276 21.1278 61.5218 24.4447 58.1352C24.5184 58.0599 24.5184 57.9401 24.4447 57.8648C21.1278 54.4782 19.4737 52.2724 17.1801 48.104Z" fill="#BC1E24"/>
<path d="M17 92.293C14.4609 92.293 12.5762 90.6523 12.3613 88.5137L12.3516 88.416H13.6309L13.6406 88.4844C13.8359 89.9395 15.2227 91.1016 17.0195 91.1016C19.0801 91.1016 20.5547 89.6172 20.5547 87.5469V87.5273C20.5547 85.4766 19.0801 83.9727 17.0781 83.9727C15.9746 83.9727 15.0078 84.373 14.3242 85.125C14.1191 85.3301 13.9336 85.5742 13.7773 85.8477H12.5957L13.377 77.9082H21.0332V79.1094H14.4414L13.875 84.4316H14.002C14.6758 83.4062 15.9062 82.8105 17.2832 82.8105C19.9199 82.8105 21.8633 84.793 21.8633 87.498V87.5176C21.8633 90.3105 19.8223 92.293 17 92.293Z" fill="#BC1E24"/>
</g>
<defs>
<clipPath id="clip0_3_1720">
<rect width="203" height="288" rx="10" fill="white"/>
</clipPath>
<clipPath id="clip1_3_1720">
<rect width="44" height="244" fill="white" transform="translate(123.5 22)"/>
</clipPath>
<clipPath id="clip2_3_1720">
<rect width="44" height="179" fill="white" transform="translate(80 54.5)"/>
</clipPath>
<clipPath id="clip3_3_1720">
<rect width="44" height="244" fill="white" transform="translate(35.5 22)"/>
</clipPath>
</defs>
</svg>
