<svg width="203" height="288" viewBox="0 0 203 288" fill="none" xmlns="http://www.w3.org/2000/svg">
<g clip-path="url(#clip0_3_6126)">
<rect width="203" height="288" rx="10" fill="white"/>
<path d="M182.537 250.622L182.537 254.686L193.067 254.686C194.628 254.686 195.669 255.506 195.669 256.828C195.669 257.568 195.429 258.269 194.729 259.55C191.866 264.615 190.064 267.498 185.52 274.305C184.338 276.046 183.417 276.647 182.036 276.647C180.214 276.647 179.193 275.606 179.193 273.744L179.193 257.749L177.111 257.749C175.99 257.749 175.33 257.188 175.33 256.207C175.33 255.246 175.97 254.686 177.111 254.686L179.193 254.686L179.193 250.622C179.193 249.46 179.794 248.8 180.875 248.8C181.936 248.8 182.537 249.46 182.537 250.622ZM192.306 257.749L182.537 257.749L182.537 273.244L182.717 273.244C186.12 268.219 189.684 262.493 192.306 257.949L192.306 257.749Z" fill="#BC1E24"/>
<path d="M190.265 238.999C187.548 238.958 186.493 236.602 186.146 235.491C186.111 235.378 185.888 235.378 185.853 235.491C185.506 236.602 184.452 238.958 181.735 238.999C178.177 239.054 175.501 235.071 177.941 231.071C180.117 227.506 185.918 221 186 221C186.083 221 191.883 227.506 194.059 231.071C196.499 235.071 193.823 239.054 190.265 238.999Z" fill="#BC1E24"/>
<path d="M186 195.707C188.539 195.707 190.424 197.348 190.639 199.486L190.648 199.584L189.369 199.584L189.359 199.516C189.164 198.061 187.777 196.898 185.98 196.898C183.92 196.898 182.445 198.383 182.445 200.453L182.445 200.473C182.445 202.523 183.92 204.027 185.922 204.027C187.025 204.027 187.992 203.627 188.676 202.875C188.881 202.67 189.066 202.426 189.223 202.152L190.404 202.152L189.623 210.092L181.967 210.092L181.967 208.891L188.559 208.891L189.125 203.568L188.998 203.568C188.324 204.594 187.094 205.189 185.717 205.189C183.08 205.189 181.137 203.207 181.137 200.502L181.137 200.482C181.137 197.689 183.178 195.707 186 195.707Z" fill="#BC1E24"/>
<g clip-path="url(#clip1_3_6126)">
<path d="M135.221 26.2514C141.769 26.3516 144.312 32.0461 145.148 34.731C145.232 35.0026 145.77 35.0025 145.855 34.7309C146.69 32.0459 149.231 26.3516 155.779 26.2514C164.353 26.1199 170.804 35.7455 164.922 45.4115C159.679 54.0269 145.698 69.75 145.5 69.75C145.299 69.7499 131.322 54.0278 126.079 45.4115C120.196 35.7454 126.647 26.1199 135.221 26.2514Z" fill="#BC1E24"/>
<path d="M135.221 218.251C141.769 218.352 144.312 224.046 145.148 226.731C145.232 227.003 145.77 227.003 145.855 226.731C146.69 224.046 149.231 218.352 155.779 218.251C164.353 218.12 170.804 227.745 164.922 237.411C159.679 246.027 145.698 261.75 145.5 261.75C145.299 261.75 131.322 246.028 126.079 237.411C120.196 227.745 126.647 218.12 135.221 218.251Z" fill="#BC1E24"/>
</g>
<g clip-path="url(#clip2_3_6126)">
<path d="M47.2206 26.2514C53.7688 26.3516 56.3116 32.0461 57.1475 34.731C57.2321 35.0026 57.7704 35.0025 57.8549 34.7309C58.6901 32.0459 61.2313 26.3516 67.7794 26.2514C76.3533 26.1199 82.8038 35.7455 76.9215 45.4115C71.6786 54.0269 57.6978 69.75 57.5 69.75C57.2989 69.7499 43.3218 54.0278 38.0785 45.4115C32.1963 35.7454 38.6467 26.1199 47.2206 26.2514Z" fill="#BC1E24"/>
<path d="M47.2206 218.251C53.7688 218.352 56.3116 224.046 57.1475 226.731C57.2321 227.003 57.7704 227.003 57.8549 226.731C58.6901 224.046 61.2313 218.352 67.7794 218.251C76.3533 218.12 82.8038 227.745 76.9215 237.411C71.6786 246.027 57.6978 261.75 57.5 261.75C57.2989 261.75 43.3218 246.028 38.0785 237.411C32.1963 227.745 38.6467 218.12 47.2206 218.251Z" fill="#BC1E24"/>
</g>
<path d="M20.4634 37.3784V33.3145H9.93311C8.37158 33.3145 7.33057 32.4937 7.33057 31.1724C7.33057 30.4316 7.5708 29.731 8.27148 28.4497C11.1343 23.3848 12.936 20.502 17.4805 13.6953C18.6616 11.9536 19.5825 11.353 20.9639 11.353C22.7856 11.353 23.8066 12.394 23.8066 14.2559V30.2515H25.8887C27.0098 30.2515 27.6704 30.812 27.6704 31.793C27.6704 32.7539 27.0298 33.3145 25.8887 33.3145H23.8066V37.3784C23.8066 38.5396 23.2061 39.2002 22.125 39.2002C21.064 39.2002 20.4634 38.5396 20.4634 37.3784ZM10.6938 30.2515H20.4634V14.7563H20.2832C16.8799 19.7812 13.3164 25.5068 10.6938 30.0513V30.2515Z" fill="#BC1E24"/>
<path d="M12.7347 49.0006C15.4518 49.042 16.5069 51.3984 16.8537 52.5094C16.8888 52.6218 17.1122 52.6217 17.1472 52.5093C17.4938 51.3983 18.5482 49.042 21.2653 49.0006C24.8229 48.9462 27.4995 52.9292 25.0587 56.9289C22.8832 60.4939 17.0821 67 17 67C16.9165 67 11.1169 60.4943 8.94127 56.9289C6.50053 52.9291 9.17705 48.9462 12.7347 49.0006Z" fill="#BC1E24"/>
<path d="M11.0664 92V77.9082H12.4043V92H11.0664ZM18.4707 92.293C15.375 92.293 13.5195 89.4609 13.5195 84.9688V84.9395C13.5195 80.4375 15.375 77.6152 18.4707 77.6152C21.5664 77.6152 23.4414 80.4375 23.4414 84.9395V84.9688C23.4414 89.4707 21.5664 92.293 18.4707 92.293ZM18.4707 91.1211C20.7461 91.1211 22.1035 88.748 22.1035 84.9688V84.9395C22.1035 81.1504 20.7461 78.7969 18.4707 78.7969C16.2051 78.7969 14.8574 81.1602 14.8574 84.9395V84.9688C14.8574 88.748 16.2051 91.1211 18.4707 91.1211Z" fill="#BC1E24"/>
</g>
<defs>
<clipPath id="clip0_3_6126">
<rect width="203" height="288" rx="10" fill="white"/>
</clipPath>
<clipPath id="clip1_3_6126">
<rect width="44" height="244" fill="white" transform="translate(123.5 22)"/>
</clipPath>
<clipPath id="clip2_3_6126">
<rect width="44" height="244" fill="white" transform="translate(35.5 22)"/>
</clipPath>
</defs>
</svg>
