<svg width="203" height="288" viewBox="0 0 203 288" fill="none" xmlns="http://www.w3.org/2000/svg">
<g clip-path="url(#clip0_3_1751)">
<rect width="203" height="288" rx="10" fill="white"/>
<path d="M182.537 250.622L182.537 254.686L193.067 254.686C194.628 254.686 195.669 255.506 195.669 256.828C195.669 257.568 195.429 258.269 194.729 259.55C191.866 264.615 190.064 267.498 185.52 274.305C184.338 276.046 183.417 276.647 182.036 276.647C180.214 276.647 179.193 275.606 179.193 273.744L179.193 257.749L177.111 257.749C175.99 257.749 175.33 257.188 175.33 256.207C175.33 255.246 175.97 254.686 177.111 254.686L179.193 254.686L179.193 250.622C179.193 249.46 179.794 248.8 180.875 248.8C181.936 248.8 182.537 249.46 182.537 250.622ZM192.306 257.749L182.537 257.749L182.537 273.244L182.717 273.244C186.12 268.219 189.684 262.493 192.306 257.949L192.306 257.749Z" fill="#BC1E24"/>
<path d="M185.82 239.896C185.896 240.035 186.104 240.035 186.18 239.896C188.474 235.728 190.128 233.522 193.445 230.135C193.518 230.06 193.518 229.94 193.445 229.865C190.128 226.478 188.474 224.272 186.18 220.104C186.104 219.965 185.896 219.965 185.82 220.104C183.526 224.272 181.872 226.478 178.555 229.865C178.482 229.94 178.482 230.06 178.555 230.135C181.872 233.522 183.526 235.728 185.82 239.896Z" fill="#BC1E24"/>
<path d="M186 195.707C188.539 195.707 190.424 197.348 190.639 199.486L190.648 199.584L189.369 199.584L189.359 199.516C189.164 198.061 187.777 196.898 185.98 196.898C183.92 196.898 182.445 198.383 182.445 200.453L182.445 200.473C182.445 202.523 183.92 204.027 185.922 204.027C187.025 204.027 187.992 203.627 188.676 202.875C188.881 202.67 189.066 202.426 189.223 202.152L190.404 202.152L189.623 210.092L181.967 210.092L181.967 208.891L188.559 208.891L189.125 203.568L188.998 203.568C188.324 204.594 187.094 205.189 185.717 205.189C183.08 205.189 181.137 203.207 181.137 200.502L181.137 200.482C181.137 197.689 183.178 195.707 186 195.707Z" fill="#BC1E24"/>
<g clip-path="url(#clip1_3_1751)">
<path d="M145.95 23.2599C145.759 22.9134 145.241 22.9134 145.05 23.2599C139.316 33.6809 135.181 39.1955 126.888 47.6621C126.704 47.8503 126.704 48.1498 126.888 48.338C135.181 56.8045 139.316 62.3191 145.05 72.7401C145.241 73.0866 145.759 73.0866 145.95 72.7401C151.684 62.3191 155.819 56.8045 164.112 48.338C164.296 48.1498 164.296 47.8503 164.112 47.6621C155.819 39.1955 151.684 33.6809 145.95 23.2599Z" fill="#BC1E24"/>
<path d="M145.95 215.26C145.759 214.913 145.241 214.913 145.05 215.26C139.316 225.681 135.181 231.196 126.888 239.662C126.704 239.85 126.704 240.15 126.888 240.338C135.181 248.804 139.316 254.319 145.05 264.74C145.241 265.087 145.759 265.087 145.95 264.74C151.684 254.319 155.819 248.804 164.112 240.338C164.296 240.15 164.296 239.85 164.112 239.662C155.819 231.196 151.684 225.681 145.95 215.26Z" fill="#BC1E24"/>
</g>
<g clip-path="url(#clip2_3_1751)">
<path d="M57.9501 23.2599C57.7594 22.9134 57.2406 22.9134 57.0499 23.2599C51.3158 33.6809 47.1805 39.1955 38.8882 47.6621C38.7039 47.8503 38.7039 48.1498 38.8882 48.338C47.1805 56.8045 51.3158 62.3191 57.0499 72.7401C57.2406 73.0866 57.7594 73.0866 57.9501 72.7401C63.6842 62.3191 67.8195 56.8045 76.1118 48.338C76.2961 48.1498 76.2961 47.8503 76.1118 47.6621C67.8195 39.1955 63.6842 33.6809 57.9501 23.2599Z" fill="#BC1E24"/>
<path d="M57.9501 215.26C57.7594 214.913 57.2406 214.913 57.0499 215.26C51.3158 225.681 47.1805 231.196 38.8882 239.662C38.7039 239.85 38.7039 240.15 38.8882 240.338C47.1805 248.804 51.3158 254.319 57.0499 264.74C57.2406 265.087 57.7594 265.087 57.9501 264.74C63.6842 254.319 67.8195 248.804 76.1118 240.338C76.2961 240.15 76.2961 239.85 76.1118 239.662C67.8195 231.196 63.6842 225.681 57.9501 215.26Z" fill="#BC1E24"/>
</g>
<path d="M20.4634 37.3784V33.3145H9.93311C8.37158 33.3145 7.33057 32.4937 7.33057 31.1724C7.33057 30.4316 7.5708 29.731 8.27148 28.4497C11.1343 23.3848 12.936 20.502 17.4805 13.6953C18.6616 11.9536 19.5825 11.353 20.9639 11.353C22.7856 11.353 23.8066 12.394 23.8066 14.2559V30.2515H25.8887C27.0098 30.2515 27.6704 30.812 27.6704 31.793C27.6704 32.7539 27.0298 33.3145 25.8887 33.3145H23.8066V37.3784C23.8066 38.5396 23.2061 39.2002 22.125 39.2002C21.064 39.2002 20.4634 38.5396 20.4634 37.3784ZM10.6938 30.2515H20.4634V14.7563H20.2832C16.8799 19.7812 13.3164 25.5068 10.6938 30.0513V30.2515Z" fill="#BC1E24"/>
<path d="M17.1801 48.104C17.1038 47.9653 16.8962 47.9653 16.8199 48.104C14.5263 52.2724 12.8722 54.4782 9.55529 57.8648C9.48157 57.9401 9.48157 58.0599 9.55529 58.1352C12.8722 61.5218 14.5263 63.7276 16.8199 67.896C16.8962 68.0347 17.1038 68.0347 17.1801 67.896C19.4737 63.7276 21.1278 61.5218 24.4447 58.1352C24.5184 58.0599 24.5184 57.9401 24.4447 57.8648C21.1278 54.4782 19.4737 52.2724 17.1801 48.104Z" fill="#BC1E24"/>
<path d="M11.0664 92V77.9082H12.4043V92H11.0664ZM18.4707 92.293C15.375 92.293 13.5195 89.4609 13.5195 84.9688V84.9395C13.5195 80.4375 15.375 77.6152 18.4707 77.6152C21.5664 77.6152 23.4414 80.4375 23.4414 84.9395V84.9688C23.4414 89.4707 21.5664 92.293 18.4707 92.293ZM18.4707 91.1211C20.7461 91.1211 22.1035 88.748 22.1035 84.9688V84.9395C22.1035 81.1504 20.7461 78.7969 18.4707 78.7969C16.2051 78.7969 14.8574 81.1602 14.8574 84.9395V84.9688C14.8574 88.748 16.2051 91.1211 18.4707 91.1211Z" fill="#BC1E24"/>
</g>
<defs>
<clipPath id="clip0_3_1751">
<rect width="203" height="288" rx="10" fill="white"/>
</clipPath>
<clipPath id="clip1_3_1751">
<rect width="44" height="244" fill="white" transform="translate(123.5 22)"/>
</clipPath>
<clipPath id="clip2_3_1751">
<rect width="44" height="244" fill="white" transform="translate(35.5 22)"/>
</clipPath>
</defs>
</svg>
