<svg width="203" height="288" viewBox="0 0 203 288" fill="none" xmlns="http://www.w3.org/2000/svg">
<g clip-path="url(#clip0_5_502)">
<rect width="203" height="288" rx="10" fill="white"/>
<path d="M194.548 253.064C194.548 253.965 193.928 254.545 193.067 254.545C192.526 254.545 192.106 254.305 191.365 253.584C189.904 252.143 188.422 251.482 186.581 251.482C182.056 251.482 179.754 255.626 179.754 262.833L179.934 262.833C180.935 260.131 183.498 258.509 186.761 258.509C191.886 258.509 195.449 262.273 195.449 267.678C195.449 273.244 191.666 276.947 185.98 276.947C179.714 276.947 176.371 272.062 176.371 262.994C176.371 253.444 179.834 248.479 186.521 248.479C188.723 248.479 190.805 249.04 192.366 250.061C193.708 250.942 194.548 252.063 194.548 253.064ZM180.354 267.598C180.354 271.342 182.717 273.904 186.18 273.904C189.624 273.904 191.986 271.342 191.986 267.618C191.986 263.975 189.664 261.532 186.18 261.532C182.677 261.532 180.354 263.955 180.354 267.598Z" fill="black"/>
<path d="M187.762 220C187.973 220 188.143 220.164 188.143 220.365C188.143 220.795 187.066 223.617 186.806 225.517C186.774 225.745 187.064 225.836 187.195 225.65C187.823 224.76 188.456 223.808 190.178 223.785C193.385 223.743 195.233 226.79 194.224 229.563C193.729 230.922 186.925 240 186 240C185.075 240 178.271 230.922 177.776 229.563C176.767 226.79 178.615 223.743 181.823 223.785C183.544 223.808 184.177 224.76 184.805 225.65C184.936 225.836 185.226 225.745 185.194 225.517C184.934 223.617 183.857 220.795 183.857 220.365C183.857 220.164 184.027 220 184.238 220L187.762 220Z" fill="#211C1D"/>
<path d="M191.934 196L191.934 210.092L190.596 210.092L190.596 196L191.934 196ZM184.529 195.707C187.625 195.707 189.48 198.539 189.48 203.031L189.48 203.061C189.48 207.562 187.625 210.385 184.529 210.385C181.434 210.385 179.559 207.562 179.559 203.061L179.559 203.031C179.559 198.529 181.434 195.707 184.529 195.707ZM184.529 196.879C182.254 196.879 180.896 199.252 180.896 203.031L180.896 203.061C180.896 206.85 182.254 209.203 184.529 209.203C186.795 209.203 188.143 206.84 188.143 203.061L188.143 203.031C188.143 199.252 186.795 196.879 184.529 196.879Z" fill="black"/>
<g clip-path="url(#clip1_5_502)">
<path d="M141.353 72C140.859 72 140.458 71.6076 140.458 71.1235C140.458 70.0926 142.992 63.318 143.604 58.7596C143.678 58.2115 142.996 57.993 142.688 58.4389C141.211 60.5759 139.721 62.8613 135.671 62.9157C128.123 63.0172 123.776 55.7041 126.15 49.0496C127.314 45.7867 143.325 24 145.5 24C147.675 24 163.686 45.7867 164.85 49.0496C167.224 55.7041 162.877 63.0172 155.329 62.9157C151.279 62.8613 149.789 60.5759 148.312 58.4389C148.004 57.993 147.322 58.2115 147.396 58.7596C148.008 63.318 150.542 70.0926 150.542 71.1235C150.542 71.6076 150.141 72 149.647 72H141.353Z" fill="#211C1D"/>
<path d="M141.353 136C140.859 136 140.458 135.608 140.458 135.123C140.458 134.093 142.992 127.318 143.604 122.76C143.678 122.211 142.996 121.993 142.688 122.439C141.211 124.576 139.721 126.861 135.671 126.916C128.123 127.017 123.776 119.704 126.15 113.05C127.314 109.787 143.325 88 145.5 88C147.675 88 163.686 109.787 164.85 113.05C167.224 119.704 162.877 127.017 155.329 126.916C151.279 126.861 149.789 124.576 148.312 122.439C148.004 121.993 147.322 122.211 147.396 122.76C148.008 127.318 150.542 134.093 150.542 135.123C150.542 135.608 150.141 136 149.647 136H141.353Z" fill="#211C1D"/>
<path d="M141.353 200C140.859 200 140.458 199.608 140.458 199.123C140.458 198.093 142.992 191.318 143.604 186.76C143.678 186.211 142.996 185.993 142.688 186.439C141.211 188.576 139.721 190.861 135.671 190.916C128.123 191.017 123.776 183.704 126.15 177.05C127.314 173.787 143.325 152 145.5 152C147.675 152 163.686 173.787 164.85 177.05C167.224 183.704 162.877 191.017 155.329 190.916C151.279 190.861 149.789 188.576 148.312 186.439C148.004 185.993 147.322 186.211 147.396 186.76C148.008 191.318 150.542 198.093 150.542 199.123C150.542 199.608 150.141 200 149.647 200H141.353Z" fill="#211C1D"/>
<path d="M141.353 264C140.859 264 140.458 263.608 140.458 263.123C140.458 262.093 142.992 255.318 143.604 250.76C143.678 250.211 142.996 249.993 142.688 250.439C141.211 252.576 139.721 254.861 135.671 254.916C128.123 255.017 123.776 247.704 126.15 241.05C127.314 237.787 143.325 216 145.5 216C147.675 216 163.686 237.787 164.85 241.05C167.224 247.704 162.877 255.017 155.329 254.916C151.279 254.861 149.789 252.576 148.312 250.439C148.004 249.993 147.322 250.211 147.396 250.76C148.008 255.318 150.542 262.093 150.542 263.123C150.542 263.608 150.141 264 149.647 264H141.353Z" fill="#211C1D"/>
</g>
<g clip-path="url(#clip2_5_502)">
<path d="M97.853 168C97.3588 168 96.9582 167.608 96.9582 167.123C96.9582 166.093 99.4923 159.318 100.104 154.76C100.178 154.211 99.4958 153.993 99.1876 154.439C97.7105 156.576 96.2215 158.861 92.1706 158.916C84.6234 159.017 80.2757 151.704 82.6497 145.05C83.8137 141.787 99.8245 120 102 120C104.175 120 120.186 141.787 121.35 145.05C123.724 151.704 119.377 159.017 111.829 158.916C107.779 158.861 106.289 156.576 104.812 154.439C104.504 153.993 103.822 154.211 103.896 154.76C104.508 159.318 107.042 166.093 107.042 167.123C107.042 167.608 106.641 168 106.147 168H97.853Z" fill="#211C1D"/>
</g>
<g clip-path="url(#clip3_5_502)">
<path d="M53.353 72C52.8588 72 52.4582 71.6076 52.4582 71.1235C52.4582 70.0926 54.9923 63.318 55.6043 58.7596C55.6779 58.2115 54.9958 57.993 54.6876 58.4389C53.2105 60.5759 51.7215 62.8613 47.6706 62.9157C40.1234 63.0172 35.7757 55.7041 38.1497 49.0496C39.3137 45.7867 55.3245 24 57.5 24C59.6754 24 75.6864 45.7867 76.8503 49.0496C79.2243 55.7041 74.8766 63.0172 67.3294 62.9157C63.2785 62.8613 61.7895 60.5759 60.3124 58.4389C60.0042 57.993 59.3221 58.2115 59.3957 58.7596C60.0077 63.318 62.5418 70.0926 62.5418 71.1235C62.5418 71.6076 62.1412 72 61.647 72H53.353Z" fill="#211C1D"/>
<path d="M53.353 136C52.8588 136 52.4582 135.608 52.4582 135.123C52.4582 134.093 54.9923 127.318 55.6043 122.76C55.6779 122.211 54.9958 121.993 54.6876 122.439C53.2105 124.576 51.7215 126.861 47.6706 126.916C40.1234 127.017 35.7757 119.704 38.1497 113.05C39.3137 109.787 55.3245 88 57.5 88C59.6754 88 75.6864 109.787 76.8503 113.05C79.2243 119.704 74.8766 127.017 67.3294 126.916C63.2785 126.861 61.7895 124.576 60.3124 122.439C60.0042 121.993 59.3221 122.211 59.3957 122.76C60.0077 127.318 62.5418 134.093 62.5418 135.123C62.5418 135.608 62.1412 136 61.647 136H53.353Z" fill="#211C1D"/>
<path d="M53.353 200C52.8588 200 52.4582 199.608 52.4582 199.123C52.4582 198.093 54.9923 191.318 55.6043 186.76C55.6779 186.211 54.9958 185.993 54.6876 186.439C53.2105 188.576 51.7215 190.861 47.6706 190.916C40.1234 191.017 35.7757 183.704 38.1497 177.05C39.3137 173.787 55.3245 152 57.5 152C59.6754 152 75.6864 173.787 76.8503 177.05C79.2243 183.704 74.8766 191.017 67.3294 190.916C63.2785 190.861 61.7895 188.576 60.3124 186.439C60.0042 185.993 59.3221 186.211 59.3957 186.76C60.0077 191.318 62.5418 198.093 62.5418 199.123C62.5418 199.608 62.1412 200 61.647 200H53.353Z" fill="#211C1D"/>
<path d="M53.353 264C52.8588 264 52.4582 263.608 52.4582 263.123C52.4582 262.093 54.9923 255.318 55.6043 250.76C55.6779 250.211 54.9958 249.993 54.6876 250.439C53.2105 252.576 51.7215 254.861 47.6706 254.916C40.1234 255.017 35.7757 247.704 38.1497 241.05C39.3137 237.787 55.3245 216 57.5 216C59.6754 216 75.6864 237.787 76.8503 241.05C79.2243 247.704 74.8766 255.017 67.3294 254.916C63.2785 254.861 61.7895 252.576 60.3124 250.439C60.0042 249.993 59.3221 250.211 59.3957 250.76C60.0077 255.318 62.5418 262.093 62.5418 263.123C62.5418 263.608 62.1412 264 61.647 264H53.353Z" fill="#211C1D"/>
</g>
<path d="M8.45166 34.936C8.45166 34.0352 9.07227 33.4546 9.93311 33.4546C10.4736 33.4546 10.894 33.6948 11.6348 34.4155C13.0962 35.8569 14.5776 36.5176 16.4194 36.5176C20.9438 36.5176 23.2461 32.3735 23.2461 25.1665H23.0659C22.0649 27.8691 19.5024 29.4907 16.2393 29.4907C11.1143 29.4907 7.55078 25.7271 7.55078 20.3218C7.55078 14.7563 11.3345 11.0527 17.02 11.0527C23.2861 11.0527 26.6294 15.9375 26.6294 25.0063C26.6294 34.5557 23.166 39.5205 16.4795 39.5205C14.2773 39.5205 12.1953 38.96 10.6338 37.939C9.29248 37.0581 8.45166 35.937 8.45166 34.936ZM22.6455 20.4019C22.6455 16.6582 20.2832 14.0957 16.8198 14.0957C13.3765 14.0957 11.0142 16.6582 11.0142 20.3818C11.0142 24.0254 13.3364 26.4678 16.8198 26.4678C20.3232 26.4678 22.6455 24.0454 22.6455 20.4019Z" fill="black"/>
<path d="M15.2375 68C15.0275 68 14.8572 67.8365 14.8572 67.6348C14.8572 67.2053 15.9342 64.3825 16.1943 62.4832C16.2256 62.2548 15.9357 62.1637 15.8047 62.3495C15.177 63.2399 14.5441 64.1922 12.8225 64.2149C9.61496 64.2572 7.76719 61.2101 8.77613 58.4373C9.2708 57.0778 16.0754 48 17 48C17.9245 48 24.7292 57.0778 25.2239 58.4373C26.2328 61.2101 24.385 64.2572 21.1775 64.2149C19.4559 64.1922 18.823 63.2399 18.1953 62.3495C18.0643 62.1637 17.7744 62.2548 17.8057 62.4832C18.0658 64.3825 19.1428 67.2053 19.1428 67.6348C19.1428 67.8365 18.9725 68 18.7625 68H15.2375Z" fill="#211C1D"/>
<path d="M11.0664 92V77.9082H12.4043V92H11.0664ZM18.4707 92.293C15.375 92.293 13.5195 89.4609 13.5195 84.9688V84.9395C13.5195 80.4375 15.375 77.6152 18.4707 77.6152C21.5664 77.6152 23.4414 80.4375 23.4414 84.9395V84.9688C23.4414 89.4707 21.5664 92.293 18.4707 92.293ZM18.4707 91.1211C20.7461 91.1211 22.1035 88.748 22.1035 84.9688V84.9395C22.1035 81.1504 20.7461 78.7969 18.4707 78.7969C16.2051 78.7969 14.8574 81.1602 14.8574 84.9395V84.9688C14.8574 88.748 16.2051 91.1211 18.4707 91.1211Z" fill="black"/>
</g>
<defs>
<clipPath id="clip0_5_502">
<rect width="203" height="288" rx="10" fill="white"/>
</clipPath>
<clipPath id="clip1_5_502">
<rect width="44" height="244" fill="white" transform="translate(123.5 22)"/>
</clipPath>
<clipPath id="clip2_5_502">
<rect width="44" height="179" fill="white" transform="translate(80 54.5)"/>
</clipPath>
<clipPath id="clip3_5_502">
<rect width="44" height="244" fill="white" transform="translate(35.5 22)"/>
</clipPath>
</defs>
</svg>
