<svg width="203" height="288" viewBox="0 0 203 288" fill="none" xmlns="http://www.w3.org/2000/svg">
<g clip-path="url(#clip0_3_6121)">
<rect width="203" height="288" rx="10" fill="white"/>
<path d="M194.548 253.064C194.548 253.965 193.928 254.545 193.067 254.545C192.526 254.545 192.106 254.305 191.365 253.584C189.904 252.143 188.422 251.482 186.581 251.482C182.056 251.482 179.754 255.626 179.754 262.833L179.934 262.833C180.935 260.131 183.498 258.509 186.761 258.509C191.886 258.509 195.449 262.273 195.449 267.678C195.449 273.244 191.666 276.947 185.98 276.947C179.714 276.947 176.371 272.062 176.371 262.994C176.371 253.444 179.834 248.479 186.521 248.479C188.723 248.479 190.805 249.04 192.366 250.061C193.708 250.942 194.548 252.063 194.548 253.064ZM180.354 267.598C180.354 271.342 182.717 273.904 186.18 273.904C189.624 273.904 191.986 271.342 191.986 267.618C191.986 263.975 189.664 261.532 186.18 261.532C182.677 261.532 180.354 263.955 180.354 267.598Z" fill="#BC1E24"/>
<path d="M190.265 238.999C187.548 238.958 186.493 236.602 186.146 235.491C186.111 235.378 185.888 235.378 185.853 235.491C185.506 236.602 184.452 238.958 181.735 238.999C178.177 239.054 175.501 235.071 177.941 231.071C180.117 227.506 185.918 221 186 221C186.083 221 191.883 227.506 194.059 231.071C196.499 235.071 193.823 239.054 190.265 238.999Z" fill="#BC1E24"/>
<path d="M191.934 196L191.934 210.092L190.596 210.092L190.596 196L191.934 196ZM184.529 195.707C187.625 195.707 189.48 198.539 189.48 203.031L189.48 203.061C189.48 207.562 187.625 210.385 184.529 210.385C181.434 210.385 179.559 207.562 179.559 203.061L179.559 203.031C179.559 198.529 181.434 195.707 184.529 195.707ZM184.529 196.879C182.254 196.879 180.896 199.252 180.896 203.031L180.896 203.061C180.896 206.85 182.254 209.203 184.529 209.203C186.795 209.203 188.143 206.84 188.143 203.061L188.143 203.031C188.143 199.252 186.795 196.879 184.529 196.879Z" fill="#BC1E24"/>
<g clip-path="url(#clip1_3_6121)">
<path d="M135.221 26.2514C141.769 26.3516 144.312 32.0461 145.148 34.731C145.232 35.0026 145.77 35.0025 145.855 34.7309C146.69 32.0459 149.231 26.3516 155.779 26.2514C164.353 26.1199 170.804 35.7455 164.922 45.4115C159.679 54.0269 145.698 69.75 145.5 69.75C145.299 69.7499 131.322 54.0278 126.079 45.4115C120.196 35.7454 126.647 26.1199 135.221 26.2514Z" fill="#BC1E24"/>
<path d="M135.221 90.2514C141.769 90.3516 144.312 96.0461 145.148 98.731C145.232 99.0026 145.77 99.0025 145.855 98.7309C146.69 96.0459 149.231 90.3516 155.779 90.2514C164.353 90.1199 170.804 99.7455 164.922 109.411C159.679 118.027 145.698 133.75 145.5 133.75C145.299 133.75 131.322 118.028 126.079 109.411C120.196 99.7454 126.647 90.1199 135.221 90.2514Z" fill="#BC1E24"/>
<path d="M135.221 154.251C141.769 154.352 144.312 160.046 145.148 162.731C145.232 163.003 145.77 163.003 145.855 162.731C146.69 160.046 149.231 154.352 155.779 154.251C164.353 154.12 170.804 163.745 164.922 173.411C159.679 182.027 145.698 197.75 145.5 197.75C145.299 197.75 131.322 182.028 126.079 173.411C120.196 163.745 126.647 154.12 135.221 154.251Z" fill="#BC1E24"/>
<path d="M135.221 218.251C141.769 218.352 144.312 224.046 145.148 226.731C145.232 227.003 145.77 227.003 145.855 226.731C146.69 224.046 149.231 218.352 155.779 218.251C164.353 218.12 170.804 227.745 164.922 237.411C159.679 246.027 145.698 261.75 145.5 261.75C145.299 261.75 131.322 246.028 126.079 237.411C120.196 227.745 126.647 218.12 135.221 218.251Z" fill="#BC1E24"/>
</g>
<g clip-path="url(#clip2_3_6121)">
<path d="M91.7207 122.251C98.2689 122.352 100.812 128.046 101.648 130.731C101.732 131.003 102.27 131.003 102.355 130.731C103.19 128.046 105.731 122.352 112.279 122.251C120.853 122.12 127.304 131.745 121.422 141.411C116.179 150.027 102.198 165.75 102 165.75C101.799 165.75 87.8219 150.028 82.5785 141.411C76.6963 131.745 83.1467 122.12 91.7207 122.251Z" fill="#BC1E24"/>
</g>
<g clip-path="url(#clip3_3_6121)">
<path d="M47.2207 26.2514C53.7689 26.3516 56.3116 32.0461 57.1476 34.731C57.2321 35.0026 57.7704 35.0025 57.8549 34.7309C58.6901 32.0459 61.2313 26.3516 67.7794 26.2514C76.3533 26.1199 82.8039 35.7455 76.9216 45.4115C71.6786 54.0269 57.6979 69.75 57.5 69.75C57.2989 69.7499 43.3219 54.0278 38.0785 45.4115C32.1963 35.7454 38.6467 26.1199 47.2207 26.2514Z" fill="#BC1E24"/>
<path d="M47.2207 90.2514C53.7689 90.3516 56.3116 96.0461 57.1476 98.731C57.2321 99.0026 57.7704 99.0025 57.8549 98.7309C58.6901 96.0459 61.2313 90.3516 67.7794 90.2514C76.3533 90.1199 82.8039 99.7455 76.9216 109.411C71.6786 118.027 57.6979 133.75 57.5 133.75C57.2989 133.75 43.3219 118.028 38.0785 109.411C32.1963 99.7454 38.6467 90.1199 47.2207 90.2514Z" fill="#BC1E24"/>
<path d="M47.2207 154.251C53.7689 154.352 56.3116 160.046 57.1476 162.731C57.2321 163.003 57.7704 163.003 57.8549 162.731C58.6901 160.046 61.2313 154.352 67.7794 154.251C76.3533 154.12 82.8039 163.745 76.9216 173.411C71.6786 182.027 57.6979 197.75 57.5 197.75C57.2989 197.75 43.3219 182.028 38.0785 173.411C32.1963 163.745 38.6467 154.12 47.2207 154.251Z" fill="#BC1E24"/>
<path d="M47.2207 218.251C53.7689 218.352 56.3116 224.046 57.1476 226.731C57.2321 227.003 57.7704 227.003 57.8549 226.731C58.6901 224.046 61.2313 218.352 67.7794 218.251C76.3533 218.12 82.8039 227.745 76.9216 237.411C71.6786 246.027 57.6979 261.75 57.5 261.75C57.2989 261.75 43.3219 246.028 38.0785 237.411C32.1963 227.745 38.6467 218.12 47.2207 218.251Z" fill="#BC1E24"/>
</g>
<path d="M8.45166 34.936C8.45166 34.0352 9.07227 33.4546 9.93311 33.4546C10.4736 33.4546 10.894 33.6948 11.6348 34.4155C13.0962 35.8569 14.5776 36.5176 16.4194 36.5176C20.9438 36.5176 23.2461 32.3735 23.2461 25.1665H23.0659C22.0649 27.8691 19.5024 29.4907 16.2393 29.4907C11.1143 29.4907 7.55078 25.7271 7.55078 20.3218C7.55078 14.7563 11.3345 11.0527 17.02 11.0527C23.2861 11.0527 26.6294 15.9375 26.6294 25.0063C26.6294 34.5557 23.166 39.5205 16.4795 39.5205C14.2773 39.5205 12.1953 38.96 10.6338 37.939C9.29248 37.0581 8.45166 35.937 8.45166 34.936ZM22.6455 20.4019C22.6455 16.6582 20.2832 14.0957 16.8198 14.0957C13.3765 14.0957 11.0142 16.6582 11.0142 20.3818C11.0142 24.0254 13.3364 26.4678 16.8198 26.4678C20.3232 26.4678 22.6455 24.0454 22.6455 20.4019Z" fill="#BC1E24"/>
<path d="M12.7347 49.0006C15.4518 49.042 16.5069 51.3984 16.8537 52.5094C16.8888 52.6218 17.1122 52.6217 17.1472 52.5093C17.4938 51.3983 18.5482 49.042 21.2653 49.0006C24.8229 48.9462 27.4995 52.9292 25.0587 56.9289C22.8832 60.4939 17.0821 67 17 67C16.9165 67 11.1169 60.4943 8.94127 56.9289C6.50053 52.9291 9.17705 48.9462 12.7347 49.0006Z" fill="#BC1E24"/>
<path d="M11.0664 92V77.9082H12.4043V92H11.0664ZM18.4707 92.293C15.375 92.293 13.5195 89.4609 13.5195 84.9688V84.9395C13.5195 80.4375 15.375 77.6152 18.4707 77.6152C21.5664 77.6152 23.4414 80.4375 23.4414 84.9395V84.9688C23.4414 89.4707 21.5664 92.293 18.4707 92.293ZM18.4707 91.1211C20.7461 91.1211 22.1035 88.748 22.1035 84.9688V84.9395C22.1035 81.1504 20.7461 78.7969 18.4707 78.7969C16.2051 78.7969 14.8574 81.1602 14.8574 84.9395V84.9688C14.8574 88.748 16.2051 91.1211 18.4707 91.1211Z" fill="#BC1E24"/>
</g>
<defs>
<clipPath id="clip0_3_6121">
<rect width="203" height="288" rx="10" fill="white"/>
</clipPath>
<clipPath id="clip1_3_6121">
<rect width="44" height="244" fill="white" transform="translate(123.5 22)"/>
</clipPath>
<clipPath id="clip2_3_6121">
<rect width="44" height="179" fill="white" transform="translate(80 54.5)"/>
</clipPath>
<clipPath id="clip3_3_6121">
<rect width="44" height="244" fill="white" transform="translate(35.5 22)"/>
</clipPath>
</defs>
</svg>
