<svg width="203" height="288" viewBox="0 0 203 288" fill="none" xmlns="http://www.w3.org/2000/svg">
<g clip-path="url(#clip0_3_1595)">
<rect width="203" height="288" rx="10" fill="white"/>
<path d="M194.548 253.064C194.548 253.965 193.928 254.545 193.067 254.545C192.526 254.545 192.106 254.305 191.365 253.584C189.904 252.143 188.422 251.482 186.581 251.482C182.056 251.482 179.754 255.626 179.754 262.833L179.934 262.833C180.935 260.131 183.498 258.509 186.761 258.509C191.886 258.509 195.449 262.273 195.449 267.678C195.449 273.244 191.666 276.947 185.98 276.947C179.714 276.947 176.371 272.062 176.371 262.994C176.371 253.444 179.834 248.479 186.521 248.479C188.723 248.479 190.805 249.04 192.366 250.061C193.708 250.942 194.548 252.063 194.548 253.064ZM180.354 267.598C180.354 271.342 182.717 273.904 186.18 273.904C189.624 273.904 191.986 271.342 191.986 267.618C191.986 263.975 189.664 261.532 186.18 261.532C182.677 261.532 180.354 263.955 180.354 267.598Z" fill="#BC1E24"/>
<path d="M185.82 239.896C185.896 240.035 186.104 240.035 186.18 239.896C188.474 235.728 190.128 233.522 193.445 230.135C193.518 230.06 193.518 229.94 193.445 229.865C190.128 226.478 188.474 224.272 186.18 220.104C186.104 219.965 185.896 219.965 185.82 220.104C183.526 224.272 181.872 226.478 178.555 229.865C178.482 229.94 178.482 230.06 178.555 230.135C181.872 233.522 183.526 235.728 185.82 239.896Z" fill="#BC1E24"/>
<path d="M191.934 196L191.934 210.092L190.596 210.092L190.596 196L191.934 196ZM184.529 195.707C187.625 195.707 189.48 198.539 189.48 203.031L189.48 203.061C189.48 207.562 187.625 210.385 184.529 210.385C181.434 210.385 179.559 207.562 179.559 203.061L179.559 203.031C179.559 198.529 181.434 195.707 184.529 195.707ZM184.529 196.879C182.254 196.879 180.896 199.252 180.896 203.031L180.896 203.061C180.896 206.85 182.254 209.203 184.529 209.203C186.795 209.203 188.143 206.84 188.143 203.061L188.143 203.031C188.143 199.252 186.795 196.879 184.529 196.879Z" fill="#BC1E24"/>
<g clip-path="url(#clip1_3_1595)">
<path d="M145.95 23.2599C145.759 22.9134 145.241 22.9134 145.05 23.2599C139.316 33.6809 135.181 39.1955 126.888 47.6621C126.704 47.8503 126.704 48.1498 126.888 48.338C135.181 56.8045 139.316 62.3191 145.05 72.7401C145.241 73.0866 145.759 73.0866 145.95 72.7401C151.684 62.3191 155.819 56.8045 164.112 48.338C164.296 48.1498 164.296 47.8503 164.112 47.6621C155.819 39.1955 151.684 33.6809 145.95 23.2599Z" fill="#BC1E24"/>
<path d="M145.95 87.2599C145.759 86.9134 145.241 86.9134 145.05 87.2599C139.316 97.6809 135.181 103.196 126.888 111.662C126.704 111.85 126.704 112.15 126.888 112.338C135.181 120.804 139.316 126.319 145.05 136.74C145.241 137.087 145.759 137.087 145.95 136.74C151.684 126.319 155.819 120.804 164.112 112.338C164.296 112.15 164.296 111.85 164.112 111.662C155.819 103.196 151.684 97.6809 145.95 87.2599Z" fill="#BC1E24"/>
<path d="M145.95 151.26C145.759 150.913 145.241 150.913 145.05 151.26C139.316 161.681 135.181 167.196 126.888 175.662C126.704 175.85 126.704 176.15 126.888 176.338C135.181 184.804 139.316 190.319 145.05 200.74C145.241 201.087 145.759 201.087 145.95 200.74C151.684 190.319 155.819 184.804 164.112 176.338C164.296 176.15 164.296 175.85 164.112 175.662C155.819 167.196 151.684 161.681 145.95 151.26Z" fill="#BC1E24"/>
<path d="M145.95 215.26C145.759 214.913 145.241 214.913 145.05 215.26C139.316 225.681 135.181 231.196 126.888 239.662C126.704 239.85 126.704 240.15 126.888 240.338C135.181 248.804 139.316 254.319 145.05 264.74C145.241 265.087 145.759 265.087 145.95 264.74C151.684 254.319 155.819 248.804 164.112 240.338C164.296 240.15 164.296 239.85 164.112 239.662C155.819 231.196 151.684 225.681 145.95 215.26Z" fill="#BC1E24"/>
</g>
<g clip-path="url(#clip2_3_1595)">
<path d="M102.45 119.26C102.259 118.913 101.741 118.913 101.55 119.26C95.8158 129.681 91.6805 135.196 83.3882 143.662C83.2039 143.85 83.2039 144.15 83.3882 144.338C91.6805 152.804 95.8158 158.319 101.55 168.74C101.741 169.087 102.259 169.087 102.45 168.74C108.184 158.319 112.319 152.804 120.612 144.338C120.796 144.15 120.796 143.85 120.612 143.662C112.319 135.196 108.184 129.681 102.45 119.26Z" fill="#BC1E24"/>
</g>
<g clip-path="url(#clip3_3_1595)">
<path d="M57.9501 23.2599C57.7594 22.9134 57.2406 22.9134 57.0499 23.2599C51.3158 33.6809 47.1805 39.1955 38.8882 47.6621C38.7039 47.8503 38.7039 48.1498 38.8882 48.338C47.1805 56.8045 51.3158 62.3191 57.0499 72.7401C57.2406 73.0866 57.7594 73.0866 57.9501 72.7401C63.6842 62.3191 67.8195 56.8045 76.1118 48.338C76.2961 48.1498 76.2961 47.8503 76.1118 47.6621C67.8195 39.1955 63.6842 33.6809 57.9501 23.2599Z" fill="#BC1E24"/>
<path d="M57.9501 87.2599C57.7594 86.9134 57.2406 86.9134 57.0499 87.2599C51.3158 97.6809 47.1805 103.196 38.8882 111.662C38.7039 111.85 38.7039 112.15 38.8882 112.338C47.1805 120.804 51.3158 126.319 57.0499 136.74C57.2406 137.087 57.7594 137.087 57.9501 136.74C63.6842 126.319 67.8195 120.804 76.1118 112.338C76.2961 112.15 76.2961 111.85 76.1118 111.662C67.8195 103.196 63.6842 97.6809 57.9501 87.2599Z" fill="#BC1E24"/>
<path d="M57.9501 151.26C57.7594 150.913 57.2406 150.913 57.0499 151.26C51.3158 161.681 47.1805 167.196 38.8882 175.662C38.7039 175.85 38.7039 176.15 38.8882 176.338C47.1805 184.804 51.3158 190.319 57.0499 200.74C57.2406 201.087 57.7594 201.087 57.9501 200.74C63.6842 190.319 67.8195 184.804 76.1118 176.338C76.2961 176.15 76.2961 175.85 76.1118 175.662C67.8195 167.196 63.6842 161.681 57.9501 151.26Z" fill="#BC1E24"/>
<path d="M57.9501 215.26C57.7594 214.913 57.2406 214.913 57.0499 215.26C51.3158 225.681 47.1805 231.196 38.8882 239.662C38.7039 239.85 38.7039 240.15 38.8882 240.338C47.1805 248.804 51.3158 254.319 57.0499 264.74C57.2406 265.087 57.7594 265.087 57.9501 264.74C63.6842 254.319 67.8195 248.804 76.1118 240.338C76.2961 240.15 76.2961 239.85 76.1118 239.662C67.8195 231.196 63.6842 225.681 57.9501 215.26Z" fill="#BC1E24"/>
</g>
<path d="M8.45166 34.936C8.45166 34.0352 9.07227 33.4546 9.93311 33.4546C10.4736 33.4546 10.894 33.6948 11.6348 34.4155C13.0962 35.8569 14.5776 36.5176 16.4194 36.5176C20.9438 36.5176 23.2461 32.3735 23.2461 25.1665H23.0659C22.0649 27.8691 19.5024 29.4907 16.2393 29.4907C11.1143 29.4907 7.55078 25.7271 7.55078 20.3218C7.55078 14.7563 11.3345 11.0527 17.02 11.0527C23.2861 11.0527 26.6294 15.9375 26.6294 25.0063C26.6294 34.5557 23.166 39.5205 16.4795 39.5205C14.2773 39.5205 12.1953 38.96 10.6338 37.939C9.29248 37.0581 8.45166 35.937 8.45166 34.936ZM22.6455 20.4019C22.6455 16.6582 20.2832 14.0957 16.8198 14.0957C13.3765 14.0957 11.0142 16.6582 11.0142 20.3818C11.0142 24.0254 13.3364 26.4678 16.8198 26.4678C20.3232 26.4678 22.6455 24.0454 22.6455 20.4019Z" fill="#BC1E24"/>
<path d="M17.1801 48.104C17.1038 47.9653 16.8962 47.9653 16.8199 48.104C14.5263 52.2724 12.8722 54.4782 9.55529 57.8648C9.48157 57.9401 9.48157 58.0599 9.55529 58.1352C12.8722 61.5218 14.5263 63.7276 16.8199 67.896C16.8962 68.0347 17.1038 68.0347 17.1801 67.896C19.4737 63.7276 21.1278 61.5218 24.4447 58.1352C24.5184 58.0599 24.5184 57.9401 24.4447 57.8648C21.1278 54.4782 19.4737 52.2724 17.1801 48.104Z" fill="#BC1E24"/>
<path d="M11.0664 92V77.9082H12.4043V92H11.0664ZM18.4707 92.293C15.375 92.293 13.5195 89.4609 13.5195 84.9688V84.9395C13.5195 80.4375 15.375 77.6152 18.4707 77.6152C21.5664 77.6152 23.4414 80.4375 23.4414 84.9395V84.9688C23.4414 89.4707 21.5664 92.293 18.4707 92.293ZM18.4707 91.1211C20.7461 91.1211 22.1035 88.748 22.1035 84.9688V84.9395C22.1035 81.1504 20.7461 78.7969 18.4707 78.7969C16.2051 78.7969 14.8574 81.1602 14.8574 84.9395V84.9688C14.8574 88.748 16.2051 91.1211 18.4707 91.1211Z" fill="#BC1E24"/>
</g>
<defs>
<clipPath id="clip0_3_1595">
<rect width="203" height="288" rx="10" fill="white"/>
</clipPath>
<clipPath id="clip1_3_1595">
<rect width="44" height="244" fill="white" transform="translate(123.5 22)"/>
</clipPath>
<clipPath id="clip2_3_1595">
<rect width="44" height="179" fill="white" transform="translate(80 54.5)"/>
</clipPath>
<clipPath id="clip3_3_1595">
<rect width="44" height="244" fill="white" transform="translate(35.5 22)"/>
</clipPath>
</defs>
</svg>
