<svg width="203" height="288" viewBox="0 0 203 288" fill="none" xmlns="http://www.w3.org/2000/svg">
<g clip-path="url(#clip0_3_1658)">
<rect width="203" height="288" rx="10" fill="white"/>
<path d="M191.465 250.241C191.465 250.682 191.325 251.062 191.105 251.502L180.995 273.063L180.995 273.264L193.407 273.264C194.648 273.264 195.249 273.904 195.249 274.785C195.249 275.686 194.648 276.327 193.407 276.327L179.153 276.327C178.112 276.327 177.251 275.606 177.251 274.425C177.251 273.864 177.532 272.943 177.972 272.002L188.182 249.961C188.563 249.16 189.043 248.68 189.884 248.68C190.705 248.68 191.465 249.3 191.465 250.241Z" fill="#BC1E24"/>
<path d="M185.82 239.896C185.896 240.035 186.104 240.035 186.18 239.896C188.474 235.728 190.128 233.522 193.445 230.135C193.518 230.06 193.518 229.94 193.445 229.865C190.128 226.478 188.474 224.272 186.18 220.104C186.104 219.965 185.896 219.965 185.82 220.104C183.526 224.272 181.872 226.478 178.555 229.865C178.482 229.94 178.482 230.06 178.555 230.135C181.872 233.522 183.526 235.728 185.82 239.896Z" fill="#BC1E24"/>
<path d="M186 195.707C188.539 195.707 190.424 197.348 190.639 199.486L190.648 199.584L189.369 199.584L189.359 199.516C189.164 198.061 187.777 196.898 185.98 196.898C183.92 196.898 182.445 198.383 182.445 200.453L182.445 200.473C182.445 202.523 183.92 204.027 185.922 204.027C187.025 204.027 187.992 203.627 188.676 202.875C188.881 202.67 189.066 202.426 189.223 202.152L190.404 202.152L189.623 210.092L181.967 210.092L181.967 208.891L188.559 208.891L189.125 203.568L188.998 203.568C188.324 204.594 187.094 205.189 185.717 205.189C183.08 205.189 181.137 203.207 181.137 200.502L181.137 200.482C181.137 197.689 183.178 195.707 186 195.707Z" fill="#BC1E24"/>
<g clip-path="url(#clip1_3_1658)">
<path d="M145.95 23.2599C145.759 22.9134 145.241 22.9134 145.05 23.2599C139.316 33.6809 135.181 39.1955 126.888 47.6621C126.704 47.8503 126.704 48.1498 126.888 48.338C135.181 56.8045 139.316 62.3191 145.05 72.7401C145.241 73.0866 145.759 73.0866 145.95 72.7401C151.684 62.3191 155.819 56.8045 164.112 48.338C164.296 48.1498 164.296 47.8503 164.112 47.6621C155.819 39.1955 151.684 33.6809 145.95 23.2599Z" fill="#BC1E24"/>
<path d="M145.95 119.26C145.759 118.913 145.241 118.913 145.05 119.26C139.316 129.681 135.181 135.196 126.888 143.662C126.704 143.85 126.704 144.15 126.888 144.338C135.181 152.804 139.316 158.319 145.05 168.74C145.241 169.087 145.759 169.087 145.95 168.74C151.684 158.319 155.819 152.804 164.112 144.338C164.296 144.15 164.296 143.85 164.112 143.662C155.819 135.196 151.684 129.681 145.95 119.26Z" fill="#BC1E24"/>
<path d="M145.95 215.26C145.759 214.913 145.241 214.913 145.05 215.26C139.316 225.681 135.181 231.196 126.888 239.662C126.704 239.85 126.704 240.15 126.888 240.338C135.181 248.804 139.316 254.319 145.05 264.74C145.241 265.087 145.759 265.087 145.95 264.74C151.684 254.319 155.819 248.804 164.112 240.338C164.296 240.15 164.296 239.85 164.112 239.662C155.819 231.196 151.684 225.681 145.95 215.26Z" fill="#BC1E24"/>
</g>
<g clip-path="url(#clip2_3_1658)">
<path d="M102.45 70.7599C102.259 70.4134 101.741 70.4134 101.55 70.7599C95.8158 81.1809 91.6805 86.6955 83.3882 95.1621C83.2039 95.3503 83.2039 95.6498 83.3882 95.838C91.6805 104.304 95.8158 109.819 101.55 120.24C101.741 120.587 102.259 120.587 102.45 120.24C108.184 109.819 112.319 104.304 120.612 95.838C120.796 95.6498 120.796 95.3503 120.612 95.1621C112.319 86.6955 108.184 81.1809 102.45 70.7599Z" fill="#BC1E24"/>
</g>
<g clip-path="url(#clip3_3_1658)">
<path d="M57.9501 23.2599C57.7594 22.9134 57.2406 22.9134 57.0499 23.2599C51.3158 33.6809 47.1805 39.1955 38.8882 47.6621C38.7039 47.8503 38.7039 48.1498 38.8882 48.338C47.1805 56.8045 51.3158 62.3191 57.0499 72.7401C57.2406 73.0866 57.7594 73.0866 57.9501 72.7401C63.6842 62.3191 67.8195 56.8045 76.1118 48.338C76.2961 48.1498 76.2961 47.8503 76.1118 47.6621C67.8195 39.1955 63.6842 33.6809 57.9501 23.2599Z" fill="#BC1E24"/>
<path d="M57.9501 119.26C57.7594 118.913 57.2406 118.913 57.0499 119.26C51.3158 129.681 47.1805 135.196 38.8882 143.662C38.7039 143.85 38.7039 144.15 38.8882 144.338C47.1805 152.804 51.3158 158.319 57.0499 168.74C57.2406 169.087 57.7594 169.087 57.9501 168.74C63.6842 158.319 67.8195 152.804 76.1118 144.338C76.2961 144.15 76.2961 143.85 76.1118 143.662C67.8195 135.196 63.6842 129.681 57.9501 119.26Z" fill="#BC1E24"/>
<path d="M57.9501 215.26C57.7594 214.913 57.2406 214.913 57.0499 215.26C51.3158 225.681 47.1805 231.196 38.8882 239.662C38.7039 239.85 38.7039 240.15 38.8882 240.338C47.1805 248.804 51.3158 254.319 57.0499 264.74C57.2406 265.087 57.7594 265.087 57.9501 264.74C63.6842 254.319 67.8195 248.804 76.1118 240.338C76.2961 240.15 76.2961 239.85 76.1118 239.662C67.8195 231.196 63.6842 225.681 57.9501 215.26Z" fill="#BC1E24"/>
</g>
<path d="M11.5347 37.7588C11.5347 37.3184 11.6748 36.938 11.895 36.4976L22.0049 14.9365V14.7363H9.59277C8.35156 14.7363 7.75098 14.0957 7.75098 13.2148C7.75098 12.314 8.35156 11.6733 9.59277 11.6733H23.8467C24.8877 11.6733 25.7485 12.394 25.7485 13.5752C25.7485 14.1357 25.4683 15.0566 25.0278 15.9976L14.8179 38.0391C14.4375 38.8398 13.957 39.3203 13.1162 39.3203C12.2954 39.3203 11.5347 38.6997 11.5347 37.7588Z" fill="#BC1E24"/>
<path d="M17.1801 48.104C17.1038 47.9653 16.8962 47.9653 16.8199 48.104C14.5263 52.2724 12.8722 54.4782 9.55529 57.8648C9.48157 57.9401 9.48157 58.0599 9.55529 58.1352C12.8722 61.5218 14.5263 63.7276 16.8199 67.896C16.8962 68.0347 17.1038 68.0347 17.1801 67.896C19.4737 63.7276 21.1278 61.5218 24.4447 58.1352C24.5184 58.0599 24.5184 57.9401 24.4447 57.8648C21.1278 54.4782 19.4737 52.2724 17.1801 48.104Z" fill="#BC1E24"/>
<path d="M17 92.293C14.4609 92.293 12.5762 90.6523 12.3613 88.5137L12.3516 88.416H13.6309L13.6406 88.4844C13.8359 89.9395 15.2227 91.1016 17.0195 91.1016C19.0801 91.1016 20.5547 89.6172 20.5547 87.5469V87.5273C20.5547 85.4766 19.0801 83.9727 17.0781 83.9727C15.9746 83.9727 15.0078 84.373 14.3242 85.125C14.1191 85.3301 13.9336 85.5742 13.7773 85.8477H12.5957L13.377 77.9082H21.0332V79.1094H14.4414L13.875 84.4316H14.002C14.6758 83.4062 15.9062 82.8105 17.2832 82.8105C19.9199 82.8105 21.8633 84.793 21.8633 87.498V87.5176C21.8633 90.3105 19.8223 92.293 17 92.293Z" fill="#BC1E24"/>
</g>
<defs>
<clipPath id="clip0_3_1658">
<rect width="203" height="288" rx="10" fill="white"/>
</clipPath>
<clipPath id="clip1_3_1658">
<rect width="44" height="244" fill="white" transform="translate(123.5 22)"/>
</clipPath>
<clipPath id="clip2_3_1658">
<rect width="44" height="179" fill="white" transform="translate(80 54.5)"/>
</clipPath>
<clipPath id="clip3_3_1658">
<rect width="44" height="244" fill="white" transform="translate(35.5 22)"/>
</clipPath>
</defs>
</svg>
