<svg width="203" height="288" viewBox="0 0 203 288" fill="none" xmlns="http://www.w3.org/2000/svg">
<g clip-path="url(#clip0_5_1855)">
<rect width="203" height="288" rx="10" fill="white"/>
<path d="M195.469 261.873C195.469 271.502 191.766 276.847 185.119 276.847C182.977 276.847 180.915 276.267 179.394 275.226C178.072 274.365 177.271 273.264 177.271 272.343C177.271 271.482 177.892 270.841 178.753 270.841C179.313 270.841 179.734 271.062 180.455 271.762C181.896 273.184 183.397 273.824 185.179 273.824C189.644 273.824 192.006 269.9 192.066 262.413L191.906 262.413C190.985 264.855 188.122 266.577 184.999 266.577C179.914 266.577 176.351 262.914 176.351 257.688C176.351 252.183 180.114 248.439 185.68 248.439C189.063 248.439 191.766 249.841 193.407 252.423C194.789 254.625 195.469 257.729 195.469 261.873ZM191.565 257.568C191.565 253.985 189.083 251.442 185.54 251.442C182.096 251.442 179.794 253.865 179.794 257.548C179.794 261.192 182.116 263.594 185.68 263.594C189.143 263.594 191.565 261.112 191.565 257.568Z" fill="black"/>
<path d="M187.968 220C188.185 220 188.361 220.174 188.361 220.389C188.361 221.109 187.068 223.799 186.81 225.904C186.782 226.131 187.114 226.215 187.236 226.021C187.902 224.964 188.81 223.485 191.022 223.537L191.065 223.535C191.093 223.534 191.122 223.533 191.151 223.533C193.553 223.533 195.5 225.646 195.5 228.252C195.5 230.858 193.553 232.97 191.151 232.97C190.682 232.97 190.23 232.889 189.807 232.74C189.708 232.705 189.608 232.819 189.657 232.91C190.032 233.607 190.247 234.418 190.247 235.283C190.247 237.852 188.375 240 186 240C183.625 240 181.753 237.852 181.753 235.283C181.753 234.418 181.968 233.607 182.343 232.91C182.392 232.819 182.292 232.705 182.193 232.74C181.77 232.889 181.318 232.97 180.849 232.97C178.447 232.97 176.5 230.858 176.5 228.252C176.5 225.646 178.447 223.533 180.849 223.533C180.878 223.533 180.907 223.534 180.935 223.535L180.978 223.537C183.19 223.485 184.098 224.964 184.764 226.021C184.886 226.215 185.218 226.131 185.19 225.904C184.932 223.799 183.639 221.109 183.639 220.389C183.639 220.174 183.815 220 184.032 220L187.968 220Z" fill="#211C1D"/>
<path d="M186 195.707C188.539 195.707 190.424 197.348 190.639 199.486L190.648 199.584L189.369 199.584L189.359 199.516C189.164 198.061 187.777 196.898 185.98 196.898C183.92 196.898 182.445 198.383 182.445 200.453L182.445 200.473C182.445 202.523 183.92 204.027 185.922 204.027C187.025 204.027 187.992 203.627 188.676 202.875C188.881 202.67 189.066 202.426 189.223 202.152L190.404 202.152L189.623 210.092L181.967 210.092L181.967 208.891L188.559 208.891L189.125 203.568L188.998 203.568C188.324 204.594 187.094 205.189 185.717 205.189C183.08 205.189 181.137 203.207 181.137 200.502L181.137 200.482C181.137 197.689 183.178 195.707 186 195.707Z" fill="black"/>
<g clip-path="url(#clip1_5_1855)">
<path d="M140.84 72C140.325 72 139.908 71.5825 139.908 71.0675C139.908 69.3389 142.97 62.8831 143.582 57.8301C143.648 57.2867 142.862 57.0849 142.573 57.5498C140.996 60.0863 138.846 63.6359 133.607 63.512L133.505 63.5152C133.437 63.5176 133.369 63.5199 133.301 63.5199C127.612 63.5199 123 58.4499 123 52.1959C123 45.9419 127.612 40.8719 133.301 40.8719C134.411 40.8719 135.481 41.066 136.483 41.4239C136.717 41.5074 136.955 41.2346 136.839 41.0153C135.951 39.3424 135.442 37.3975 135.442 35.3209C135.442 29.156 139.875 24 145.5 24C151.125 24 155.558 29.156 155.558 35.3209C155.558 37.3975 155.049 39.3424 154.161 41.0153C154.045 41.2346 154.283 41.5074 154.517 41.4239C155.519 41.066 156.589 40.8719 157.699 40.8719C163.388 40.8719 168 45.9419 168 52.1959C168 58.4499 163.388 63.5199 157.699 63.5199C157.631 63.5199 157.563 63.5176 157.495 63.5152L157.393 63.512C152.154 63.6359 150.004 60.0863 148.427 57.5498C148.138 57.0849 147.352 57.2867 147.418 57.8301C148.03 62.883 151.092 69.339 151.092 71.0675C151.092 71.5825 150.675 72 150.16 72H140.84Z" fill="#211C1D"/>
<path d="M140.84 168C140.325 168 139.908 167.582 139.908 167.067C139.908 165.339 142.97 158.883 143.582 153.83C143.648 153.287 142.862 153.085 142.573 153.55C140.996 156.086 138.846 159.636 133.607 159.512L133.505 159.515C133.437 159.518 133.369 159.52 133.301 159.52C127.612 159.52 123 154.45 123 148.196C123 141.942 127.612 136.872 133.301 136.872C134.411 136.872 135.481 137.066 136.483 137.424C136.717 137.507 136.955 137.235 136.839 137.015C135.951 135.342 135.442 133.397 135.442 131.321C135.442 125.156 139.875 120 145.5 120C151.125 120 155.558 125.156 155.558 131.321C155.558 133.397 155.049 135.342 154.161 137.015C154.045 137.235 154.283 137.507 154.517 137.424C155.519 137.066 156.589 136.872 157.699 136.872C163.388 136.872 168 141.942 168 148.196C168 154.45 163.388 159.52 157.699 159.52C157.631 159.52 157.563 159.518 157.495 159.515L157.393 159.512C152.154 159.636 150.004 156.086 148.427 153.55C148.138 153.085 147.352 153.287 147.418 153.83C148.03 158.883 151.092 165.339 151.092 167.067C151.092 167.582 150.675 168 150.16 168H140.84Z" fill="#211C1D"/>
<path d="M140.84 264C140.325 264 139.908 263.582 139.908 263.067C139.908 261.339 142.97 254.883 143.582 249.83C143.648 249.287 142.862 249.085 142.573 249.55C140.996 252.086 138.846 255.636 133.607 255.512L133.505 255.515C133.437 255.518 133.369 255.52 133.301 255.52C127.612 255.52 123 250.45 123 244.196C123 237.942 127.612 232.872 133.301 232.872C134.411 232.872 135.481 233.066 136.483 233.424C136.717 233.507 136.955 233.235 136.839 233.015C135.951 231.342 135.442 229.397 135.442 227.321C135.442 221.156 139.875 216 145.5 216C151.125 216 155.558 221.156 155.558 227.321C155.558 229.397 155.049 231.342 154.161 233.015C154.045 233.235 154.283 233.507 154.517 233.424C155.519 233.066 156.589 232.872 157.699 232.872C163.388 232.872 168 237.942 168 244.196C168 250.45 163.388 255.52 157.699 255.52C157.631 255.52 157.563 255.518 157.495 255.515L157.393 255.512C152.154 255.636 150.004 252.086 148.427 249.55C148.138 249.085 147.352 249.287 147.418 249.83C148.03 254.883 151.092 261.339 151.092 263.067C151.092 263.582 150.675 264 150.16 264H140.84Z" fill="#211C1D"/>
</g>
<g clip-path="url(#clip2_5_1855)">
<path d="M52.84 72C52.325 72 51.9075 71.5825 51.9075 71.0675C51.9075 69.3389 54.9696 62.8831 55.5817 57.8301C55.6476 57.2867 54.8615 57.0849 54.5725 57.5498C52.9958 60.0863 50.8456 63.6359 45.6068 63.512L45.5051 63.5152C45.4372 63.5176 45.3693 63.5199 45.3008 63.5199C39.6117 63.5199 35 58.4499 35 52.1959C35 45.9419 39.6117 40.8719 45.3008 40.8719C46.4114 40.8719 47.4808 41.066 48.483 41.4239C48.7167 41.5074 48.9551 41.2346 48.8388 41.0153C47.951 39.3424 47.4416 37.3975 47.4416 35.3209C47.4416 29.156 51.875 24 57.5 24C63.125 24 67.5584 29.156 67.5584 35.3209C67.5584 37.3975 67.049 39.3424 66.1612 41.0153C66.0449 41.2346 66.2833 41.5074 66.517 41.4239C67.5192 41.066 68.5886 40.8719 69.6992 40.8719C75.3883 40.8719 80 45.9419 80 52.1959C80 58.4499 75.3883 63.5199 69.6992 63.5199C69.6307 63.5199 69.5628 63.5176 69.4949 63.5152L69.3932 63.512C64.1544 63.6359 62.0042 60.0863 60.4275 57.5498C60.1385 57.0849 59.3524 57.2867 59.4183 57.8301C60.0304 62.883 63.0925 69.339 63.0925 71.0675C63.0925 71.5825 62.675 72 62.16 72H52.84Z" fill="#211C1D"/>
<path d="M52.84 168C52.325 168 51.9075 167.582 51.9075 167.067C51.9075 165.339 54.9696 158.883 55.5817 153.83C55.6476 153.287 54.8615 153.085 54.5725 153.55C52.9958 156.086 50.8456 159.636 45.6068 159.512L45.5051 159.515C45.4372 159.518 45.3693 159.52 45.3008 159.52C39.6117 159.52 35 154.45 35 148.196C35 141.942 39.6117 136.872 45.3008 136.872C46.4114 136.872 47.4808 137.066 48.483 137.424C48.7167 137.507 48.9551 137.235 48.8388 137.015C47.951 135.342 47.4416 133.397 47.4416 131.321C47.4416 125.156 51.875 120 57.5 120C63.125 120 67.5584 125.156 67.5584 131.321C67.5584 133.397 67.049 135.342 66.1612 137.015C66.0449 137.235 66.2833 137.507 66.517 137.424C67.5192 137.066 68.5886 136.872 69.6992 136.872C75.3883 136.872 80 141.942 80 148.196C80 154.45 75.3883 159.52 69.6992 159.52C69.6307 159.52 69.5628 159.518 69.4949 159.515L69.3932 159.512C64.1544 159.636 62.0042 156.086 60.4275 153.55C60.1385 153.085 59.3524 153.287 59.4183 153.83C60.0304 158.883 63.0925 165.339 63.0925 167.067C63.0925 167.582 62.675 168 62.16 168H52.84Z" fill="#211C1D"/>
<path d="M52.84 264C52.325 264 51.9075 263.582 51.9075 263.067C51.9075 261.339 54.9696 254.883 55.5817 249.83C55.6476 249.287 54.8615 249.085 54.5725 249.55C52.9958 252.086 50.8456 255.636 45.6068 255.512L45.5051 255.515C45.4372 255.518 45.3693 255.52 45.3008 255.52C39.6117 255.52 35 250.45 35 244.196C35 237.942 39.6117 232.872 45.3008 232.872C46.4114 232.872 47.4808 233.066 48.483 233.424C48.7167 233.507 48.9551 233.235 48.8388 233.015C47.951 231.342 47.4416 229.397 47.4416 227.321C47.4416 221.156 51.875 216 57.5 216C63.125 216 67.5584 221.156 67.5584 227.321C67.5584 229.397 67.049 231.342 66.1612 233.015C66.0449 233.235 66.2833 233.507 66.517 233.424C67.5192 233.066 68.5886 232.872 69.6992 232.872C75.3883 232.872 80 237.942 80 244.196C80 250.45 75.3883 255.52 69.6992 255.52C69.6307 255.52 69.5628 255.518 69.4949 255.515L69.3932 255.512C64.1544 255.636 62.0042 252.086 60.4275 249.55C60.1385 249.085 59.3524 249.287 59.4183 249.83C60.0304 254.883 63.0925 261.339 63.0925 263.067C63.0925 263.582 62.675 264 62.16 264H52.84Z" fill="#211C1D"/>
</g>
<path d="M7.53076 26.1274C7.53076 16.498 11.2344 11.1528 17.8809 11.1528C20.0229 11.1528 22.085 11.7334 23.6064 12.7744C24.9277 13.6353 25.7285 14.7363 25.7285 15.6572C25.7285 16.5181 25.1079 17.1587 24.2471 17.1587C23.6865 17.1587 23.2661 16.9385 22.5454 16.2378C21.104 14.8164 19.6025 14.1758 17.8208 14.1758C13.3564 14.1758 10.9941 18.0996 10.9341 25.5869H11.0942C12.0151 23.1445 14.8779 21.4229 18.001 21.4229C23.0859 21.4229 26.6494 25.0864 26.6494 30.3115C26.6494 35.8169 22.8857 39.5605 17.3203 39.5605C13.937 39.5605 11.2344 38.1592 9.59277 35.5767C8.21143 33.3745 7.53076 30.2715 7.53076 26.1274ZM11.4346 30.4316C11.4346 34.0151 13.917 36.5576 17.4604 36.5576C20.9038 36.5576 23.2061 34.1353 23.2061 30.4517C23.2061 26.8081 20.8838 24.4058 17.3203 24.4058C13.8569 24.4058 11.4346 26.8882 11.4346 30.4316Z" fill="black"/>
<path d="M15.0324 68C14.815 68 14.6387 67.826 14.6387 67.6115C14.6387 66.8912 15.9316 64.2013 16.1901 62.0959C16.2179 61.8695 15.886 61.7854 15.7639 61.9791C15.0982 63.0359 14.1904 64.515 11.9784 64.4633L11.9355 64.4647C11.9068 64.4656 11.8781 64.4666 11.8492 64.4666C9.44715 64.4666 7.5 62.3541 7.5 59.7483C7.5 57.1425 9.44715 55.03 11.8492 55.03C12.3182 55.03 12.7697 55.1108 13.1928 55.26C13.2915 55.2948 13.3921 55.1811 13.3431 55.0897C12.9682 54.3927 12.7531 53.5823 12.7531 52.717C12.7531 50.1483 14.625 48 17 48C19.375 48 21.2469 50.1483 21.2469 52.717C21.2469 53.5823 21.0318 54.3927 20.6569 55.0897C20.6079 55.1811 20.7085 55.2948 20.8072 55.26C21.2303 55.1108 21.6818 55.03 22.1508 55.03C24.5529 55.03 26.5 57.1425 26.5 59.7483C26.5 62.3541 24.5529 64.4666 22.1508 64.4666C22.1219 64.4666 22.0932 64.4656 22.0645 64.4647L22.0216 64.4633C19.8096 64.515 18.9018 63.0359 18.2361 61.9791C18.114 61.7854 17.7821 61.8695 17.8099 62.0959C18.0684 64.2013 19.3613 66.8913 19.3613 67.6114C19.3613 67.826 19.185 68 18.9676 68H15.0324Z" fill="#211C1D"/>
<path d="M17 92.293C14.4609 92.293 12.5762 90.6523 12.3613 88.5137L12.3516 88.416H13.6309L13.6406 88.4844C13.8359 89.9395 15.2227 91.1016 17.0195 91.1016C19.0801 91.1016 20.5547 89.6172 20.5547 87.5469V87.5273C20.5547 85.4766 19.0801 83.9727 17.0781 83.9727C15.9746 83.9727 15.0078 84.373 14.3242 85.125C14.1191 85.3301 13.9336 85.5742 13.7773 85.8477H12.5957L13.377 77.9082H21.0332V79.1094H14.4414L13.875 84.4316H14.002C14.6758 83.4062 15.9062 82.8105 17.2832 82.8105C19.9199 82.8105 21.8633 84.793 21.8633 87.498V87.5176C21.8633 90.3105 19.8223 92.293 17 92.293Z" fill="black"/>
</g>
<defs>
<clipPath id="clip0_5_1855">
<rect width="203" height="288" rx="10" fill="white"/>
</clipPath>
<clipPath id="clip1_5_1855">
<rect width="44" height="244" fill="white" transform="translate(123.5 22)"/>
</clipPath>
<clipPath id="clip2_5_1855">
<rect width="44" height="244" fill="white" transform="translate(35.5 22)"/>
</clipPath>
</defs>
</svg>
