<svg width="203" height="288" viewBox="0 0 203 288" fill="none" xmlns="http://www.w3.org/2000/svg">
<g clip-path="url(#clip0_3_6124)">
<rect width="203" height="288" rx="10" fill="white"/>
<path d="M195.469 261.873C195.469 271.502 191.766 276.847 185.119 276.847C182.977 276.847 180.915 276.267 179.394 275.226C178.072 274.365 177.271 273.264 177.271 272.343C177.271 271.482 177.892 270.841 178.753 270.841C179.313 270.841 179.734 271.062 180.455 271.762C181.896 273.184 183.397 273.824 185.179 273.824C189.644 273.824 192.006 269.9 192.066 262.413L191.906 262.413C190.985 264.855 188.122 266.577 184.999 266.577C179.914 266.577 176.351 262.914 176.351 257.688C176.351 252.183 180.114 248.439 185.68 248.439C189.063 248.439 191.766 249.841 193.407 252.423C194.789 254.625 195.469 257.729 195.469 261.873ZM191.565 257.568C191.565 253.985 189.083 251.442 185.54 251.442C182.096 251.442 179.794 253.865 179.794 257.548C179.794 261.192 182.116 263.594 185.68 263.594C189.143 263.594 191.565 261.112 191.565 257.568Z" fill="#BC1E24"/>
<path d="M190.265 238.999C187.548 238.958 186.493 236.602 186.146 235.491C186.111 235.378 185.888 235.378 185.853 235.491C185.506 236.602 184.452 238.958 181.735 238.999C178.177 239.054 175.501 235.071 177.941 231.071C180.117 227.506 185.918 221 186 221C186.083 221 191.883 227.506 194.059 231.071C196.499 235.071 193.823 239.054 190.265 238.999Z" fill="#BC1E24"/>
<path d="M186 195.707C188.539 195.707 190.424 197.348 190.639 199.486L190.648 199.584L189.369 199.584L189.359 199.516C189.164 198.061 187.777 196.898 185.98 196.898C183.92 196.898 182.445 198.383 182.445 200.453L182.445 200.473C182.445 202.523 183.92 204.027 185.922 204.027C187.025 204.027 187.992 203.627 188.676 202.875C188.881 202.67 189.066 202.426 189.223 202.152L190.404 202.152L189.623 210.092L181.967 210.092L181.967 208.891L188.559 208.891L189.125 203.568L188.998 203.568C188.324 204.594 187.094 205.189 185.717 205.189C183.08 205.189 181.137 203.207 181.137 200.502L181.137 200.482C181.137 197.689 183.178 195.707 186 195.707Z" fill="#BC1E24"/>
<g clip-path="url(#clip1_3_6124)">
<path d="M135.221 26.2514C141.769 26.3516 144.312 32.0461 145.148 34.731C145.232 35.0026 145.77 35.0025 145.855 34.7309C146.69 32.0459 149.231 26.3516 155.779 26.2514C164.353 26.1199 170.804 35.7455 164.922 45.4115C159.679 54.0269 145.698 69.75 145.5 69.75C145.299 69.7499 131.322 54.0278 126.079 45.4115C120.196 35.7454 126.647 26.1199 135.221 26.2514Z" fill="#BC1E24"/>
<path d="M135.221 122.251C141.769 122.352 144.312 128.046 145.148 130.731C145.232 131.003 145.77 131.003 145.855 130.731C146.69 128.046 149.231 122.352 155.779 122.251C164.353 122.12 170.804 131.745 164.922 141.411C159.679 150.027 145.698 165.75 145.5 165.75C145.299 165.75 131.322 150.028 126.079 141.411C120.196 131.745 126.647 122.12 135.221 122.251Z" fill="#BC1E24"/>
<path d="M135.221 218.251C141.769 218.352 144.312 224.046 145.148 226.731C145.232 227.003 145.77 227.003 145.855 226.731C146.69 224.046 149.231 218.352 155.779 218.251C164.353 218.12 170.804 227.745 164.922 237.411C159.679 246.027 145.698 261.75 145.5 261.75C145.299 261.75 131.322 246.028 126.079 237.411C120.196 227.745 126.647 218.12 135.221 218.251Z" fill="#BC1E24"/>
</g>
<g clip-path="url(#clip2_3_6124)">
<path d="M47.2207 26.2514C53.7689 26.3516 56.3116 32.0461 57.1476 34.731C57.2321 35.0026 57.7704 35.0025 57.8549 34.7309C58.6901 32.0459 61.2313 26.3516 67.7794 26.2514C76.3533 26.1199 82.8039 35.7455 76.9216 45.4115C71.6786 54.0269 57.6979 69.75 57.5 69.75C57.2989 69.7499 43.3219 54.0278 38.0785 45.4115C32.1963 35.7454 38.6467 26.1199 47.2207 26.2514Z" fill="#BC1E24"/>
<path d="M47.2207 122.251C53.7689 122.352 56.3116 128.046 57.1476 130.731C57.2321 131.003 57.7704 131.003 57.8549 130.731C58.6901 128.046 61.2313 122.352 67.7794 122.251C76.3533 122.12 82.8039 131.745 76.9216 141.411C71.6786 150.027 57.6979 165.75 57.5 165.75C57.2989 165.75 43.3219 150.028 38.0785 141.411C32.1963 131.745 38.6467 122.12 47.2207 122.251Z" fill="#BC1E24"/>
<path d="M47.2207 218.251C53.7689 218.352 56.3116 224.046 57.1476 226.731C57.2321 227.003 57.7704 227.003 57.8549 226.731C58.6901 224.046 61.2313 218.352 67.7794 218.251C76.3533 218.12 82.8039 227.745 76.9216 237.411C71.6786 246.027 57.6979 261.75 57.5 261.75C57.2989 261.75 43.3219 246.028 38.0785 237.411C32.1963 227.745 38.6467 218.12 47.2207 218.251Z" fill="#BC1E24"/>
</g>
<path d="M7.53076 26.1274C7.53076 16.498 11.2344 11.1528 17.8809 11.1528C20.0229 11.1528 22.085 11.7334 23.6064 12.7744C24.9277 13.6353 25.7285 14.7363 25.7285 15.6572C25.7285 16.5181 25.1079 17.1587 24.2471 17.1587C23.6865 17.1587 23.2661 16.9385 22.5454 16.2378C21.104 14.8164 19.6025 14.1758 17.8208 14.1758C13.3564 14.1758 10.9941 18.0996 10.9341 25.5869H11.0942C12.0151 23.1445 14.8779 21.4229 18.001 21.4229C23.0859 21.4229 26.6494 25.0864 26.6494 30.3115C26.6494 35.8169 22.8857 39.5605 17.3203 39.5605C13.937 39.5605 11.2344 38.1592 9.59277 35.5767C8.21143 33.3745 7.53076 30.2715 7.53076 26.1274ZM11.4346 30.4316C11.4346 34.0151 13.917 36.5576 17.4604 36.5576C20.9038 36.5576 23.2061 34.1353 23.2061 30.4517C23.2061 26.8081 20.8838 24.4058 17.3203 24.4058C13.8569 24.4058 11.4346 26.8882 11.4346 30.4316Z" fill="#BC1E24"/>
<path d="M12.7347 49.0006C15.4518 49.042 16.5069 51.3984 16.8537 52.5094C16.8888 52.6218 17.1122 52.6217 17.1472 52.5093C17.4938 51.3983 18.5482 49.042 21.2653 49.0006C24.8229 48.9462 27.4995 52.9292 25.0587 56.9289C22.8832 60.4939 17.0821 67 17 67C16.9165 67 11.1169 60.4943 8.94127 56.9289C6.50053 52.9291 9.17705 48.9462 12.7347 49.0006Z" fill="#BC1E24"/>
<path d="M17 92.293C14.4609 92.293 12.5762 90.6523 12.3613 88.5137L12.3516 88.416H13.6309L13.6406 88.4844C13.8359 89.9395 15.2227 91.1016 17.0195 91.1016C19.0801 91.1016 20.5547 89.6172 20.5547 87.5469V87.5273C20.5547 85.4766 19.0801 83.9727 17.0781 83.9727C15.9746 83.9727 15.0078 84.373 14.3242 85.125C14.1191 85.3301 13.9336 85.5742 13.7773 85.8477H12.5957L13.377 77.9082H21.0332V79.1094H14.4414L13.875 84.4316H14.002C14.6758 83.4062 15.9062 82.8105 17.2832 82.8105C19.9199 82.8105 21.8633 84.793 21.8633 87.498V87.5176C21.8633 90.3105 19.8223 92.293 17 92.293Z" fill="#BC1E24"/>
</g>
<defs>
<clipPath id="clip0_3_6124">
<rect width="203" height="288" rx="10" fill="white"/>
</clipPath>
<clipPath id="clip1_3_6124">
<rect width="44" height="244" fill="white" transform="translate(123.5 22)"/>
</clipPath>
<clipPath id="clip2_3_6124">
<rect width="44" height="244" fill="white" transform="translate(35.5 22)"/>
</clipPath>
</defs>
</svg>
