<svg width="203" height="288" viewBox="0 0 203 288" fill="none" xmlns="http://www.w3.org/2000/svg">
<g clip-path="url(#clip0_5_505)">
<rect width="203" height="288" rx="10" fill="white"/>
<path d="M195.469 261.873C195.469 271.502 191.766 276.847 185.119 276.847C182.977 276.847 180.915 276.267 179.394 275.226C178.072 274.365 177.271 273.264 177.271 272.343C177.271 271.482 177.892 270.841 178.753 270.841C179.313 270.841 179.734 271.062 180.455 271.762C181.896 273.184 183.397 273.824 185.179 273.824C189.644 273.824 192.006 269.9 192.066 262.413L191.906 262.413C190.985 264.855 188.122 266.577 184.999 266.577C179.914 266.577 176.351 262.914 176.351 257.688C176.351 252.183 180.114 248.439 185.68 248.439C189.063 248.439 191.766 249.841 193.407 252.423C194.789 254.625 195.469 257.729 195.469 261.873ZM191.565 257.568C191.565 253.985 189.083 251.442 185.54 251.442C182.096 251.442 179.794 253.865 179.794 257.548C179.794 261.192 182.116 263.594 185.68 263.594C189.143 263.594 191.565 261.112 191.565 257.568Z" fill="black"/>
<path d="M187.762 220C187.973 220 188.143 220.164 188.143 220.365C188.143 220.795 187.066 223.617 186.806 225.517C186.774 225.745 187.064 225.836 187.195 225.65C187.823 224.76 188.456 223.808 190.178 223.785C193.385 223.743 195.233 226.79 194.224 229.563C193.729 230.922 186.925 240 186 240C185.075 240 178.271 230.922 177.776 229.563C176.767 226.79 178.615 223.743 181.823 223.785C183.544 223.808 184.177 224.76 184.805 225.65C184.936 225.836 185.226 225.745 185.194 225.517C184.934 223.617 183.857 220.795 183.857 220.365C183.857 220.164 184.027 220 184.238 220L187.762 220Z" fill="#211C1D"/>
<path d="M186 195.707C188.539 195.707 190.424 197.348 190.639 199.486L190.648 199.584L189.369 199.584L189.359 199.516C189.164 198.061 187.777 196.898 185.98 196.898C183.92 196.898 182.445 198.383 182.445 200.453L182.445 200.473C182.445 202.523 183.92 204.027 185.922 204.027C187.025 204.027 187.992 203.627 188.676 202.875C188.881 202.67 189.066 202.426 189.223 202.152L190.404 202.152L189.623 210.092L181.967 210.092L181.967 208.891L188.559 208.891L189.125 203.568L188.998 203.568C188.324 204.594 187.094 205.189 185.717 205.189C183.08 205.189 181.137 203.207 181.137 200.502L181.137 200.482C181.137 197.689 183.178 195.707 186 195.707Z" fill="black"/>
<g clip-path="url(#clip1_5_505)">
<path d="M141.353 72C140.859 72 140.458 71.6076 140.458 71.1235C140.458 70.0926 142.992 63.318 143.604 58.7596C143.678 58.2115 142.996 57.993 142.688 58.4389C141.211 60.5759 139.721 62.8613 135.671 62.9157C128.123 63.0172 123.776 55.7041 126.15 49.0496C127.314 45.7867 143.325 24 145.5 24C147.675 24 163.686 45.7867 164.85 49.0496C167.224 55.7041 162.877 63.0172 155.329 62.9157C151.279 62.8613 149.789 60.5759 148.312 58.4389C148.004 57.993 147.322 58.2115 147.396 58.7596C148.008 63.318 150.542 70.0926 150.542 71.1235C150.542 71.6076 150.141 72 149.647 72H141.353Z" fill="#211C1D"/>
<path d="M141.353 168C140.859 168 140.458 167.608 140.458 167.123C140.458 166.093 142.992 159.318 143.604 154.76C143.678 154.211 142.996 153.993 142.688 154.439C141.211 156.576 139.721 158.861 135.671 158.916C128.123 159.017 123.776 151.704 126.15 145.05C127.314 141.787 143.325 120 145.5 120C147.675 120 163.686 141.787 164.85 145.05C167.224 151.704 162.877 159.017 155.329 158.916C151.279 158.861 149.789 156.576 148.312 154.439C148.004 153.993 147.322 154.211 147.396 154.76C148.008 159.318 150.542 166.093 150.542 167.123C150.542 167.608 150.141 168 149.647 168H141.353Z" fill="#211C1D"/>
<path d="M141.353 264C140.859 264 140.458 263.608 140.458 263.123C140.458 262.093 142.992 255.318 143.604 250.76C143.678 250.211 142.996 249.993 142.688 250.439C141.211 252.576 139.721 254.861 135.671 254.916C128.123 255.017 123.776 247.704 126.15 241.05C127.314 237.787 143.325 216 145.5 216C147.675 216 163.686 237.787 164.85 241.05C167.224 247.704 162.877 255.017 155.329 254.916C151.279 254.861 149.789 252.576 148.312 250.439C148.004 249.993 147.322 250.211 147.396 250.76C148.008 255.318 150.542 262.093 150.542 263.123C150.542 263.608 150.141 264 149.647 264H141.353Z" fill="#211C1D"/>
</g>
<g clip-path="url(#clip2_5_505)">
<path d="M53.353 72C52.8588 72 52.4582 71.6076 52.4582 71.1235C52.4582 70.0926 54.9923 63.318 55.6043 58.7596C55.6779 58.2115 54.9958 57.993 54.6876 58.4389C53.2105 60.5759 51.7215 62.8613 47.6706 62.9157C40.1234 63.0172 35.7757 55.7041 38.1497 49.0496C39.3137 45.7867 55.3245 24 57.5 24C59.6754 24 75.6864 45.7867 76.8503 49.0496C79.2243 55.7041 74.8766 63.0172 67.3294 62.9157C63.2785 62.8613 61.7895 60.5759 60.3124 58.4389C60.0042 57.993 59.3221 58.2115 59.3957 58.7596C60.0077 63.318 62.5418 70.0926 62.5418 71.1235C62.5418 71.6076 62.1412 72 61.647 72H53.353Z" fill="#211C1D"/>
<path d="M53.353 168C52.8588 168 52.4582 167.608 52.4582 167.123C52.4582 166.093 54.9923 159.318 55.6043 154.76C55.6779 154.211 54.9958 153.993 54.6876 154.439C53.2105 156.576 51.7215 158.861 47.6706 158.916C40.1234 159.017 35.7757 151.704 38.1497 145.05C39.3137 141.787 55.3245 120 57.5 120C59.6754 120 75.6864 141.787 76.8503 145.05C79.2243 151.704 74.8766 159.017 67.3294 158.916C63.2785 158.861 61.7895 156.576 60.3124 154.439C60.0042 153.993 59.3221 154.211 59.3957 154.76C60.0077 159.318 62.5418 166.093 62.5418 167.123C62.5418 167.608 62.1412 168 61.647 168H53.353Z" fill="#211C1D"/>
<path d="M53.353 264C52.8588 264 52.4582 263.608 52.4582 263.123C52.4582 262.093 54.9923 255.318 55.6043 250.76C55.6779 250.211 54.9958 249.993 54.6876 250.439C53.2105 252.576 51.7215 254.861 47.6706 254.916C40.1234 255.017 35.7757 247.704 38.1497 241.05C39.3137 237.787 55.3245 216 57.5 216C59.6754 216 75.6864 237.787 76.8503 241.05C79.2243 247.704 74.8766 255.017 67.3294 254.916C63.2785 254.861 61.7895 252.576 60.3124 250.439C60.0042 249.993 59.3221 250.211 59.3957 250.76C60.0077 255.318 62.5418 262.093 62.5418 263.123C62.5418 263.608 62.1412 264 61.647 264H53.353Z" fill="#211C1D"/>
</g>
<path d="M7.53076 26.1274C7.53076 16.498 11.2344 11.1528 17.8809 11.1528C20.0229 11.1528 22.085 11.7334 23.6064 12.7744C24.9277 13.6353 25.7285 14.7363 25.7285 15.6572C25.7285 16.5181 25.1079 17.1587 24.2471 17.1587C23.6865 17.1587 23.2661 16.9385 22.5454 16.2378C21.104 14.8164 19.6025 14.1758 17.8208 14.1758C13.3564 14.1758 10.9941 18.0996 10.9341 25.5869H11.0942C12.0151 23.1445 14.8779 21.4229 18.001 21.4229C23.0859 21.4229 26.6494 25.0864 26.6494 30.3115C26.6494 35.8169 22.8857 39.5605 17.3203 39.5605C13.937 39.5605 11.2344 38.1592 9.59277 35.5767C8.21143 33.3745 7.53076 30.2715 7.53076 26.1274ZM11.4346 30.4316C11.4346 34.0151 13.917 36.5576 17.4604 36.5576C20.9038 36.5576 23.2061 34.1353 23.2061 30.4517C23.2061 26.8081 20.8838 24.4058 17.3203 24.4058C13.8569 24.4058 11.4346 26.8882 11.4346 30.4316Z" fill="black"/>
<path d="M15.2375 68C15.0275 68 14.8572 67.8365 14.8572 67.6348C14.8572 67.2053 15.9342 64.3825 16.1943 62.4832C16.2256 62.2548 15.9357 62.1637 15.8047 62.3495C15.177 63.2399 14.5441 64.1922 12.8225 64.2149C9.61496 64.2572 7.76719 61.2101 8.77613 58.4373C9.2708 57.0778 16.0754 48 17 48C17.9245 48 24.7292 57.0778 25.2239 58.4373C26.2328 61.2101 24.385 64.2572 21.1775 64.2149C19.4559 64.1922 18.823 63.2399 18.1953 62.3495C18.0643 62.1637 17.7744 62.2548 17.8057 62.4832C18.0658 64.3825 19.1428 67.2053 19.1428 67.6348C19.1428 67.8365 18.9725 68 18.7625 68H15.2375Z" fill="#211C1D"/>
<path d="M17 92.293C14.4609 92.293 12.5762 90.6523 12.3613 88.5137L12.3516 88.416H13.6309L13.6406 88.4844C13.8359 89.9395 15.2227 91.1016 17.0195 91.1016C19.0801 91.1016 20.5547 89.6172 20.5547 87.5469V87.5273C20.5547 85.4766 19.0801 83.9727 17.0781 83.9727C15.9746 83.9727 15.0078 84.373 14.3242 85.125C14.1191 85.3301 13.9336 85.5742 13.7773 85.8477H12.5957L13.377 77.9082H21.0332V79.1094H14.4414L13.875 84.4316H14.002C14.6758 83.4062 15.9062 82.8105 17.2832 82.8105C19.9199 82.8105 21.8633 84.793 21.8633 87.498V87.5176C21.8633 90.3105 19.8223 92.293 17 92.293Z" fill="black"/>
</g>
<defs>
<clipPath id="clip0_5_505">
<rect width="203" height="288" rx="10" fill="white"/>
</clipPath>
<clipPath id="clip1_5_505">
<rect width="44" height="244" fill="white" transform="translate(123.5 22)"/>
</clipPath>
<clipPath id="clip2_5_505">
<rect width="44" height="244" fill="white" transform="translate(35.5 22)"/>
</clipPath>
</defs>
</svg>
