<svg width="203" height="288" viewBox="0 0 203 288" fill="none" xmlns="http://www.w3.org/2000/svg">
<g clip-path="url(#clip0_5_1851)">
<rect width="203" height="288" rx="10" fill="white"/>
<path d="M195.521 248.8C196.602 248.8 197.263 249.541 197.263 250.722L197.263 274.605C197.263 275.786 196.602 276.527 195.521 276.527C194.44 276.527 193.76 275.786 193.76 274.605L193.76 250.722C193.76 249.541 194.44 248.8 195.521 248.8ZM192.755 262.133L192.755 263.134C192.755 271.422 189.211 276.907 183.025 276.907C176.839 276.907 173.316 271.422 173.316 263.134L173.316 262.133C173.316 253.865 176.859 248.419 183.045 248.419C189.211 248.419 192.755 253.845 192.755 262.133ZM189.251 263.114L189.251 262.173C189.251 255.506 186.869 251.442 183.025 251.442C179.181 251.442 176.799 255.506 176.799 262.173L176.799 263.114C176.799 269.78 179.201 273.864 183.045 273.864C186.869 273.864 189.251 269.78 189.251 263.114Z" fill="black"/>
<path d="M187.968 220C188.185 220 188.361 220.174 188.361 220.389C188.361 221.109 187.068 223.799 186.81 225.904C186.782 226.131 187.114 226.215 187.236 226.021C187.902 224.964 188.81 223.485 191.022 223.537L191.065 223.535C191.093 223.534 191.122 223.533 191.151 223.533C193.553 223.533 195.5 225.646 195.5 228.252C195.5 230.858 193.553 232.97 191.151 232.97C190.682 232.97 190.23 232.889 189.807 232.74C189.708 232.705 189.608 232.819 189.657 232.91C190.032 233.607 190.247 234.418 190.247 235.283C190.247 237.852 188.375 240 186 240C183.625 240 181.753 237.852 181.753 235.283C181.753 234.418 181.968 233.607 182.343 232.91C182.392 232.819 182.292 232.705 182.193 232.74C181.77 232.889 181.318 232.97 180.849 232.97C178.447 232.97 176.5 230.858 176.5 228.252C176.5 225.646 178.447 223.533 180.849 223.533C180.878 223.533 180.907 223.534 180.935 223.535L180.978 223.537C183.19 223.485 184.098 224.964 184.764 226.021C184.886 226.215 185.218 226.131 185.19 225.904C184.932 223.799 183.639 221.109 183.639 220.389C183.639 220.174 183.815 220 184.032 220L187.968 220Z" fill="#211C1D"/>
<path d="M191.934 196L191.934 210.092L190.596 210.092L190.596 196L191.934 196ZM184.529 195.707C187.625 195.707 189.48 198.539 189.48 203.031L189.48 203.061C189.48 207.562 187.625 210.385 184.529 210.385C181.434 210.385 179.559 207.562 179.559 203.061L179.559 203.031C179.559 198.529 181.434 195.707 184.529 195.707ZM184.529 196.879C182.254 196.879 180.896 199.252 180.896 203.031L180.896 203.061C180.896 206.85 182.254 209.203 184.529 209.203C186.795 209.203 188.143 206.84 188.143 203.061L188.143 203.031C188.143 199.252 186.795 196.879 184.529 196.879Z" fill="black"/>
<g clip-path="url(#clip1_5_1851)">
<path d="M140.84 72C140.325 72 139.908 71.5825 139.908 71.0675C139.908 69.3389 142.97 62.8831 143.582 57.8301C143.648 57.2867 142.862 57.0849 142.573 57.5498C140.996 60.0863 138.846 63.6359 133.607 63.512L133.505 63.5152C133.437 63.5176 133.369 63.5199 133.301 63.5199C127.612 63.5199 123 58.4499 123 52.1959C123 45.9419 127.612 40.8719 133.301 40.8719C134.411 40.8719 135.481 41.066 136.483 41.4239C136.717 41.5074 136.955 41.2346 136.839 41.0153C135.951 39.3424 135.442 37.3975 135.442 35.3209C135.442 29.156 139.875 24 145.5 24C151.125 24 155.558 29.156 155.558 35.3209C155.558 37.3975 155.049 39.3424 154.161 41.0153C154.045 41.2346 154.283 41.5074 154.517 41.4239C155.519 41.066 156.589 40.8719 157.699 40.8719C163.388 40.8719 168 45.9419 168 52.1959C168 58.4499 163.388 63.5199 157.699 63.5199C157.631 63.5199 157.563 63.5176 157.495 63.5152L157.393 63.512C152.154 63.6359 150.004 60.0863 148.427 57.5498C148.138 57.0849 147.352 57.2867 147.418 57.8301C148.03 62.883 151.092 69.339 151.092 71.0675C151.092 71.5825 150.675 72 150.16 72H140.84Z" fill="#211C1D"/>
<path d="M140.84 136C140.325 136 139.908 135.582 139.908 135.067C139.908 133.339 142.97 126.883 143.582 121.83C143.648 121.287 142.862 121.085 142.573 121.55C140.996 124.086 138.846 127.636 133.607 127.512L133.505 127.515C133.437 127.518 133.369 127.52 133.301 127.52C127.612 127.52 123 122.45 123 116.196C123 109.942 127.612 104.872 133.301 104.872C134.411 104.872 135.481 105.066 136.483 105.424C136.717 105.507 136.955 105.235 136.839 105.015C135.951 103.342 135.442 101.397 135.442 99.3209C135.442 93.156 139.875 88 145.5 88C151.125 88 155.558 93.156 155.558 99.3209C155.558 101.397 155.049 103.342 154.161 105.015C154.045 105.235 154.283 105.507 154.517 105.424C155.519 105.066 156.589 104.872 157.699 104.872C163.388 104.872 168 109.942 168 116.196C168 122.45 163.388 127.52 157.699 127.52C157.631 127.52 157.563 127.518 157.495 127.515L157.393 127.512C152.154 127.636 150.004 124.086 148.427 121.55C148.138 121.085 147.352 121.287 147.418 121.83C148.03 126.883 151.092 133.339 151.092 135.067C151.092 135.582 150.675 136 150.16 136H140.84Z" fill="#211C1D"/>
<path d="M140.84 200C140.325 200 139.908 199.582 139.908 199.067C139.908 197.339 142.97 190.883 143.582 185.83C143.648 185.287 142.862 185.085 142.573 185.55C140.996 188.086 138.846 191.636 133.607 191.512L133.505 191.515C133.437 191.518 133.369 191.52 133.301 191.52C127.612 191.52 123 186.45 123 180.196C123 173.942 127.612 168.872 133.301 168.872C134.411 168.872 135.481 169.066 136.483 169.424C136.717 169.507 136.955 169.235 136.839 169.015C135.951 167.342 135.442 165.397 135.442 163.321C135.442 157.156 139.875 152 145.5 152C151.125 152 155.558 157.156 155.558 163.321C155.558 165.397 155.049 167.342 154.161 169.015C154.045 169.235 154.283 169.507 154.517 169.424C155.519 169.066 156.589 168.872 157.699 168.872C163.388 168.872 168 173.942 168 180.196C168 186.45 163.388 191.52 157.699 191.52C157.631 191.52 157.563 191.518 157.495 191.515L157.393 191.512C152.154 191.636 150.004 188.086 148.427 185.55C148.138 185.085 147.352 185.287 147.418 185.83C148.03 190.883 151.092 197.339 151.092 199.067C151.092 199.582 150.675 200 150.16 200H140.84Z" fill="#211C1D"/>
<path d="M140.84 264C140.325 264 139.908 263.582 139.908 263.067C139.908 261.339 142.97 254.883 143.582 249.83C143.648 249.287 142.862 249.085 142.573 249.55C140.996 252.086 138.846 255.636 133.607 255.512L133.505 255.515C133.437 255.518 133.369 255.52 133.301 255.52C127.612 255.52 123 250.45 123 244.196C123 237.942 127.612 232.872 133.301 232.872C134.411 232.872 135.481 233.066 136.483 233.424C136.717 233.507 136.955 233.235 136.839 233.015C135.951 231.342 135.442 229.397 135.442 227.321C135.442 221.156 139.875 216 145.5 216C151.125 216 155.558 221.156 155.558 227.321C155.558 229.397 155.049 231.342 154.161 233.015C154.045 233.235 154.283 233.507 154.517 233.424C155.519 233.066 156.589 232.872 157.699 232.872C163.388 232.872 168 237.942 168 244.196C168 250.45 163.388 255.52 157.699 255.52C157.631 255.52 157.563 255.518 157.495 255.515L157.393 255.512C152.154 255.636 150.004 252.086 148.427 249.55C148.138 249.085 147.352 249.287 147.418 249.83C148.03 254.883 151.092 261.339 151.092 263.067C151.092 263.582 150.675 264 150.16 264H140.84Z" fill="#211C1D"/>
</g>
<g clip-path="url(#clip2_5_1851)">
<path d="M97.34 104.5C96.825 104.5 96.4075 104.082 96.4075 103.567C96.4075 101.839 99.4696 95.3831 100.082 90.3301C100.148 89.7867 99.3615 89.5849 99.0725 90.0498C97.4958 92.5863 95.3456 96.1359 90.1068 96.012L90.0051 96.0152C89.9372 96.0176 89.8693 96.0199 89.8008 96.0199C84.1117 96.0199 79.5 90.9499 79.5 84.6959C79.5 78.4419 84.1117 73.3719 89.8008 73.3719C90.9114 73.3719 91.9808 73.566 92.983 73.9239C93.2167 74.0074 93.4551 73.7346 93.3388 73.5153C92.451 71.8424 91.9416 69.8975 91.9416 67.8209C91.9416 61.656 96.375 56.5 102 56.5C107.625 56.5 112.058 61.656 112.058 67.8209C112.058 69.8975 111.549 71.8424 110.661 73.5153C110.545 73.7346 110.783 74.0074 111.017 73.9239C112.019 73.566 113.089 73.3719 114.199 73.3719C119.888 73.3719 124.5 78.4419 124.5 84.6959C124.5 90.9499 119.888 96.0199 114.199 96.0199C114.131 96.0199 114.063 96.0176 113.995 96.0152L113.893 96.012C108.654 96.1359 106.504 92.5863 104.927 90.0498C104.638 89.5849 103.852 89.7867 103.918 90.3301C104.53 95.383 107.592 101.839 107.592 103.567C107.592 104.082 107.175 104.5 106.66 104.5H97.34Z" fill="#211C1D"/>
<path d="M97.34 168C96.825 168 96.4075 167.582 96.4075 167.067C96.4075 165.339 99.4696 158.883 100.082 153.83C100.148 153.287 99.3615 153.085 99.0725 153.55C97.4958 156.086 95.3456 159.636 90.1068 159.512L90.0051 159.515C89.9372 159.518 89.8693 159.52 89.8008 159.52C84.1117 159.52 79.5 154.45 79.5 148.196C79.5 141.942 84.1117 136.872 89.8008 136.872C90.9114 136.872 91.9808 137.066 92.983 137.424C93.2167 137.507 93.4551 137.235 93.3388 137.015C92.451 135.342 91.9416 133.397 91.9416 131.321C91.9416 125.156 96.375 120 102 120C107.625 120 112.058 125.156 112.058 131.321C112.058 133.397 111.549 135.342 110.661 137.015C110.545 137.235 110.783 137.507 111.017 137.424C112.019 137.066 113.089 136.872 114.199 136.872C119.888 136.872 124.5 141.942 124.5 148.196C124.5 154.45 119.888 159.52 114.199 159.52C114.131 159.52 114.063 159.518 113.995 159.515L113.893 159.512C108.654 159.636 106.504 156.086 104.927 153.55C104.638 153.085 103.852 153.287 103.918 153.83C104.53 158.883 107.592 165.339 107.592 167.067C107.592 167.582 107.175 168 106.66 168H97.34Z" fill="#211C1D"/>
<path d="M97.34 231.5C96.825 231.5 96.4075 231.082 96.4075 230.567C96.4075 228.839 99.4696 222.383 100.082 217.33C100.148 216.787 99.3615 216.585 99.0725 217.05C97.4958 219.586 95.3456 223.136 90.1068 223.012L90.0051 223.015C89.9372 223.018 89.8693 223.02 89.8008 223.02C84.1117 223.02 79.5 217.95 79.5 211.696C79.5 205.442 84.1117 200.372 89.8008 200.372C90.9114 200.372 91.9808 200.566 92.983 200.924C93.2167 201.007 93.4551 200.735 93.3388 200.515C92.451 198.842 91.9416 196.897 91.9416 194.821C91.9416 188.656 96.375 183.5 102 183.5C107.625 183.5 112.058 188.656 112.058 194.821C112.058 196.897 111.549 198.842 110.661 200.515C110.545 200.735 110.783 201.007 111.017 200.924C112.019 200.566 113.089 200.372 114.199 200.372C119.888 200.372 124.5 205.442 124.5 211.696C124.5 217.95 119.888 223.02 114.199 223.02C114.131 223.02 114.063 223.018 113.995 223.015L113.893 223.012C108.654 223.136 106.504 219.586 104.927 217.05C104.638 216.585 103.852 216.787 103.918 217.33C104.53 222.383 107.592 228.839 107.592 230.567C107.592 231.082 107.175 231.5 106.66 231.5H97.34Z" fill="#211C1D"/>
</g>
<g clip-path="url(#clip3_5_1851)">
<path d="M52.84 72C52.325 72 51.9075 71.5825 51.9075 71.0675C51.9075 69.3389 54.9696 62.8831 55.5817 57.8301C55.6476 57.2867 54.8615 57.0849 54.5725 57.5498C52.9958 60.0863 50.8456 63.6359 45.6068 63.512L45.5051 63.5152C45.4372 63.5176 45.3693 63.5199 45.3008 63.5199C39.6117 63.5199 35 58.4499 35 52.1959C35 45.9419 39.6117 40.8719 45.3008 40.8719C46.4114 40.8719 47.4808 41.066 48.483 41.4239C48.7167 41.5074 48.9551 41.2346 48.8388 41.0153C47.951 39.3424 47.4416 37.3975 47.4416 35.3209C47.4416 29.156 51.875 24 57.5 24C63.125 24 67.5584 29.156 67.5584 35.3209C67.5584 37.3975 67.049 39.3424 66.1612 41.0153C66.0449 41.2346 66.2833 41.5074 66.517 41.4239C67.5192 41.066 68.5886 40.8719 69.6992 40.8719C75.3883 40.8719 80 45.9419 80 52.1959C80 58.4499 75.3883 63.5199 69.6992 63.5199C69.6307 63.5199 69.5628 63.5176 69.4949 63.5152L69.3932 63.512C64.1544 63.6359 62.0042 60.0863 60.4275 57.5498C60.1385 57.0849 59.3524 57.2867 59.4183 57.8301C60.0304 62.883 63.0925 69.339 63.0925 71.0675C63.0925 71.5825 62.675 72 62.16 72H52.84Z" fill="#211C1D"/>
<path d="M52.84 136C52.325 136 51.9075 135.582 51.9075 135.067C51.9075 133.339 54.9696 126.883 55.5817 121.83C55.6476 121.287 54.8615 121.085 54.5725 121.55C52.9958 124.086 50.8456 127.636 45.6068 127.512L45.5051 127.515C45.4372 127.518 45.3693 127.52 45.3008 127.52C39.6117 127.52 35 122.45 35 116.196C35 109.942 39.6117 104.872 45.3008 104.872C46.4114 104.872 47.4808 105.066 48.483 105.424C48.7167 105.507 48.9551 105.235 48.8388 105.015C47.951 103.342 47.4416 101.397 47.4416 99.3209C47.4416 93.156 51.875 88 57.5 88C63.125 88 67.5584 93.156 67.5584 99.3209C67.5584 101.397 67.049 103.342 66.1612 105.015C66.0449 105.235 66.2833 105.507 66.517 105.424C67.5192 105.066 68.5886 104.872 69.6992 104.872C75.3883 104.872 80 109.942 80 116.196C80 122.45 75.3883 127.52 69.6992 127.52C69.6307 127.52 69.5628 127.518 69.4949 127.515L69.3932 127.512C64.1544 127.636 62.0042 124.086 60.4275 121.55C60.1385 121.085 59.3524 121.287 59.4183 121.83C60.0304 126.883 63.0925 133.339 63.0925 135.067C63.0925 135.582 62.675 136 62.16 136H52.84Z" fill="#211C1D"/>
<path d="M52.84 200C52.325 200 51.9075 199.582 51.9075 199.067C51.9075 197.339 54.9696 190.883 55.5817 185.83C55.6476 185.287 54.8615 185.085 54.5725 185.55C52.9958 188.086 50.8456 191.636 45.6068 191.512L45.5051 191.515C45.4372 191.518 45.3693 191.52 45.3008 191.52C39.6117 191.52 35 186.45 35 180.196C35 173.942 39.6117 168.872 45.3008 168.872C46.4114 168.872 47.4808 169.066 48.483 169.424C48.7167 169.507 48.9551 169.235 48.8388 169.015C47.951 167.342 47.4416 165.397 47.4416 163.321C47.4416 157.156 51.875 152 57.5 152C63.125 152 67.5584 157.156 67.5584 163.321C67.5584 165.397 67.049 167.342 66.1612 169.015C66.0449 169.235 66.2833 169.507 66.517 169.424C67.5192 169.066 68.5886 168.872 69.6992 168.872C75.3883 168.872 80 173.942 80 180.196C80 186.45 75.3883 191.52 69.6992 191.52C69.6307 191.52 69.5628 191.518 69.4949 191.515L69.3932 191.512C64.1544 191.636 62.0042 188.086 60.4275 185.55C60.1385 185.085 59.3524 185.287 59.4183 185.83C60.0304 190.883 63.0925 197.339 63.0925 199.067C63.0925 199.582 62.675 200 62.16 200H52.84Z" fill="#211C1D"/>
<path d="M52.84 264C52.325 264 51.9075 263.582 51.9075 263.067C51.9075 261.339 54.9696 254.883 55.5817 249.83C55.6476 249.287 54.8615 249.085 54.5725 249.55C52.9958 252.086 50.8456 255.636 45.6068 255.512L45.5051 255.515C45.4372 255.518 45.3693 255.52 45.3008 255.52C39.6117 255.52 35 250.45 35 244.196C35 237.942 39.6117 232.872 45.3008 232.872C46.4114 232.872 47.4808 233.066 48.483 233.424C48.7167 233.507 48.9551 233.235 48.8388 233.015C47.951 231.342 47.4416 229.397 47.4416 227.321C47.4416 221.156 51.875 216 57.5 216C63.125 216 67.5584 221.156 67.5584 227.321C67.5584 229.397 67.049 231.342 66.1612 233.015C66.0449 233.235 66.2833 233.507 66.517 233.424C67.5192 233.066 68.5886 232.872 69.6992 232.872C75.3883 232.872 80 237.942 80 244.196C80 250.45 75.3883 255.52 69.6992 255.52C69.6307 255.52 69.5628 255.518 69.4949 255.515L69.3932 255.512C64.1544 255.636 62.0042 252.086 60.4275 249.55C60.1385 249.085 59.3524 249.287 59.4183 249.83C60.0304 254.883 63.0925 261.339 63.0925 263.067C63.0925 263.582 62.675 264 62.16 264H52.84Z" fill="#211C1D"/>
</g>
<path d="M7.47871 39.2002C6.39766 39.2002 5.73701 38.4595 5.73701 37.2783V13.395C5.73701 12.2139 6.39766 11.4731 7.47871 11.4731C8.55977 11.4731 9.24043 12.2139 9.24043 13.395V37.2783C9.24043 38.4595 8.55977 39.2002 7.47871 39.2002ZM10.2454 25.8672V24.8662C10.2454 16.5781 13.7889 11.0928 19.9749 11.0928C26.1609 11.0928 29.6844 16.5781 29.6844 24.8662V25.8672C29.6844 34.1353 26.1409 39.5806 19.9549 39.5806C13.7889 39.5806 10.2454 34.1553 10.2454 25.8672ZM13.7488 24.8862V25.8271C13.7488 32.4937 16.1312 36.5576 19.9749 36.5576C23.8187 36.5576 26.201 32.4937 26.201 25.8271V24.8862C26.201 18.2197 23.7986 14.1357 19.9549 14.1357C16.1312 14.1357 13.7488 18.2197 13.7488 24.8862Z" fill="black"/>
<path d="M15.0324 68C14.815 68 14.6387 67.826 14.6387 67.6115C14.6387 66.8912 15.9316 64.2013 16.1901 62.0959C16.2179 61.8695 15.886 61.7854 15.7639 61.9791C15.0982 63.0359 14.1904 64.515 11.9784 64.4633L11.9355 64.4647C11.9068 64.4656 11.8781 64.4666 11.8492 64.4666C9.44715 64.4666 7.5 62.3541 7.5 59.7483C7.5 57.1425 9.44715 55.03 11.8492 55.03C12.3182 55.03 12.7697 55.1108 13.1928 55.26C13.2915 55.2948 13.3921 55.1811 13.3431 55.0897C12.9682 54.3927 12.7531 53.5823 12.7531 52.717C12.7531 50.1483 14.625 48 17 48C19.375 48 21.2469 50.1483 21.2469 52.717C21.2469 53.5823 21.0318 54.3927 20.6569 55.0897C20.6079 55.1811 20.7085 55.2948 20.8072 55.26C21.2303 55.1108 21.6818 55.03 22.1508 55.03C24.5529 55.03 26.5 57.1425 26.5 59.7483C26.5 62.3541 24.5529 64.4666 22.1508 64.4666C22.1219 64.4666 22.0932 64.4656 22.0645 64.4647L22.0216 64.4633C19.8096 64.515 18.9018 63.0359 18.2361 61.9791C18.114 61.7854 17.7821 61.8695 17.8099 62.0959C18.0684 64.2013 19.3613 66.8913 19.3613 67.6114C19.3613 67.826 19.185 68 18.9676 68H15.0324Z" fill="#211C1D"/>
<path d="M11.0664 92V77.9082H12.4043V92H11.0664ZM18.4707 92.293C15.375 92.293 13.5195 89.4609 13.5195 84.9688V84.9395C13.5195 80.4375 15.375 77.6152 18.4707 77.6152C21.5664 77.6152 23.4414 80.4375 23.4414 84.9395V84.9688C23.4414 89.4707 21.5664 92.293 18.4707 92.293ZM18.4707 91.1211C20.7461 91.1211 22.1035 88.748 22.1035 84.9688V84.9395C22.1035 81.1504 20.7461 78.7969 18.4707 78.7969C16.2051 78.7969 14.8574 81.1602 14.8574 84.9395V84.9688C14.8574 88.748 16.2051 91.1211 18.4707 91.1211Z" fill="black"/>
</g>
<defs>
<clipPath id="clip0_5_1851">
<rect width="203" height="288" rx="10" fill="white"/>
</clipPath>
<clipPath id="clip1_5_1851">
<rect width="44" height="244" fill="white" transform="translate(123.5 22)"/>
</clipPath>
<clipPath id="clip2_5_1851">
<rect width="44" height="179" fill="white" transform="translate(80 54.5)"/>
</clipPath>
<clipPath id="clip3_5_1851">
<rect width="44" height="244" fill="white" transform="translate(35.5 22)"/>
</clipPath>
</defs>
</svg>
