<svg width="203" height="288" viewBox="0 0 203 288" fill="none" xmlns="http://www.w3.org/2000/svg">
<g clip-path="url(#clip0_5_2456)">
<rect width="203" height="288" rx="10" fill="white"/>
<path d="M195.521 248.8C196.602 248.8 197.263 249.541 197.263 250.722L197.263 274.605C197.263 275.786 196.602 276.527 195.521 276.527C194.44 276.527 193.76 275.786 193.76 274.605L193.76 250.722C193.76 249.541 194.44 248.8 195.521 248.8ZM192.755 262.133L192.755 263.134C192.755 271.422 189.211 276.907 183.025 276.907C176.839 276.907 173.316 271.422 173.316 263.134L173.316 262.133C173.316 253.865 176.859 248.419 183.045 248.419C189.211 248.419 192.755 253.845 192.755 262.133ZM189.251 263.114L189.251 262.173C189.251 255.506 186.869 251.442 183.025 251.442C179.181 251.442 176.799 255.506 176.799 262.173L176.799 263.114C176.799 269.78 179.201 273.864 183.045 273.864C186.869 273.864 189.251 269.78 189.251 263.114Z" fill="#BC1E24"/>
<path d="M185.82 239.896C185.896 240.035 186.104 240.035 186.18 239.896C188.474 235.728 190.128 233.522 193.445 230.135C193.518 230.06 193.518 229.94 193.445 229.865C190.128 226.478 188.474 224.272 186.18 220.104C186.104 219.965 185.896 219.965 185.82 220.104C183.526 224.272 181.872 226.478 178.555 229.865C178.482 229.94 178.482 230.06 178.555 230.135C181.872 233.522 183.526 235.728 185.82 239.896Z" fill="#BC1E24"/>
<path d="M191.934 196L191.934 210.092L190.596 210.092L190.596 196L191.934 196ZM184.529 195.707C187.625 195.707 189.48 198.539 189.48 203.031L189.48 203.061C189.48 207.562 187.625 210.385 184.529 210.385C181.434 210.385 179.559 207.562 179.559 203.061L179.559 203.031C179.559 198.529 181.434 195.707 184.529 195.707ZM184.529 196.879C182.254 196.879 180.896 199.252 180.896 203.031L180.896 203.061C180.896 206.85 182.254 209.203 184.529 209.203C186.795 209.203 188.143 206.84 188.143 203.061L188.143 203.031C188.143 199.252 186.795 196.879 184.529 196.879Z" fill="#BC1E24"/>
<g clip-path="url(#clip1_5_2456)">
<path d="M145.95 23.2599C145.759 22.9134 145.241 22.9134 145.05 23.2599C139.316 33.6809 135.181 39.1955 126.888 47.6621C126.704 47.8503 126.704 48.1498 126.888 48.338C135.181 56.8045 139.316 62.3191 145.05 72.7401C145.241 73.0866 145.759 73.0866 145.95 72.7401C151.684 62.3191 155.819 56.8045 164.112 48.338C164.296 48.1498 164.296 47.8503 164.112 47.6621C155.819 39.1955 151.684 33.6809 145.95 23.2599Z" fill="#BC1E24"/>
<path d="M145.95 87.2599C145.759 86.9134 145.241 86.9134 145.05 87.2599C139.316 97.6809 135.181 103.196 126.888 111.662C126.704 111.85 126.704 112.15 126.888 112.338C135.181 120.804 139.316 126.319 145.05 136.74C145.241 137.087 145.759 137.087 145.95 136.74C151.684 126.319 155.819 120.804 164.112 112.338C164.296 112.15 164.296 111.85 164.112 111.662C155.819 103.196 151.684 97.6809 145.95 87.2599Z" fill="#BC1E24"/>
<path d="M145.95 151.26C145.759 150.913 145.241 150.913 145.05 151.26C139.316 161.681 135.181 167.196 126.888 175.662C126.704 175.85 126.704 176.15 126.888 176.338C135.181 184.804 139.316 190.319 145.05 200.74C145.241 201.087 145.759 201.087 145.95 200.74C151.684 190.319 155.819 184.804 164.112 176.338C164.296 176.15 164.296 175.85 164.112 175.662C155.819 167.196 151.684 161.681 145.95 151.26Z" fill="#BC1E24"/>
<path d="M145.95 215.26C145.759 214.913 145.241 214.913 145.05 215.26C139.316 225.681 135.181 231.196 126.888 239.662C126.704 239.85 126.704 240.15 126.888 240.338C135.181 248.804 139.316 254.319 145.05 264.74C145.241 265.087 145.759 265.087 145.95 264.74C151.684 254.319 155.819 248.804 164.112 240.338C164.296 240.15 164.296 239.85 164.112 239.662C155.819 231.196 151.684 225.681 145.95 215.26Z" fill="#BC1E24"/>
</g>
<g clip-path="url(#clip2_5_2456)">
<path d="M102.45 55.7599C102.259 55.4134 101.741 55.4134 101.55 55.7599C95.8158 66.1809 91.6805 71.6955 83.3882 80.1621C83.2039 80.3503 83.2039 80.6498 83.3882 80.838C91.6805 89.3045 95.8158 94.8191 101.55 105.24C101.741 105.587 102.259 105.587 102.45 105.24C108.184 94.8191 112.319 89.3045 120.612 80.838C120.796 80.6498 120.796 80.3503 120.612 80.1621C112.319 71.6955 108.184 66.1809 102.45 55.7599Z" fill="#BC1E24"/>
<path d="M102.45 119.26C102.259 118.913 101.741 118.913 101.55 119.26C95.8158 129.681 91.6805 135.196 83.3882 143.662C83.2039 143.85 83.2039 144.15 83.3882 144.338C91.6805 152.804 95.8158 158.319 101.55 168.74C101.741 169.087 102.259 169.087 102.45 168.74C108.184 158.319 112.319 152.804 120.612 144.338C120.796 144.15 120.796 143.85 120.612 143.662C112.319 135.196 108.184 129.681 102.45 119.26Z" fill="#BC1E24"/>
<path d="M102.45 182.76C102.259 182.413 101.741 182.413 101.55 182.76C95.8158 193.181 91.6805 198.696 83.3882 207.162C83.2039 207.35 83.2039 207.65 83.3882 207.838C91.6805 216.304 95.8158 221.819 101.55 232.24C101.741 232.587 102.259 232.587 102.45 232.24C108.184 221.819 112.319 216.304 120.612 207.838C120.796 207.65 120.796 207.35 120.612 207.162C112.319 198.696 108.184 193.181 102.45 182.76Z" fill="#BC1E24"/>
</g>
<g clip-path="url(#clip3_5_2456)">
<path d="M57.9501 23.2599C57.7594 22.9134 57.2406 22.9134 57.0499 23.2599C51.3158 33.6809 47.1805 39.1955 38.8882 47.6621C38.7039 47.8503 38.7039 48.1498 38.8882 48.338C47.1805 56.8045 51.3158 62.3191 57.0499 72.7401C57.2406 73.0866 57.7594 73.0866 57.9501 72.7401C63.6842 62.3191 67.8195 56.8045 76.1118 48.338C76.2961 48.1498 76.2961 47.8503 76.1118 47.6621C67.8195 39.1955 63.6842 33.6809 57.9501 23.2599Z" fill="#BC1E24"/>
<path d="M57.9501 87.2599C57.7594 86.9134 57.2406 86.9134 57.0499 87.2599C51.3158 97.6809 47.1805 103.196 38.8882 111.662C38.7039 111.85 38.7039 112.15 38.8882 112.338C47.1805 120.804 51.3158 126.319 57.0499 136.74C57.2406 137.087 57.7594 137.087 57.9501 136.74C63.6842 126.319 67.8195 120.804 76.1118 112.338C76.2961 112.15 76.2961 111.85 76.1118 111.662C67.8195 103.196 63.6842 97.6809 57.9501 87.2599Z" fill="#BC1E24"/>
<path d="M57.9501 151.26C57.7594 150.913 57.2406 150.913 57.0499 151.26C51.3158 161.681 47.1805 167.196 38.8882 175.662C38.7039 175.85 38.7039 176.15 38.8882 176.338C47.1805 184.804 51.3158 190.319 57.0499 200.74C57.2406 201.087 57.7594 201.087 57.9501 200.74C63.6842 190.319 67.8195 184.804 76.1118 176.338C76.2961 176.15 76.2961 175.85 76.1118 175.662C67.8195 167.196 63.6842 161.681 57.9501 151.26Z" fill="#BC1E24"/>
<path d="M57.9501 215.26C57.7594 214.913 57.2406 214.913 57.0499 215.26C51.3158 225.681 47.1805 231.196 38.8882 239.662C38.7039 239.85 38.7039 240.15 38.8882 240.338C47.1805 248.804 51.3158 254.319 57.0499 264.74C57.2406 265.087 57.7594 265.087 57.9501 264.74C63.6842 254.319 67.8195 248.804 76.1118 240.338C76.2961 240.15 76.2961 239.85 76.1118 239.662C67.8195 231.196 63.6842 225.681 57.9501 215.26Z" fill="#BC1E24"/>
</g>
<path d="M7.47871 39.2002C6.39766 39.2002 5.73701 38.4595 5.73701 37.2783V13.395C5.73701 12.2139 6.39766 11.4731 7.47871 11.4731C8.55977 11.4731 9.24043 12.2139 9.24043 13.395V37.2783C9.24043 38.4595 8.55977 39.2002 7.47871 39.2002ZM10.2454 25.8672V24.8662C10.2454 16.5781 13.7889 11.0928 19.9749 11.0928C26.1609 11.0928 29.6844 16.5781 29.6844 24.8662V25.8672C29.6844 34.1353 26.1409 39.5806 19.9549 39.5806C13.7889 39.5806 10.2454 34.1553 10.2454 25.8672ZM13.7488 24.8862V25.8271C13.7488 32.4937 16.1312 36.5576 19.9749 36.5576C23.8187 36.5576 26.201 32.4937 26.201 25.8271V24.8862C26.201 18.2197 23.7986 14.1357 19.9549 14.1357C16.1312 14.1357 13.7488 18.2197 13.7488 24.8862Z" fill="#BC1E24"/>
<path d="M17.1801 48.104C17.1038 47.9653 16.8962 47.9653 16.8199 48.104C14.5263 52.2724 12.8722 54.4782 9.55529 57.8648C9.48157 57.9401 9.48157 58.0599 9.55529 58.1352C12.8722 61.5218 14.5263 63.7276 16.8199 67.896C16.8962 68.0347 17.1038 68.0347 17.1801 67.896C19.4737 63.7276 21.1278 61.5218 24.4447 58.1352C24.5184 58.0599 24.5184 57.9401 24.4447 57.8648C21.1278 54.4782 19.4737 52.2724 17.1801 48.104Z" fill="#BC1E24"/>
<path d="M11.0664 92V77.9082H12.4043V92H11.0664ZM18.4707 92.293C15.375 92.293 13.5195 89.4609 13.5195 84.9688V84.9395C13.5195 80.4375 15.375 77.6152 18.4707 77.6152C21.5664 77.6152 23.4414 80.4375 23.4414 84.9395V84.9688C23.4414 89.4707 21.5664 92.293 18.4707 92.293ZM18.4707 91.1211C20.7461 91.1211 22.1035 88.748 22.1035 84.9688V84.9395C22.1035 81.1504 20.7461 78.7969 18.4707 78.7969C16.2051 78.7969 14.8574 81.1602 14.8574 84.9395V84.9688C14.8574 88.748 16.2051 91.1211 18.4707 91.1211Z" fill="#BC1E24"/>
</g>
<defs>
<clipPath id="clip0_5_2456">
<rect width="203" height="288" rx="10" fill="white"/>
</clipPath>
<clipPath id="clip1_5_2456">
<rect width="44" height="244" fill="white" transform="translate(123.5 22)"/>
</clipPath>
<clipPath id="clip2_5_2456">
<rect width="44" height="179" fill="white" transform="translate(80 54.5)"/>
</clipPath>
<clipPath id="clip3_5_2456">
<rect width="44" height="244" fill="white" transform="translate(35.5 22)"/>
</clipPath>
</defs>
</svg>
