<svg width="203" height="288" viewBox="0 0 203 288" fill="none" xmlns="http://www.w3.org/2000/svg">
<g clip-path="url(#clip0_3_6069)">
<rect width="203" height="288" rx="10" fill="white"/>
<path d="M195.521 248.8C196.602 248.8 197.263 249.541 197.263 250.722L197.263 274.605C197.263 275.786 196.602 276.527 195.521 276.527C194.44 276.527 193.76 275.786 193.76 274.605L193.76 250.722C193.76 249.541 194.44 248.8 195.521 248.8ZM192.755 262.133L192.755 263.134C192.755 271.422 189.211 276.907 183.025 276.907C176.839 276.907 173.316 271.422 173.316 263.134L173.316 262.133C173.316 253.865 176.859 248.419 183.045 248.419C189.211 248.419 192.755 253.845 192.755 262.133ZM189.251 263.114L189.251 262.173C189.251 255.506 186.869 251.442 183.025 251.442C179.181 251.442 176.799 255.506 176.799 262.173L176.799 263.114C176.799 269.78 179.201 273.864 183.045 273.864C186.869 273.864 189.251 269.78 189.251 263.114Z" fill="#BC1E24"/>
<path d="M190.265 238.999C187.548 238.958 186.493 236.602 186.146 235.491C186.111 235.378 185.888 235.378 185.853 235.491C185.506 236.602 184.452 238.958 181.735 238.999C178.177 239.054 175.501 235.071 177.941 231.071C180.117 227.506 185.918 221 186 221C186.083 221 191.883 227.506 194.059 231.071C196.499 235.071 193.823 239.054 190.265 238.999Z" fill="#BC1E24"/>
<path d="M191.934 196L191.934 210.092L190.596 210.092L190.596 196L191.934 196ZM184.529 195.707C187.625 195.707 189.48 198.539 189.48 203.031L189.48 203.061C189.48 207.562 187.625 210.385 184.529 210.385C181.434 210.385 179.559 207.562 179.559 203.061L179.559 203.031C179.559 198.529 181.434 195.707 184.529 195.707ZM184.529 196.879C182.254 196.879 180.896 199.252 180.896 203.031L180.896 203.061C180.896 206.85 182.254 209.203 184.529 209.203C186.795 209.203 188.143 206.84 188.143 203.061L188.143 203.031C188.143 199.252 186.795 196.879 184.529 196.879Z" fill="#BC1E24"/>
<g clip-path="url(#clip1_3_6069)">
<path d="M135.221 26.2514C141.769 26.3516 144.312 32.0461 145.148 34.731C145.232 35.0026 145.77 35.0025 145.855 34.7309C146.69 32.0459 149.231 26.3516 155.779 26.2514C164.353 26.1199 170.804 35.7455 164.922 45.4115C159.679 54.0269 145.698 69.75 145.5 69.75C145.299 69.7499 131.322 54.0278 126.079 45.4115C120.196 35.7454 126.647 26.1199 135.221 26.2514Z" fill="#BC1E24"/>
<path d="M135.221 90.2514C141.769 90.3516 144.312 96.0461 145.148 98.731C145.232 99.0026 145.77 99.0025 145.855 98.7309C146.69 96.0459 149.231 90.3516 155.779 90.2514C164.353 90.1199 170.804 99.7455 164.922 109.411C159.679 118.027 145.698 133.75 145.5 133.75C145.299 133.75 131.322 118.028 126.079 109.411C120.196 99.7454 126.647 90.1199 135.221 90.2514Z" fill="#BC1E24"/>
<path d="M135.221 154.251C141.769 154.352 144.312 160.046 145.148 162.731C145.232 163.003 145.77 163.003 145.855 162.731C146.69 160.046 149.231 154.352 155.779 154.251C164.353 154.12 170.804 163.745 164.922 173.411C159.679 182.027 145.698 197.75 145.5 197.75C145.299 197.75 131.322 182.028 126.079 173.411C120.196 163.745 126.647 154.12 135.221 154.251Z" fill="#BC1E24"/>
<path d="M135.221 218.251C141.769 218.352 144.312 224.046 145.148 226.731C145.232 227.003 145.77 227.003 145.855 226.731C146.69 224.046 149.231 218.352 155.779 218.251C164.353 218.12 170.804 227.745 164.922 237.411C159.679 246.027 145.698 261.75 145.5 261.75C145.299 261.75 131.322 246.028 126.079 237.411C120.196 227.745 126.647 218.12 135.221 218.251Z" fill="#BC1E24"/>
</g>
<g clip-path="url(#clip2_3_6069)">
<path d="M91.7207 58.7514C98.2689 58.8516 100.812 64.5461 101.648 67.231C101.732 67.5026 102.27 67.5025 102.355 67.2309C103.19 64.5459 105.731 58.8516 112.279 58.7514C120.853 58.6199 127.304 68.2455 121.422 77.9115C116.179 86.5269 102.198 102.25 102 102.25C101.799 102.25 87.8219 86.5278 82.5785 77.9115C76.6963 68.2454 83.1467 58.6199 91.7207 58.7514Z" fill="#BC1E24"/>
<path d="M91.7207 122.251C98.2689 122.352 100.812 128.046 101.648 130.731C101.732 131.003 102.27 131.003 102.355 130.731C103.19 128.046 105.731 122.352 112.279 122.251C120.853 122.12 127.304 131.745 121.422 141.411C116.179 150.027 102.198 165.75 102 165.75C101.799 165.75 87.8219 150.028 82.5785 141.411C76.6963 131.745 83.1467 122.12 91.7207 122.251Z" fill="#BC1E24"/>
<path d="M91.7207 185.751C98.2689 185.852 100.812 191.546 101.648 194.231C101.732 194.503 102.27 194.503 102.355 194.231C103.19 191.546 105.731 185.852 112.279 185.751C120.853 185.62 127.304 195.245 121.422 204.911C116.179 213.527 102.198 229.25 102 229.25C101.799 229.25 87.8219 213.528 82.5785 204.911C76.6963 195.245 83.1467 185.62 91.7207 185.751Z" fill="#BC1E24"/>
</g>
<g clip-path="url(#clip3_3_6069)">
<path d="M47.2207 26.2514C53.7689 26.3516 56.3116 32.0461 57.1476 34.731C57.2321 35.0026 57.7704 35.0025 57.8549 34.7309C58.6901 32.0459 61.2313 26.3516 67.7794 26.2514C76.3533 26.1199 82.8039 35.7455 76.9216 45.4115C71.6786 54.0269 57.6979 69.75 57.5 69.75C57.2989 69.7499 43.3219 54.0278 38.0785 45.4115C32.1963 35.7454 38.6467 26.1199 47.2207 26.2514Z" fill="#BC1E24"/>
<path d="M47.2207 90.2514C53.7689 90.3516 56.3116 96.0461 57.1476 98.731C57.2321 99.0026 57.7704 99.0025 57.8549 98.7309C58.6901 96.0459 61.2313 90.3516 67.7794 90.2514C76.3533 90.1199 82.8039 99.7455 76.9216 109.411C71.6786 118.027 57.6979 133.75 57.5 133.75C57.2989 133.75 43.3219 118.028 38.0785 109.411C32.1963 99.7454 38.6467 90.1199 47.2207 90.2514Z" fill="#BC1E24"/>
<path d="M47.2207 154.251C53.7689 154.352 56.3116 160.046 57.1476 162.731C57.2321 163.003 57.7704 163.003 57.8549 162.731C58.6901 160.046 61.2313 154.352 67.7794 154.251C76.3533 154.12 82.8039 163.745 76.9216 173.411C71.6786 182.027 57.6979 197.75 57.5 197.75C57.2989 197.75 43.3219 182.028 38.0785 173.411C32.1963 163.745 38.6467 154.12 47.2207 154.251Z" fill="#BC1E24"/>
<path d="M47.2207 218.251C53.7689 218.352 56.3116 224.046 57.1476 226.731C57.2321 227.003 57.7704 227.003 57.8549 226.731C58.6901 224.046 61.2313 218.352 67.7794 218.251C76.3533 218.12 82.8039 227.745 76.9216 237.411C71.6786 246.027 57.6979 261.75 57.5 261.75C57.2989 261.75 43.3219 246.028 38.0785 237.411C32.1963 227.745 38.6467 218.12 47.2207 218.251Z" fill="#BC1E24"/>
</g>
<path d="M7.47871 39.2002C6.39766 39.2002 5.73701 38.4595 5.73701 37.2783V13.395C5.73701 12.2139 6.39766 11.4731 7.47871 11.4731C8.55977 11.4731 9.24043 12.2139 9.24043 13.395V37.2783C9.24043 38.4595 8.55977 39.2002 7.47871 39.2002ZM10.2454 25.8672V24.8662C10.2454 16.5781 13.7889 11.0928 19.9749 11.0928C26.1609 11.0928 29.6844 16.5781 29.6844 24.8662V25.8672C29.6844 34.1353 26.1409 39.5806 19.9549 39.5806C13.7889 39.5806 10.2454 34.1553 10.2454 25.8672ZM13.7488 24.8862V25.8271C13.7488 32.4937 16.1312 36.5576 19.9749 36.5576C23.8187 36.5576 26.201 32.4937 26.201 25.8271V24.8862C26.201 18.2197 23.7986 14.1357 19.9549 14.1357C16.1312 14.1357 13.7488 18.2197 13.7488 24.8862Z" fill="#BC1E24"/>
<path d="M12.7347 49.0006C15.4518 49.042 16.5069 51.3984 16.8537 52.5094C16.8888 52.6218 17.1122 52.6217 17.1472 52.5093C17.4938 51.3983 18.5482 49.042 21.2653 49.0006C24.8229 48.9462 27.4995 52.9292 25.0587 56.9289C22.8832 60.4939 17.0821 67 17 67C16.9165 67 11.1169 60.4943 8.94127 56.9289C6.50053 52.9291 9.17705 48.9462 12.7347 49.0006Z" fill="#BC1E24"/>
<path d="M11.0664 92V77.9082H12.4043V92H11.0664ZM18.4707 92.293C15.375 92.293 13.5195 89.4609 13.5195 84.9688V84.9395C13.5195 80.4375 15.375 77.6152 18.4707 77.6152C21.5664 77.6152 23.4414 80.4375 23.4414 84.9395V84.9688C23.4414 89.4707 21.5664 92.293 18.4707 92.293ZM18.4707 91.1211C20.7461 91.1211 22.1035 88.748 22.1035 84.9688V84.9395C22.1035 81.1504 20.7461 78.7969 18.4707 78.7969C16.2051 78.7969 14.8574 81.1602 14.8574 84.9395V84.9688C14.8574 88.748 16.2051 91.1211 18.4707 91.1211Z" fill="#BC1E24"/>
</g>
<defs>
<clipPath id="clip0_3_6069">
<rect width="203" height="288" rx="10" fill="white"/>
</clipPath>
<clipPath id="clip1_3_6069">
<rect width="44" height="244" fill="white" transform="translate(123.5 22)"/>
</clipPath>
<clipPath id="clip2_3_6069">
<rect width="44" height="179" fill="white" transform="translate(80 54.5)"/>
</clipPath>
<clipPath id="clip3_3_6069">
<rect width="44" height="244" fill="white" transform="translate(35.5 22)"/>
</clipPath>
</defs>
</svg>
