<svg width="203" height="288" viewBox="0 0 203 288" fill="none" xmlns="http://www.w3.org/2000/svg">
<g clip-path="url(#clip0_5_501)">
<rect width="203" height="288" rx="10" fill="white"/>
<path d="M195.521 248.8C196.602 248.8 197.263 249.541 197.263 250.722L197.263 274.605C197.263 275.786 196.602 276.527 195.521 276.527C194.44 276.527 193.76 275.786 193.76 274.605L193.76 250.722C193.76 249.541 194.44 248.8 195.521 248.8ZM192.755 262.133L192.755 263.134C192.755 271.422 189.211 276.907 183.025 276.907C176.839 276.907 173.316 271.422 173.316 263.134L173.316 262.133C173.316 253.865 176.859 248.419 183.045 248.419C189.211 248.419 192.755 253.845 192.755 262.133ZM189.251 263.114L189.251 262.173C189.251 255.506 186.869 251.442 183.025 251.442C179.181 251.442 176.799 255.506 176.799 262.173L176.799 263.114C176.799 269.78 179.201 273.864 183.045 273.864C186.869 273.864 189.251 269.78 189.251 263.114Z" fill="black"/>
<path d="M187.762 220C187.973 220 188.143 220.164 188.143 220.365C188.143 220.795 187.066 223.617 186.806 225.517C186.774 225.745 187.064 225.836 187.195 225.65C187.823 224.76 188.456 223.808 190.178 223.785C193.385 223.743 195.233 226.79 194.224 229.563C193.729 230.922 186.925 240 186 240C185.075 240 178.271 230.922 177.776 229.563C176.767 226.79 178.615 223.743 181.823 223.785C183.544 223.808 184.177 224.76 184.805 225.65C184.936 225.836 185.226 225.745 185.194 225.517C184.934 223.617 183.857 220.795 183.857 220.365C183.857 220.164 184.027 220 184.238 220L187.762 220Z" fill="#211C1D"/>
<path d="M191.934 196L191.934 210.092L190.596 210.092L190.596 196L191.934 196ZM184.529 195.707C187.625 195.707 189.48 198.539 189.48 203.031L189.48 203.061C189.48 207.562 187.625 210.385 184.529 210.385C181.434 210.385 179.559 207.562 179.559 203.061L179.559 203.031C179.559 198.529 181.434 195.707 184.529 195.707ZM184.529 196.879C182.254 196.879 180.896 199.252 180.896 203.031L180.896 203.061C180.896 206.85 182.254 209.203 184.529 209.203C186.795 209.203 188.143 206.84 188.143 203.061L188.143 203.031C188.143 199.252 186.795 196.879 184.529 196.879Z" fill="black"/>
<g clip-path="url(#clip1_5_501)">
<path d="M141.353 72C140.859 72 140.458 71.6076 140.458 71.1235C140.458 70.0926 142.992 63.318 143.604 58.7596C143.678 58.2115 142.996 57.993 142.688 58.4389C141.211 60.5759 139.721 62.8613 135.671 62.9157C128.123 63.0172 123.776 55.7041 126.15 49.0496C127.314 45.7867 143.325 24 145.5 24C147.675 24 163.686 45.7867 164.85 49.0496C167.224 55.7041 162.877 63.0172 155.329 62.9157C151.279 62.8613 149.789 60.5759 148.312 58.4389C148.004 57.993 147.322 58.2115 147.396 58.7596C148.008 63.318 150.542 70.0926 150.542 71.1235C150.542 71.6076 150.141 72 149.647 72H141.353Z" fill="#211C1D"/>
<path d="M141.353 136C140.859 136 140.458 135.608 140.458 135.123C140.458 134.093 142.992 127.318 143.604 122.76C143.678 122.211 142.996 121.993 142.688 122.439C141.211 124.576 139.721 126.861 135.671 126.916C128.123 127.017 123.776 119.704 126.15 113.05C127.314 109.787 143.325 88 145.5 88C147.675 88 163.686 109.787 164.85 113.05C167.224 119.704 162.877 127.017 155.329 126.916C151.279 126.861 149.789 124.576 148.312 122.439C148.004 121.993 147.322 122.211 147.396 122.76C148.008 127.318 150.542 134.093 150.542 135.123C150.542 135.608 150.141 136 149.647 136H141.353Z" fill="#211C1D"/>
<path d="M141.353 200C140.859 200 140.458 199.608 140.458 199.123C140.458 198.093 142.992 191.318 143.604 186.76C143.678 186.211 142.996 185.993 142.688 186.439C141.211 188.576 139.721 190.861 135.671 190.916C128.123 191.017 123.776 183.704 126.15 177.05C127.314 173.787 143.325 152 145.5 152C147.675 152 163.686 173.787 164.85 177.05C167.224 183.704 162.877 191.017 155.329 190.916C151.279 190.861 149.789 188.576 148.312 186.439C148.004 185.993 147.322 186.211 147.396 186.76C148.008 191.318 150.542 198.093 150.542 199.123C150.542 199.608 150.141 200 149.647 200H141.353Z" fill="#211C1D"/>
<path d="M141.353 264C140.859 264 140.458 263.608 140.458 263.123C140.458 262.093 142.992 255.318 143.604 250.76C143.678 250.211 142.996 249.993 142.688 250.439C141.211 252.576 139.721 254.861 135.671 254.916C128.123 255.017 123.776 247.704 126.15 241.05C127.314 237.787 143.325 216 145.5 216C147.675 216 163.686 237.787 164.85 241.05C167.224 247.704 162.877 255.017 155.329 254.916C151.279 254.861 149.789 252.576 148.312 250.439C148.004 249.993 147.322 250.211 147.396 250.76C148.008 255.318 150.542 262.093 150.542 263.123C150.542 263.608 150.141 264 149.647 264H141.353Z" fill="#211C1D"/>
</g>
<g clip-path="url(#clip2_5_501)">
<path d="M97.853 104.5C97.3588 104.5 96.9582 104.108 96.9582 103.623C96.9582 102.593 99.4923 95.818 100.104 91.2596C100.178 90.7115 99.4958 90.493 99.1876 90.9389C97.7105 93.0759 96.2215 95.3613 92.1706 95.4157C84.6234 95.5172 80.2757 88.2041 82.6497 81.5496C83.8137 78.2867 99.8245 56.5 102 56.5C104.175 56.5 120.186 78.2867 121.35 81.5496C123.724 88.2041 119.377 95.5172 111.829 95.4157C107.779 95.3613 106.289 93.0759 104.812 90.9389C104.504 90.493 103.822 90.7115 103.896 91.2596C104.508 95.818 107.042 102.593 107.042 103.623C107.042 104.108 106.641 104.5 106.147 104.5H97.853Z" fill="#211C1D"/>
<path d="M97.853 168C97.3588 168 96.9582 167.608 96.9582 167.123C96.9582 166.093 99.4923 159.318 100.104 154.76C100.178 154.211 99.4958 153.993 99.1876 154.439C97.7105 156.576 96.2215 158.861 92.1706 158.916C84.6234 159.017 80.2757 151.704 82.6497 145.05C83.8137 141.787 99.8245 120 102 120C104.175 120 120.186 141.787 121.35 145.05C123.724 151.704 119.377 159.017 111.829 158.916C107.779 158.861 106.289 156.576 104.812 154.439C104.504 153.993 103.822 154.211 103.896 154.76C104.508 159.318 107.042 166.093 107.042 167.123C107.042 167.608 106.641 168 106.147 168H97.853Z" fill="#211C1D"/>
<path d="M97.853 231.5C97.3588 231.5 96.9582 231.108 96.9582 230.623C96.9582 229.593 99.4923 222.818 100.104 218.26C100.178 217.711 99.4958 217.493 99.1876 217.939C97.7105 220.076 96.2215 222.361 92.1706 222.416C84.6234 222.517 80.2757 215.204 82.6497 208.55C83.8137 205.287 99.8245 183.5 102 183.5C104.175 183.5 120.186 205.287 121.35 208.55C123.724 215.204 119.377 222.517 111.829 222.416C107.779 222.361 106.289 220.076 104.812 217.939C104.504 217.493 103.822 217.711 103.896 218.26C104.508 222.818 107.042 229.593 107.042 230.623C107.042 231.108 106.641 231.5 106.147 231.5H97.853Z" fill="#211C1D"/>
</g>
<g clip-path="url(#clip3_5_501)">
<path d="M53.353 72C52.8588 72 52.4582 71.6076 52.4582 71.1235C52.4582 70.0926 54.9923 63.318 55.6043 58.7596C55.6779 58.2115 54.9958 57.993 54.6876 58.4389C53.2105 60.5759 51.7215 62.8613 47.6706 62.9157C40.1234 63.0172 35.7757 55.7041 38.1497 49.0496C39.3137 45.7867 55.3245 24 57.5 24C59.6754 24 75.6864 45.7867 76.8503 49.0496C79.2243 55.7041 74.8766 63.0172 67.3294 62.9157C63.2785 62.8613 61.7895 60.5759 60.3124 58.4389C60.0042 57.993 59.3221 58.2115 59.3957 58.7596C60.0077 63.318 62.5418 70.0926 62.5418 71.1235C62.5418 71.6076 62.1412 72 61.647 72H53.353Z" fill="#211C1D"/>
<path d="M53.353 136C52.8588 136 52.4582 135.608 52.4582 135.123C52.4582 134.093 54.9923 127.318 55.6043 122.76C55.6779 122.211 54.9958 121.993 54.6876 122.439C53.2105 124.576 51.7215 126.861 47.6706 126.916C40.1234 127.017 35.7757 119.704 38.1497 113.05C39.3137 109.787 55.3245 88 57.5 88C59.6754 88 75.6864 109.787 76.8503 113.05C79.2243 119.704 74.8766 127.017 67.3294 126.916C63.2785 126.861 61.7895 124.576 60.3124 122.439C60.0042 121.993 59.3221 122.211 59.3957 122.76C60.0077 127.318 62.5418 134.093 62.5418 135.123C62.5418 135.608 62.1412 136 61.647 136H53.353Z" fill="#211C1D"/>
<path d="M53.353 200C52.8588 200 52.4582 199.608 52.4582 199.123C52.4582 198.093 54.9923 191.318 55.6043 186.76C55.6779 186.211 54.9958 185.993 54.6876 186.439C53.2105 188.576 51.7215 190.861 47.6706 190.916C40.1234 191.017 35.7757 183.704 38.1497 177.05C39.3137 173.787 55.3245 152 57.5 152C59.6754 152 75.6864 173.787 76.8503 177.05C79.2243 183.704 74.8766 191.017 67.3294 190.916C63.2785 190.861 61.7895 188.576 60.3124 186.439C60.0042 185.993 59.3221 186.211 59.3957 186.76C60.0077 191.318 62.5418 198.093 62.5418 199.123C62.5418 199.608 62.1412 200 61.647 200H53.353Z" fill="#211C1D"/>
<path d="M53.353 264C52.8588 264 52.4582 263.608 52.4582 263.123C52.4582 262.093 54.9923 255.318 55.6043 250.76C55.6779 250.211 54.9958 249.993 54.6876 250.439C53.2105 252.576 51.7215 254.861 47.6706 254.916C40.1234 255.017 35.7757 247.704 38.1497 241.05C39.3137 237.787 55.3245 216 57.5 216C59.6754 216 75.6864 237.787 76.8503 241.05C79.2243 247.704 74.8766 255.017 67.3294 254.916C63.2785 254.861 61.7895 252.576 60.3124 250.439C60.0042 249.993 59.3221 250.211 59.3957 250.76C60.0077 255.318 62.5418 262.093 62.5418 263.123C62.5418 263.608 62.1412 264 61.647 264H53.353Z" fill="#211C1D"/>
</g>
<path d="M7.47871 39.2002C6.39766 39.2002 5.73701 38.4595 5.73701 37.2783V13.395C5.73701 12.2139 6.39766 11.4731 7.47871 11.4731C8.55977 11.4731 9.24043 12.2139 9.24043 13.395V37.2783C9.24043 38.4595 8.55977 39.2002 7.47871 39.2002ZM10.2454 25.8672V24.8662C10.2454 16.5781 13.7889 11.0928 19.9749 11.0928C26.1609 11.0928 29.6844 16.5781 29.6844 24.8662V25.8672C29.6844 34.1353 26.1409 39.5806 19.9549 39.5806C13.7889 39.5806 10.2454 34.1553 10.2454 25.8672ZM13.7488 24.8862V25.8271C13.7488 32.4937 16.1312 36.5576 19.9749 36.5576C23.8187 36.5576 26.201 32.4937 26.201 25.8271V24.8862C26.201 18.2197 23.7986 14.1357 19.9549 14.1357C16.1312 14.1357 13.7488 18.2197 13.7488 24.8862Z" fill="black"/>
<path d="M15.2375 68C15.0275 68 14.8572 67.8365 14.8572 67.6348C14.8572 67.2053 15.9342 64.3825 16.1943 62.4832C16.2256 62.2548 15.9357 62.1637 15.8047 62.3495C15.177 63.2399 14.5441 64.1922 12.8225 64.2149C9.61496 64.2572 7.76719 61.2101 8.77613 58.4373C9.2708 57.0778 16.0754 48 17 48C17.9245 48 24.7292 57.0778 25.2239 58.4373C26.2328 61.2101 24.385 64.2572 21.1775 64.2149C19.4559 64.1922 18.823 63.2399 18.1953 62.3495C18.0643 62.1637 17.7744 62.2548 17.8057 62.4832C18.0658 64.3825 19.1428 67.2053 19.1428 67.6348C19.1428 67.8365 18.9725 68 18.7625 68H15.2375Z" fill="#211C1D"/>
<path d="M11.0664 92V77.9082H12.4043V92H11.0664ZM18.4707 92.293C15.375 92.293 13.5195 89.4609 13.5195 84.9688V84.9395C13.5195 80.4375 15.375 77.6152 18.4707 77.6152C21.5664 77.6152 23.4414 80.4375 23.4414 84.9395V84.9688C23.4414 89.4707 21.5664 92.293 18.4707 92.293ZM18.4707 91.1211C20.7461 91.1211 22.1035 88.748 22.1035 84.9688V84.9395C22.1035 81.1504 20.7461 78.7969 18.4707 78.7969C16.2051 78.7969 14.8574 81.1602 14.8574 84.9395V84.9688C14.8574 88.748 16.2051 91.1211 18.4707 91.1211Z" fill="black"/>
</g>
<defs>
<clipPath id="clip0_5_501">
<rect width="203" height="288" rx="10" fill="white"/>
</clipPath>
<clipPath id="clip1_5_501">
<rect width="44" height="244" fill="white" transform="translate(123.5 22)"/>
</clipPath>
<clipPath id="clip2_5_501">
<rect width="44" height="179" fill="white" transform="translate(80 54.5)"/>
</clipPath>
<clipPath id="clip3_5_501">
<rect width="44" height="244" fill="white" transform="translate(35.5 22)"/>
</clipPath>
</defs>
</svg>
