<svg width="203" height="288" viewBox="0 0 203 288" fill="none" xmlns="http://www.w3.org/2000/svg">
<g clip-path="url(#clip0_5_508)">
<rect width="203" height="288" rx="10" fill="white"/>
<path d="M195.189 254.605C195.189 255.506 194.568 256.147 193.688 256.147C192.987 256.147 192.546 255.787 192.026 254.766C190.985 252.624 188.903 251.422 186.18 251.422C182.597 251.422 180.314 253.384 180.314 256.447C180.314 259.51 182.657 261.572 186.14 261.572L188.643 261.572C189.563 261.572 190.244 262.233 190.244 263.094C190.244 263.975 189.604 264.595 188.643 264.595L186.28 264.595C183.357 264.595 181.235 266.577 181.235 269.32C181.235 272.062 183.297 273.904 186.36 273.904C188.743 273.904 190.544 272.723 191.345 270.661C191.746 269.56 192.246 269.14 193.027 269.14C193.948 269.14 194.548 269.8 194.548 270.801C194.548 273.904 191.205 276.907 186.28 276.907C181.275 276.907 177.712 273.924 177.712 269.76C177.712 266.737 179.974 263.854 182.757 263.374L182.757 263.174C179.374 262.793 176.791 259.831 176.791 256.387C176.791 251.703 180.675 248.419 186.24 248.419C191.405 248.419 195.189 251.542 195.189 254.605Z" fill="black"/>
<path d="M187.762 220C187.973 220 188.143 220.164 188.143 220.365C188.143 220.795 187.066 223.617 186.806 225.517C186.774 225.745 187.064 225.836 187.195 225.65C187.823 224.76 188.456 223.808 190.178 223.785C193.385 223.743 195.233 226.79 194.224 229.563C193.729 230.922 186.925 240 186 240C185.075 240 178.271 230.922 177.776 229.563C176.767 226.79 178.615 223.743 181.823 223.785C183.544 223.808 184.177 224.76 184.805 225.65C184.936 225.836 185.226 225.745 185.194 225.517C184.934 223.617 183.857 220.795 183.857 220.365C183.857 220.164 184.027 220 184.238 220L187.762 220Z" fill="#211C1D"/>
<path d="M186 195.707C188.539 195.707 190.424 197.348 190.639 199.486L190.648 199.584L189.369 199.584L189.359 199.516C189.164 198.061 187.777 196.898 185.98 196.898C183.92 196.898 182.445 198.383 182.445 200.453L182.445 200.473C182.445 202.523 183.92 204.027 185.922 204.027C187.025 204.027 187.992 203.627 188.676 202.875C188.881 202.67 189.066 202.426 189.223 202.152L190.404 202.152L189.623 210.092L181.967 210.092L181.967 208.891L188.559 208.891L189.125 203.568L188.998 203.568C188.324 204.594 187.094 205.189 185.717 205.189C183.08 205.189 181.137 203.207 181.137 200.502L181.137 200.482C181.137 197.689 183.178 195.707 186 195.707Z" fill="black"/>
<g clip-path="url(#clip1_5_508)">
<path d="M97.853 72C97.3588 72 96.9582 71.6076 96.9582 71.1235C96.9582 70.0926 99.4923 63.318 100.104 58.7596C100.178 58.2115 99.4958 57.993 99.1876 58.4389C97.7105 60.5759 96.2215 62.8613 92.1706 62.9157C84.6234 63.0172 80.2757 55.7041 82.6497 49.0496C83.8137 45.7867 99.8245 24 102 24C104.175 24 120.186 45.7867 121.35 49.0496C123.724 55.7041 119.377 63.0172 111.829 62.9157C107.779 62.8613 106.289 60.5759 104.812 58.4389C104.504 57.993 103.822 58.2115 103.896 58.7596C104.508 63.318 107.042 70.0926 107.042 71.1235C107.042 71.6076 106.641 72 106.147 72H97.853Z" fill="#211C1D"/>
<path d="M97.853 168C97.3588 168 96.9582 167.608 96.9582 167.123C96.9582 166.093 99.4923 159.318 100.104 154.76C100.178 154.211 99.4958 153.993 99.1876 154.439C97.7105 156.576 96.2215 158.861 92.1706 158.916C84.6234 159.017 80.2757 151.704 82.6497 145.05C83.8137 141.787 99.8245 120 102 120C104.175 120 120.186 141.787 121.35 145.05C123.724 151.704 119.377 159.017 111.829 158.916C107.779 158.861 106.289 156.576 104.812 154.439C104.504 153.993 103.822 154.211 103.896 154.76C104.508 159.318 107.042 166.093 107.042 167.123C107.042 167.608 106.641 168 106.147 168H97.853Z" fill="#211C1D"/>
<path d="M97.853 264C97.3588 264 96.9582 263.608 96.9582 263.123C96.9582 262.093 99.4923 255.318 100.104 250.76C100.178 250.211 99.4958 249.993 99.1876 250.439C97.7105 252.576 96.2215 254.861 92.1706 254.916C84.6234 255.017 80.2757 247.704 82.6497 241.05C83.8137 237.787 99.8245 216 102 216C104.175 216 120.186 237.787 121.35 241.05C123.724 247.704 119.377 255.017 111.829 254.916C107.779 254.861 106.289 252.576 104.812 250.439C104.504 249.993 103.822 250.211 103.896 250.76C104.508 255.318 107.042 262.093 107.042 263.123C107.042 263.608 106.641 264 106.147 264H97.853Z" fill="#211C1D"/>
</g>
<path d="M7.81104 33.3945C7.81104 32.4937 8.43164 31.853 9.3125 31.853C10.0132 31.853 10.4536 32.2134 10.9741 33.2344C12.0151 35.3765 14.0972 36.5776 16.8198 36.5776C20.4033 36.5776 22.6855 34.6157 22.6855 31.5527C22.6855 28.4897 20.3433 26.4277 16.8599 26.4277H14.3574C13.4365 26.4277 12.7559 25.7671 12.7559 24.9062C12.7559 24.0254 13.3965 23.4048 14.3574 23.4048H16.7197C19.6426 23.4048 21.7646 21.4229 21.7646 18.6802C21.7646 15.9375 19.7026 14.0957 16.6396 14.0957C14.2573 14.0957 12.4556 15.2769 11.6548 17.3389C11.2544 18.4399 10.7539 18.8604 9.97314 18.8604C9.05225 18.8604 8.45166 18.1997 8.45166 17.1987C8.45166 14.0957 11.7949 11.0928 16.7197 11.0928C21.7246 11.0928 25.2881 14.0757 25.2881 18.2397C25.2881 21.2627 23.0259 24.1455 20.2432 24.626V24.8262C23.6265 25.2065 26.209 28.1694 26.209 31.6128C26.209 36.2974 22.3252 39.5806 16.7598 39.5806C11.5947 39.5806 7.81104 36.4575 7.81104 33.3945Z" fill="black"/>
<path d="M15.2375 68C15.0275 68 14.8572 67.8365 14.8572 67.6348C14.8572 67.2053 15.9342 64.3825 16.1943 62.4832C16.2256 62.2548 15.9357 62.1637 15.8047 62.3495C15.177 63.2399 14.5441 64.1922 12.8225 64.2149C9.61496 64.2572 7.76719 61.2101 8.77613 58.4373C9.2708 57.0778 16.0754 48 17 48C17.9245 48 24.7292 57.0778 25.2239 58.4373C26.2328 61.2101 24.385 64.2572 21.1775 64.2149C19.4559 64.1922 18.823 63.2399 18.1953 62.3495C18.0643 62.1637 17.7744 62.2548 17.8057 62.4832C18.0658 64.3825 19.1428 67.2053 19.1428 67.6348C19.1428 67.8365 18.9725 68 18.7625 68H15.2375Z" fill="#211C1D"/>
<path d="M17 92.293C14.4609 92.293 12.5762 90.6523 12.3613 88.5137L12.3516 88.416H13.6309L13.6406 88.4844C13.8359 89.9395 15.2227 91.1016 17.0195 91.1016C19.0801 91.1016 20.5547 89.6172 20.5547 87.5469V87.5273C20.5547 85.4766 19.0801 83.9727 17.0781 83.9727C15.9746 83.9727 15.0078 84.373 14.3242 85.125C14.1191 85.3301 13.9336 85.5742 13.7773 85.8477H12.5957L13.377 77.9082H21.0332V79.1094H14.4414L13.875 84.4316H14.002C14.6758 83.4062 15.9062 82.8105 17.2832 82.8105C19.9199 82.8105 21.8633 84.793 21.8633 87.498V87.5176C21.8633 90.3105 19.8223 92.293 17 92.293Z" fill="black"/>
</g>
<defs>
<clipPath id="clip0_5_508">
<rect width="203" height="288" rx="10" fill="white"/>
</clipPath>
<clipPath id="clip1_5_508">
<rect width="44" height="244" fill="white" transform="translate(80 22)"/>
</clipPath>
</defs>
</svg>
