<svg width="203" height="288" viewBox="0 0 203 288" fill="none" xmlns="http://www.w3.org/2000/svg">
<g clip-path="url(#clip0_5_1858)">
<rect width="203" height="288" rx="10" fill="white"/>
<path d="M195.189 254.605C195.189 255.506 194.568 256.147 193.688 256.147C192.987 256.147 192.546 255.787 192.026 254.766C190.985 252.624 188.903 251.422 186.18 251.422C182.597 251.422 180.314 253.384 180.314 256.447C180.314 259.51 182.657 261.572 186.14 261.572L188.643 261.572C189.563 261.572 190.244 262.233 190.244 263.094C190.244 263.975 189.604 264.595 188.643 264.595L186.28 264.595C183.357 264.595 181.235 266.577 181.235 269.32C181.235 272.062 183.297 273.904 186.36 273.904C188.743 273.904 190.544 272.723 191.345 270.661C191.746 269.56 192.246 269.14 193.027 269.14C193.948 269.14 194.548 269.8 194.548 270.801C194.548 273.904 191.205 276.907 186.28 276.907C181.275 276.907 177.712 273.924 177.712 269.76C177.712 266.737 179.974 263.854 182.757 263.374L182.757 263.174C179.374 262.793 176.791 259.831 176.791 256.387C176.791 251.703 180.675 248.419 186.24 248.419C191.405 248.419 195.189 251.542 195.189 254.605Z" fill="black"/>
<path d="M187.968 220C188.185 220 188.361 220.174 188.361 220.389C188.361 221.109 187.068 223.799 186.81 225.904C186.782 226.131 187.114 226.215 187.236 226.021C187.902 224.964 188.81 223.485 191.022 223.537L191.065 223.535C191.093 223.534 191.122 223.533 191.151 223.533C193.553 223.533 195.5 225.646 195.5 228.252C195.5 230.858 193.553 232.97 191.151 232.97C190.682 232.97 190.23 232.889 189.807 232.74C189.708 232.705 189.608 232.819 189.657 232.91C190.032 233.607 190.247 234.418 190.247 235.283C190.247 237.852 188.375 240 186 240C183.625 240 181.753 237.852 181.753 235.283C181.753 234.418 181.968 233.607 182.343 232.91C182.392 232.819 182.292 232.705 182.193 232.74C181.77 232.889 181.318 232.97 180.849 232.97C178.447 232.97 176.5 230.858 176.5 228.252C176.5 225.646 178.447 223.533 180.849 223.533C180.878 223.533 180.907 223.534 180.935 223.535L180.978 223.537C183.19 223.485 184.098 224.964 184.764 226.021C184.886 226.215 185.218 226.131 185.19 225.904C184.932 223.799 183.639 221.109 183.639 220.389C183.639 220.174 183.815 220 184.032 220L187.968 220Z" fill="#211C1D"/>
<path d="M186 195.707C188.539 195.707 190.424 197.348 190.639 199.486L190.648 199.584L189.369 199.584L189.359 199.516C189.164 198.061 187.777 196.898 185.98 196.898C183.92 196.898 182.445 198.383 182.445 200.453L182.445 200.473C182.445 202.523 183.92 204.027 185.922 204.027C187.025 204.027 187.992 203.627 188.676 202.875C188.881 202.67 189.066 202.426 189.223 202.152L190.404 202.152L189.623 210.092L181.967 210.092L181.967 208.891L188.559 208.891L189.125 203.568L188.998 203.568C188.324 204.594 187.094 205.189 185.717 205.189C183.08 205.189 181.137 203.207 181.137 200.502L181.137 200.482C181.137 197.689 183.178 195.707 186 195.707Z" fill="black"/>
<g clip-path="url(#clip1_5_1858)">
<path d="M97.34 72C96.825 72 96.4075 71.5825 96.4075 71.0675C96.4075 69.3389 99.4696 62.8831 100.082 57.8301C100.148 57.2867 99.3615 57.0849 99.0725 57.5498C97.4958 60.0863 95.3456 63.6359 90.1068 63.512L90.0051 63.5152C89.9372 63.5176 89.8693 63.5199 89.8008 63.5199C84.1117 63.5199 79.5 58.4499 79.5 52.1959C79.5 45.9419 84.1117 40.8719 89.8008 40.8719C90.9114 40.8719 91.9808 41.066 92.983 41.4239C93.2167 41.5074 93.4551 41.2346 93.3388 41.0153C92.451 39.3424 91.9416 37.3975 91.9416 35.3209C91.9416 29.156 96.375 24 102 24C107.625 24 112.058 29.156 112.058 35.3209C112.058 37.3975 111.549 39.3424 110.661 41.0153C110.545 41.2346 110.783 41.5074 111.017 41.4239C112.019 41.066 113.089 40.8719 114.199 40.8719C119.888 40.8719 124.5 45.9419 124.5 52.1959C124.5 58.4499 119.888 63.5199 114.199 63.5199C114.131 63.5199 114.063 63.5176 113.995 63.5152L113.893 63.512C108.654 63.6359 106.504 60.0863 104.927 57.5498C104.638 57.0849 103.852 57.2867 103.918 57.8301C104.53 62.883 107.592 69.339 107.592 71.0675C107.592 71.5825 107.175 72 106.66 72H97.34Z" fill="#211C1D"/>
<path d="M97.34 168C96.825 168 96.4075 167.582 96.4075 167.067C96.4075 165.339 99.4696 158.883 100.082 153.83C100.148 153.287 99.3615 153.085 99.0725 153.55C97.4958 156.086 95.3456 159.636 90.1068 159.512L90.0051 159.515C89.9372 159.518 89.8693 159.52 89.8008 159.52C84.1117 159.52 79.5 154.45 79.5 148.196C79.5 141.942 84.1117 136.872 89.8008 136.872C90.9114 136.872 91.9808 137.066 92.983 137.424C93.2167 137.507 93.4551 137.235 93.3388 137.015C92.451 135.342 91.9416 133.397 91.9416 131.321C91.9416 125.156 96.375 120 102 120C107.625 120 112.058 125.156 112.058 131.321C112.058 133.397 111.549 135.342 110.661 137.015C110.545 137.235 110.783 137.507 111.017 137.424C112.019 137.066 113.089 136.872 114.199 136.872C119.888 136.872 124.5 141.942 124.5 148.196C124.5 154.45 119.888 159.52 114.199 159.52C114.131 159.52 114.063 159.518 113.995 159.515L113.893 159.512C108.654 159.636 106.504 156.086 104.927 153.55C104.638 153.085 103.852 153.287 103.918 153.83C104.53 158.883 107.592 165.339 107.592 167.067C107.592 167.582 107.175 168 106.66 168H97.34Z" fill="#211C1D"/>
<path d="M97.34 264C96.825 264 96.4075 263.582 96.4075 263.067C96.4075 261.339 99.4696 254.883 100.082 249.83C100.148 249.287 99.3615 249.085 99.0725 249.55C97.4958 252.086 95.3456 255.636 90.1068 255.512L90.0051 255.515C89.9372 255.518 89.8693 255.52 89.8008 255.52C84.1117 255.52 79.5 250.45 79.5 244.196C79.5 237.942 84.1117 232.872 89.8008 232.872C90.9114 232.872 91.9808 233.066 92.983 233.424C93.2167 233.507 93.4551 233.235 93.3388 233.015C92.451 231.342 91.9416 229.397 91.9416 227.321C91.9416 221.156 96.375 216 102 216C107.625 216 112.058 221.156 112.058 227.321C112.058 229.397 111.549 231.342 110.661 233.015C110.545 233.235 110.783 233.507 111.017 233.424C112.019 233.066 113.089 232.872 114.199 232.872C119.888 232.872 124.5 237.942 124.5 244.196C124.5 250.45 119.888 255.52 114.199 255.52C114.131 255.52 114.063 255.518 113.995 255.515L113.893 255.512C108.654 255.636 106.504 252.086 104.927 249.55C104.638 249.085 103.852 249.287 103.918 249.83C104.53 254.883 107.592 261.339 107.592 263.067C107.592 263.582 107.175 264 106.66 264H97.34Z" fill="#211C1D"/>
</g>
<path d="M7.81104 33.3945C7.81104 32.4937 8.43164 31.853 9.3125 31.853C10.0132 31.853 10.4536 32.2134 10.9741 33.2344C12.0151 35.3765 14.0972 36.5776 16.8198 36.5776C20.4033 36.5776 22.6855 34.6157 22.6855 31.5527C22.6855 28.4897 20.3433 26.4277 16.8599 26.4277H14.3574C13.4365 26.4277 12.7559 25.7671 12.7559 24.9062C12.7559 24.0254 13.3965 23.4048 14.3574 23.4048H16.7197C19.6426 23.4048 21.7646 21.4229 21.7646 18.6802C21.7646 15.9375 19.7026 14.0957 16.6396 14.0957C14.2573 14.0957 12.4556 15.2769 11.6548 17.3389C11.2544 18.4399 10.7539 18.8604 9.97314 18.8604C9.05225 18.8604 8.45166 18.1997 8.45166 17.1987C8.45166 14.0957 11.7949 11.0928 16.7197 11.0928C21.7246 11.0928 25.2881 14.0757 25.2881 18.2397C25.2881 21.2627 23.0259 24.1455 20.2432 24.626V24.8262C23.6265 25.2065 26.209 28.1694 26.209 31.6128C26.209 36.2974 22.3252 39.5806 16.7598 39.5806C11.5947 39.5806 7.81104 36.4575 7.81104 33.3945Z" fill="black"/>
<path d="M15.0324 68C14.815 68 14.6387 67.826 14.6387 67.6115C14.6387 66.8912 15.9316 64.2013 16.1901 62.0959C16.2179 61.8695 15.886 61.7854 15.7639 61.9791C15.0982 63.0359 14.1904 64.515 11.9784 64.4633L11.9355 64.4647C11.9068 64.4656 11.8781 64.4666 11.8492 64.4666C9.44715 64.4666 7.5 62.3541 7.5 59.7483C7.5 57.1425 9.44715 55.03 11.8492 55.03C12.3182 55.03 12.7697 55.1108 13.1928 55.26C13.2915 55.2948 13.3921 55.1811 13.3431 55.0897C12.9682 54.3927 12.7531 53.5823 12.7531 52.717C12.7531 50.1483 14.625 48 17 48C19.375 48 21.2469 50.1483 21.2469 52.717C21.2469 53.5823 21.0318 54.3927 20.6569 55.0897C20.6079 55.1811 20.7085 55.2948 20.8072 55.26C21.2303 55.1108 21.6818 55.03 22.1508 55.03C24.5529 55.03 26.5 57.1425 26.5 59.7483C26.5 62.3541 24.5529 64.4666 22.1508 64.4666C22.1219 64.4666 22.0932 64.4656 22.0645 64.4647L22.0216 64.4633C19.8096 64.515 18.9018 63.0359 18.2361 61.9791C18.114 61.7854 17.7821 61.8695 17.8099 62.0959C18.0684 64.2013 19.3613 66.8913 19.3613 67.6114C19.3613 67.826 19.185 68 18.9676 68H15.0324Z" fill="#211C1D"/>
<path d="M17 92.293C14.4609 92.293 12.5762 90.6523 12.3613 88.5137L12.3516 88.416H13.6309L13.6406 88.4844C13.8359 89.9395 15.2227 91.1016 17.0195 91.1016C19.0801 91.1016 20.5547 89.6172 20.5547 87.5469V87.5273C20.5547 85.4766 19.0801 83.9727 17.0781 83.9727C15.9746 83.9727 15.0078 84.373 14.3242 85.125C14.1191 85.3301 13.9336 85.5742 13.7773 85.8477H12.5957L13.377 77.9082H21.0332V79.1094H14.4414L13.875 84.4316H14.002C14.6758 83.4062 15.9062 82.8105 17.2832 82.8105C19.9199 82.8105 21.8633 84.793 21.8633 87.498V87.5176C21.8633 90.3105 19.8223 92.293 17 92.293Z" fill="black"/>
</g>
<defs>
<clipPath id="clip0_5_1858">
<rect width="203" height="288" rx="10" fill="white"/>
</clipPath>
<clipPath id="clip1_5_1858">
<rect width="44" height="244" fill="white" transform="translate(80 22)"/>
</clipPath>
</defs>
</svg>
