<svg width="203" height="288" viewBox="0 0 203 288" fill="none" xmlns="http://www.w3.org/2000/svg">
<g clip-path="url(#clip0_3_6127)">
<rect width="203" height="288" rx="10" fill="white"/>
<path d="M195.189 254.605C195.189 255.506 194.568 256.147 193.688 256.147C192.987 256.147 192.546 255.787 192.026 254.766C190.985 252.624 188.903 251.422 186.18 251.422C182.597 251.422 180.314 253.384 180.314 256.447C180.314 259.51 182.657 261.572 186.14 261.572L188.643 261.572C189.563 261.572 190.244 262.233 190.244 263.094C190.244 263.975 189.604 264.595 188.643 264.595L186.28 264.595C183.357 264.595 181.235 266.577 181.235 269.32C181.235 272.062 183.297 273.904 186.36 273.904C188.743 273.904 190.544 272.723 191.345 270.661C191.746 269.56 192.246 269.14 193.027 269.14C193.948 269.14 194.548 269.8 194.548 270.801C194.548 273.904 191.205 276.907 186.28 276.907C181.275 276.907 177.712 273.924 177.712 269.76C177.712 266.737 179.974 263.854 182.757 263.374L182.757 263.174C179.374 262.793 176.791 259.831 176.791 256.387C176.791 251.703 180.675 248.419 186.24 248.419C191.405 248.419 195.189 251.542 195.189 254.605Z" fill="#BC1E24"/>
<path d="M190.265 238.999C187.548 238.958 186.493 236.602 186.146 235.491C186.111 235.378 185.888 235.378 185.853 235.491C185.506 236.602 184.452 238.958 181.735 238.999C178.177 239.054 175.501 235.071 177.941 231.071C180.117 227.506 185.918 221 186 221C186.083 221 191.883 227.506 194.059 231.071C196.499 235.071 193.823 239.054 190.265 238.999Z" fill="#BC1E24"/>
<path d="M195.963 196L195.963 208.598L196.08 208.598L199.723 206.068L199.723 207.484L195.953 210.092L194.635 210.092L194.635 196L195.963 196ZM187.826 195.707C190.922 195.707 192.777 198.539 192.777 203.031L192.777 203.061C192.777 207.562 190.922 210.385 187.826 210.385C184.73 210.385 182.855 207.562 182.855 203.061L182.855 203.031C182.855 198.529 184.73 195.707 187.826 195.707ZM187.826 196.879C185.551 196.879 184.193 199.252 184.193 203.031L184.193 203.061C184.193 206.85 185.551 209.203 187.826 209.203C190.092 209.203 191.439 206.84 191.439 203.061L191.439 203.031C191.439 199.252 190.092 196.879 187.826 196.879ZM177.307 195.707C180.402 195.707 182.258 198.539 182.258 203.031L182.258 203.061C182.258 207.562 180.402 210.385 177.307 210.385C174.211 210.385 172.336 207.562 172.336 203.061L172.336 203.031C172.336 198.529 174.211 195.707 177.307 195.707ZM177.307 196.879C175.031 196.879 173.674 199.252 173.674 203.031L173.674 203.061C173.674 206.85 175.031 209.203 177.307 209.203C179.572 209.203 180.92 206.84 180.92 203.061L180.92 203.031C180.92 199.252 179.572 196.879 177.307 196.879Z" fill="#BC1E24"/>
<g clip-path="url(#clip1_3_6127)">
<path d="M91.7206 26.2514C98.2688 26.3516 100.812 32.0461 101.648 34.731C101.732 35.0026 102.27 35.0025 102.355 34.7309C103.19 32.0459 105.731 26.3516 112.279 26.2514C120.853 26.1199 127.304 35.7455 121.422 45.4115C116.179 54.0269 102.198 69.75 102 69.75C101.799 69.7499 87.8218 54.0278 82.5785 45.4115C76.6963 35.7454 83.1467 26.1199 91.7206 26.2514Z" fill="#BC1E24"/>
<path d="M91.7206 122.251C98.2688 122.352 100.812 128.046 101.648 130.731C101.732 131.003 102.27 131.003 102.355 130.731C103.19 128.046 105.731 122.352 112.279 122.251C120.853 122.12 127.304 131.745 121.422 141.411C116.179 150.027 102.198 165.75 102 165.75C101.799 165.75 87.8218 150.028 82.5785 141.411C76.6963 131.745 83.1467 122.12 91.7206 122.251Z" fill="#BC1E24"/>
<path d="M91.7206 218.251C98.2688 218.352 100.812 224.046 101.648 226.731C101.732 227.003 102.27 227.003 102.355 226.731C103.19 224.046 105.731 218.352 112.279 218.251C120.853 218.12 127.304 227.745 121.422 237.411C116.179 246.027 102.198 261.75 102 261.75C101.799 261.75 87.8218 246.028 82.5785 237.411C76.6963 227.745 83.1467 218.12 91.7206 218.251Z" fill="#BC1E24"/>
</g>
<path d="M7.81104 33.3945C7.81104 32.4937 8.43164 31.853 9.3125 31.853C10.0132 31.853 10.4536 32.2134 10.9741 33.2344C12.0151 35.3765 14.0972 36.5776 16.8198 36.5776C20.4033 36.5776 22.6855 34.6157 22.6855 31.5527C22.6855 28.4897 20.3433 26.4277 16.8599 26.4277H14.3574C13.4365 26.4277 12.7559 25.7671 12.7559 24.9062C12.7559 24.0254 13.3965 23.4048 14.3574 23.4048H16.7197C19.6426 23.4048 21.7646 21.4229 21.7646 18.6802C21.7646 15.9375 19.7026 14.0957 16.6396 14.0957C14.2573 14.0957 12.4556 15.2769 11.6548 17.3389C11.2544 18.4399 10.7539 18.8604 9.97314 18.8604C9.05225 18.8604 8.45166 18.1997 8.45166 17.1987C8.45166 14.0957 11.7949 11.0928 16.7197 11.0928C21.7246 11.0928 25.2881 14.0757 25.2881 18.2397C25.2881 21.2627 23.0259 24.1455 20.2432 24.626V24.8262C23.6265 25.2065 26.209 28.1694 26.209 31.6128C26.209 36.2974 22.3252 39.5806 16.7598 39.5806C11.5947 39.5806 7.81104 36.4575 7.81104 33.3945Z" fill="#BC1E24"/>
<path d="M12.7347 49.0006C15.4518 49.042 16.5069 51.3984 16.8537 52.5094C16.8888 52.6218 17.1122 52.6217 17.1472 52.5093C17.4938 51.3983 18.5482 49.042 21.2653 49.0006C24.8229 48.9462 27.4995 52.9292 25.0587 56.9289C22.8832 60.4939 17.0821 67 17 67C16.9165 67 11.1169 60.4943 8.94127 56.9289C6.50053 52.9291 9.17705 48.9462 12.7347 49.0006Z" fill="#BC1E24"/>
<path d="M7.03711 92V79.4023H6.91992L3.27734 81.9316V80.5156L7.04688 77.9082H8.36523V92H7.03711ZM15.1738 92.293C12.0781 92.293 10.2227 89.4609 10.2227 84.9688V84.9395C10.2227 80.4375 12.0781 77.6152 15.1738 77.6152C18.2695 77.6152 20.1445 80.4375 20.1445 84.9395V84.9688C20.1445 89.4707 18.2695 92.293 15.1738 92.293ZM15.1738 91.1211C17.4492 91.1211 18.8066 88.748 18.8066 84.9688V84.9395C18.8066 81.1504 17.4492 78.7969 15.1738 78.7969C12.9082 78.7969 11.5605 81.1602 11.5605 84.9395V84.9688C11.5605 88.748 12.9082 91.1211 15.1738 91.1211ZM25.6934 92.293C22.5977 92.293 20.7422 89.4609 20.7422 84.9688V84.9395C20.7422 80.4375 22.5977 77.6152 25.6934 77.6152C28.7891 77.6152 30.6641 80.4375 30.6641 84.9395V84.9688C30.6641 89.4707 28.7891 92.293 25.6934 92.293ZM25.6934 91.1211C27.9688 91.1211 29.3262 88.748 29.3262 84.9688V84.9395C29.3262 81.1504 27.9688 78.7969 25.6934 78.7969C23.4277 78.7969 22.0801 81.1602 22.0801 84.9395V84.9688C22.0801 88.748 23.4277 91.1211 25.6934 91.1211Z" fill="#BC1E24"/>
</g>
<defs>
<clipPath id="clip0_3_6127">
<rect width="203" height="288" rx="10" fill="white"/>
</clipPath>
<clipPath id="clip1_3_6127">
<rect width="44" height="244" fill="white" transform="translate(80 22)"/>
</clipPath>
</defs>
</svg>
