<svg width="203" height="288" viewBox="0 0 203 288" fill="none" xmlns="http://www.w3.org/2000/svg">
<g clip-path="url(#clip0_5_1859)">
<rect width="203" height="288" rx="10" fill="white"/>
<path d="M194.268 250.862C194.268 251.583 193.928 252.143 192.747 253.484L184.418 263.014C182.156 265.596 181.295 267.278 181.295 269.16C181.295 271.982 183.317 273.864 186.36 273.864C188.943 273.864 190.845 272.323 191.445 269.72C191.726 268.659 192.286 268.119 193.107 268.119C194.088 268.119 194.729 268.859 194.729 269.94C194.729 273.344 191.425 276.907 186.14 276.907C181.215 276.907 177.752 273.784 177.752 269.38C177.752 266.777 178.773 264.875 182.376 260.771L189.784 252.303L189.784 252.063L178.673 252.063C177.612 252.063 176.931 251.482 176.931 250.521C176.931 249.581 177.572 249 178.673 249L191.886 249C193.347 249 194.268 249.701 194.268 250.862Z" fill="black"/>
<path d="M187.968 220C188.185 220 188.361 220.174 188.361 220.389C188.361 221.109 187.068 223.799 186.81 225.904C186.782 226.131 187.114 226.215 187.236 226.021C187.902 224.964 188.81 223.485 191.022 223.537L191.065 223.535C191.093 223.534 191.122 223.533 191.151 223.533C193.553 223.533 195.5 225.646 195.5 228.252C195.5 230.858 193.553 232.97 191.151 232.97C190.682 232.97 190.23 232.889 189.807 232.74C189.708 232.705 189.608 232.819 189.657 232.91C190.032 233.607 190.247 234.418 190.247 235.283C190.247 237.852 188.375 240 186 240C183.625 240 181.753 237.852 181.753 235.283C181.753 234.418 181.968 233.607 182.343 232.91C182.392 232.819 182.292 232.705 182.193 232.74C181.77 232.889 181.318 232.97 180.849 232.97C178.447 232.97 176.5 230.858 176.5 228.252C176.5 225.646 178.447 223.533 180.849 223.533C180.878 223.533 180.907 223.534 180.935 223.535L180.978 223.537C183.19 223.485 184.098 224.964 184.764 226.021C184.886 226.215 185.218 226.131 185.19 225.904C184.932 223.799 183.639 221.109 183.639 220.389C183.639 220.174 183.815 220 184.032 220L187.968 220Z" fill="#211C1D"/>
<path d="M195.664 196L195.664 196.937L190.811 202.143C188.857 204.232 188.301 205.053 188.301 206.332L188.301 206.352C188.301 207.973 189.502 209.213 191.309 209.213C193.145 209.213 194.424 207.982 194.443 206.205L194.443 206.195L195.723 206.195L195.742 206.205C195.713 208.637 193.838 210.385 191.23 210.385C188.799 210.385 186.943 208.715 186.943 206.479L186.943 206.459C186.943 204.887 187.627 203.725 190.107 201.156L193.799 197.328L193.799 197.211L186.602 197.211L186.602 196L195.664 196ZM181.072 195.707C184.168 195.707 186.023 198.539 186.023 203.031L186.023 203.061C186.023 207.562 184.168 210.385 181.072 210.385C177.977 210.385 176.102 207.562 176.102 203.061L176.102 203.031C176.102 198.529 177.977 195.707 181.072 195.707ZM181.072 196.879C178.797 196.879 177.439 199.252 177.439 203.031L177.439 203.061C177.439 206.85 178.797 209.203 181.072 209.203C183.338 209.203 184.686 206.84 184.686 203.061L184.686 203.031C184.686 199.252 183.338 196.879 181.072 196.879Z" fill="black"/>
<path d="M197.431 177L199.925 186.16L198.732 186.16L196.91 178.714L196.834 178.714L194.784 186.16L193.629 186.16L191.578 178.714L191.502 178.714L189.68 186.16L188.487 186.16L190.982 177L192.061 177L194.168 184.23L194.244 184.23L196.352 177L197.431 177ZM188.048 177L188.048 186.16L186.905 186.16L186.905 177L188.048 177ZM185.869 177L185.869 186.16L184.727 186.16L184.727 178.028L180.309 178.028L180.309 177L185.869 177ZM179.781 177L179.781 186.16L176.638 186.16C173.922 186.16 172.316 184.465 172.316 181.589L172.316 181.577C172.316 178.695 173.915 177 176.638 177L179.781 177ZM178.638 178.028L176.715 178.028C174.671 178.028 173.484 179.336 173.484 181.564L173.484 181.577C173.484 183.811 174.683 185.131 176.715 185.131L178.638 185.131L178.638 178.028Z" fill="black"/>
<g clip-path="url(#clip1_5_1859)">
<path d="M97.34 72C96.825 72 96.4075 71.5825 96.4075 71.0675C96.4075 69.3389 99.4696 62.8831 100.082 57.8301C100.148 57.2867 99.3615 57.0849 99.0725 57.5498C97.4958 60.0863 95.3456 63.6359 90.1068 63.512L90.0051 63.5152C89.9372 63.5176 89.8693 63.5199 89.8008 63.5199C84.1117 63.5199 79.5 58.4499 79.5 52.1959C79.5 45.9419 84.1117 40.8719 89.8008 40.8719C90.9114 40.8719 91.9808 41.066 92.983 41.4239C93.2167 41.5074 93.4551 41.2346 93.3388 41.0153C92.451 39.3424 91.9416 37.3975 91.9416 35.3209C91.9416 29.156 96.375 24 102 24C107.625 24 112.058 29.156 112.058 35.3209C112.058 37.3975 111.549 39.3424 110.661 41.0153C110.545 41.2346 110.783 41.5074 111.017 41.4239C112.019 41.066 113.089 40.8719 114.199 40.8719C119.888 40.8719 124.5 45.9419 124.5 52.1959C124.5 58.4499 119.888 63.5199 114.199 63.5199C114.131 63.5199 114.063 63.5176 113.995 63.5152L113.893 63.512C108.654 63.6359 106.504 60.0863 104.927 57.5498C104.638 57.0849 103.852 57.2867 103.918 57.8301C104.53 62.883 107.592 69.339 107.592 71.0675C107.592 71.5825 107.175 72 106.66 72H97.34Z" fill="#211C1D"/>
<path d="M97.34 264C96.825 264 96.4075 263.582 96.4075 263.067C96.4075 261.339 99.4696 254.883 100.082 249.83C100.148 249.287 99.3615 249.085 99.0725 249.55C97.4958 252.086 95.3456 255.636 90.1068 255.512L90.0051 255.515C89.9372 255.518 89.8693 255.52 89.8008 255.52C84.1117 255.52 79.5 250.45 79.5 244.196C79.5 237.942 84.1117 232.872 89.8008 232.872C90.9114 232.872 91.9808 233.066 92.983 233.424C93.2167 233.507 93.4551 233.235 93.3388 233.015C92.451 231.342 91.9416 229.397 91.9416 227.321C91.9416 221.156 96.375 216 102 216C107.625 216 112.058 221.156 112.058 227.321C112.058 229.397 111.549 231.342 110.661 233.015C110.545 233.235 110.783 233.507 111.017 233.424C112.019 233.066 113.089 232.872 114.199 232.872C119.888 232.872 124.5 237.942 124.5 244.196C124.5 250.45 119.888 255.52 114.199 255.52C114.131 255.52 114.063 255.518 113.995 255.515L113.893 255.512C108.654 255.636 106.504 252.086 104.927 249.55C104.638 249.085 103.852 249.287 103.918 249.83C104.53 254.883 107.592 261.339 107.592 263.067C107.592 263.582 107.175 264 106.66 264H97.34Z" fill="#211C1D"/>
</g>
<path d="M8.73193 37.1382C8.73193 36.4175 9.07227 35.8569 10.2534 34.5156L18.5815 24.9863C20.8438 22.4038 21.7046 20.7222 21.7046 18.8403C21.7046 16.0176 19.6826 14.1357 16.6396 14.1357C14.0571 14.1357 12.1553 15.6772 11.5547 18.2798C11.2744 19.3408 10.7139 19.8813 9.89307 19.8813C8.91211 19.8813 8.27148 19.1406 8.27148 18.0596C8.27148 14.6562 11.5747 11.0928 16.8599 11.0928C21.7847 11.0928 25.248 14.2158 25.248 18.6201C25.248 21.2227 24.2271 23.1245 20.6235 27.2285L13.2163 35.6968V35.937H24.3271C25.3882 35.937 26.0688 36.5176 26.0688 37.4785C26.0688 38.4194 25.4282 39 24.3271 39H11.1143C9.65283 39 8.73193 38.2993 8.73193 37.1382Z" fill="black"/>
<path d="M15.0324 68C14.815 68 14.6387 67.826 14.6387 67.6115C14.6387 66.8912 15.9316 64.2013 16.1901 62.0959C16.2179 61.8695 15.886 61.7854 15.7639 61.9791C15.0982 63.0359 14.1904 64.515 11.9784 64.4633L11.9355 64.4647C11.9068 64.4656 11.8781 64.4666 11.8492 64.4666C9.44715 64.4666 7.5 62.3541 7.5 59.7483C7.5 57.1425 9.44715 55.03 11.8492 55.03C12.3182 55.03 12.7697 55.1108 13.1928 55.26C13.2915 55.2948 13.3921 55.1811 13.3431 55.0897C12.9682 54.3927 12.7531 53.5823 12.7531 52.717C12.7531 50.1483 14.625 48 17 48C19.375 48 21.2469 50.1483 21.2469 52.717C21.2469 53.5823 21.0318 54.3927 20.6569 55.0897C20.6079 55.1811 20.7085 55.2948 20.8072 55.26C21.2303 55.1108 21.6818 55.03 22.1508 55.03C24.5529 55.03 26.5 57.1425 26.5 59.7483C26.5 62.3541 24.5529 64.4666 22.1508 64.4666C22.1219 64.4666 22.0932 64.4656 22.0645 64.4647L22.0216 64.4633C19.8096 64.515 18.9018 63.0359 18.2361 61.9791C18.114 61.7854 17.7821 61.8695 17.8099 62.0959C18.0684 64.2013 19.3613 66.8913 19.3613 67.6114C19.3613 67.826 19.185 68 18.9676 68H15.0324Z" fill="#211C1D"/>
<path d="M7.33594 92V91.0625L12.1895 85.8574C14.1426 83.7676 14.6992 82.9473 14.6992 81.668V81.6484C14.6992 80.0273 13.498 78.7871 11.6914 78.7871C9.85547 78.7871 8.57617 80.0176 8.55664 81.7949V81.8047H7.27734L7.25781 81.7949C7.28711 79.3633 9.16211 77.6152 11.7695 77.6152C14.2012 77.6152 16.0566 79.2852 16.0566 81.5215V81.541C16.0566 83.1133 15.373 84.2754 12.8926 86.8438L9.20117 90.6719V90.7891H16.3984V92H7.33594ZM21.9277 92.293C18.832 92.293 16.9766 89.4609 16.9766 84.9688V84.9395C16.9766 80.4375 18.832 77.6152 21.9277 77.6152C25.0234 77.6152 26.8984 80.4375 26.8984 84.9395V84.9688C26.8984 89.4707 25.0234 92.293 21.9277 92.293ZM21.9277 91.1211C24.2031 91.1211 25.5605 88.748 25.5605 84.9688V84.9395C25.5605 81.1504 24.2031 78.7969 21.9277 78.7969C19.6621 78.7969 18.3145 81.1602 18.3145 84.9395V84.9688C18.3145 88.748 19.6621 91.1211 21.9277 91.1211Z" fill="black"/>
<path d="M5.56914 111L3.07451 101.84H4.26787L6.08965 109.286H6.16582L8.21611 101.84H9.37139L11.4217 109.286H11.4979L13.3196 101.84H14.513L12.0184 111H10.9393L8.83184 103.77H8.75566L6.64824 111H5.56914ZM14.9522 111V101.84H16.0948V111H14.9522ZM17.1308 111V101.84H18.2733V109.972H22.6913V111H17.1308ZM23.2194 111V101.84H26.3615C29.0783 101.84 30.6843 103.535 30.6843 106.411V106.423C30.6843 109.305 29.0847 111 26.3615 111H23.2194ZM24.362 109.972H26.2854C28.3293 109.972 29.5163 108.664 29.5163 106.436V106.423C29.5163 104.189 28.3166 102.869 26.2854 102.869H24.362V109.972Z" fill="black"/>
</g>
<defs>
<clipPath id="clip0_5_1859">
<rect width="203" height="288" rx="10" fill="white"/>
</clipPath>
<clipPath id="clip1_5_1859">
<rect width="44" height="244" fill="white" transform="translate(80 22)"/>
</clipPath>
</defs>
</svg>
