<svg width="203" height="288" viewBox="0 0 203 288" fill="none" xmlns="http://www.w3.org/2000/svg">
<g clip-path="url(#clip0_3_6128)">
<rect width="203" height="288" rx="10" fill="white"/>
<path d="M194.268 250.862C194.268 251.583 193.928 252.143 192.747 253.484L184.418 263.014C182.156 265.596 181.295 267.278 181.295 269.16C181.295 271.982 183.317 273.864 186.36 273.864C188.943 273.864 190.845 272.323 191.445 269.72C191.726 268.659 192.286 268.119 193.107 268.119C194.088 268.119 194.729 268.859 194.729 269.94C194.729 273.344 191.425 276.907 186.14 276.907C181.215 276.907 177.752 273.784 177.752 269.38C177.752 266.777 178.773 264.875 182.376 260.771L189.784 252.303L189.784 252.063L178.673 252.063C177.612 252.063 176.931 251.482 176.931 250.521C176.931 249.581 177.572 249 178.673 249L191.886 249C193.347 249 194.268 249.701 194.268 250.862Z" fill="#BC1E24"/>
<path d="M190.265 238.999C187.548 238.958 186.493 236.602 186.146 235.491C186.111 235.378 185.888 235.378 185.853 235.491C185.506 236.602 184.452 238.958 181.735 238.999C178.177 239.054 175.501 235.071 177.941 231.071C180.117 227.506 185.918 221 186 221C186.083 221 191.883 227.506 194.059 231.071C196.499 235.071 193.823 239.054 190.265 238.999Z" fill="#BC1E24"/>
<path d="M195.664 196L195.664 196.937L190.811 202.143C188.857 204.232 188.301 205.053 188.301 206.332L188.301 206.352C188.301 207.973 189.502 209.213 191.309 209.213C193.145 209.213 194.424 207.982 194.443 206.205L194.443 206.195L195.723 206.195L195.742 206.205C195.713 208.637 193.838 210.385 191.23 210.385C188.799 210.385 186.943 208.715 186.943 206.479L186.943 206.459C186.943 204.887 187.627 203.725 190.107 201.156L193.799 197.328L193.799 197.211L186.602 197.211L186.602 196L195.664 196ZM181.072 195.707C184.168 195.707 186.023 198.539 186.023 203.031L186.023 203.061C186.023 207.562 184.168 210.385 181.072 210.385C177.977 210.385 176.102 207.562 176.102 203.061L176.102 203.031C176.102 198.529 177.977 195.707 181.072 195.707ZM181.072 196.879C178.797 196.879 177.439 199.252 177.439 203.031L177.439 203.061C177.439 206.85 178.797 209.203 181.072 209.203C183.338 209.203 184.686 206.84 184.686 203.061L184.686 203.031C184.686 199.252 183.338 196.879 181.072 196.879Z" fill="#BC1E24"/>
<path d="M197.431 177L199.925 186.16L198.732 186.16L196.91 178.714L196.834 178.714L194.784 186.16L193.629 186.16L191.578 178.714L191.502 178.714L189.68 186.16L188.487 186.16L190.982 177L192.061 177L194.168 184.23L194.244 184.23L196.352 177L197.431 177ZM188.048 177L188.048 186.16L186.905 186.16L186.905 177L188.048 177ZM185.869 177L185.869 186.16L184.727 186.16L184.727 178.028L180.309 178.028L180.309 177L185.869 177ZM179.781 177L179.781 186.16L176.638 186.16C173.922 186.16 172.316 184.465 172.316 181.589L172.316 181.577C172.316 178.695 173.915 177 176.638 177L179.781 177ZM178.638 178.028L176.715 178.028C174.671 178.028 173.484 179.336 173.484 181.564L173.484 181.577C173.484 183.811 174.683 185.131 176.715 185.131L178.638 185.131L178.638 178.028Z" fill="#BC1E24"/>
<g clip-path="url(#clip1_3_6128)">
<path d="M91.7206 26.2514C98.2688 26.3516 100.812 32.0461 101.648 34.731C101.732 35.0026 102.27 35.0025 102.355 34.7309C103.19 32.0459 105.731 26.3516 112.279 26.2514C120.853 26.1199 127.304 35.7455 121.422 45.4115C116.179 54.0269 102.198 69.75 102 69.75C101.799 69.7499 87.8218 54.0278 82.5785 45.4115C76.6963 35.7454 83.1467 26.1199 91.7206 26.2514Z" fill="#BC1E24"/>
<path d="M91.7206 218.251C98.2688 218.352 100.812 224.046 101.648 226.731C101.732 227.003 102.27 227.003 102.355 226.731C103.19 224.046 105.731 218.352 112.279 218.251C120.853 218.12 127.304 227.745 121.422 237.411C116.179 246.027 102.198 261.75 102 261.75C101.799 261.75 87.8218 246.028 82.5785 237.411C76.6963 227.745 83.1467 218.12 91.7206 218.251Z" fill="#BC1E24"/>
</g>
<path d="M8.73193 37.1382C8.73193 36.4175 9.07227 35.8569 10.2534 34.5156L18.5815 24.9863C20.8438 22.4038 21.7046 20.7222 21.7046 18.8403C21.7046 16.0176 19.6826 14.1357 16.6396 14.1357C14.0571 14.1357 12.1553 15.6772 11.5547 18.2798C11.2744 19.3408 10.7139 19.8813 9.89307 19.8813C8.91211 19.8813 8.27148 19.1406 8.27148 18.0596C8.27148 14.6562 11.5747 11.0928 16.8599 11.0928C21.7847 11.0928 25.248 14.2158 25.248 18.6201C25.248 21.2227 24.2271 23.1245 20.6235 27.2285L13.2163 35.6968V35.937H24.3271C25.3882 35.937 26.0688 36.5176 26.0688 37.4785C26.0688 38.4194 25.4282 39 24.3271 39H11.1143C9.65283 39 8.73193 38.2993 8.73193 37.1382Z" fill="#BC1E24"/>
<path d="M12.7347 49.0006C15.4518 49.042 16.5069 51.3984 16.8537 52.5094C16.8888 52.6218 17.1122 52.6217 17.1472 52.5093C17.4938 51.3983 18.5482 49.042 21.2653 49.0006C24.8229 48.9462 27.4995 52.9292 25.0587 56.9289C22.8832 60.4939 17.0821 67 17 67C16.9165 67 11.1169 60.4943 8.94127 56.9289C6.50053 52.9291 9.17705 48.9462 12.7347 49.0006Z" fill="#BC1E24"/>
<path d="M7.33594 92V91.0625L12.1895 85.8574C14.1426 83.7676 14.6992 82.9473 14.6992 81.668V81.6484C14.6992 80.0273 13.498 78.7871 11.6914 78.7871C9.85547 78.7871 8.57617 80.0176 8.55664 81.7949V81.8047H7.27734L7.25781 81.7949C7.28711 79.3633 9.16211 77.6152 11.7695 77.6152C14.2012 77.6152 16.0566 79.2852 16.0566 81.5215V81.541C16.0566 83.1133 15.373 84.2754 12.8926 86.8438L9.20117 90.6719V90.7891H16.3984V92H7.33594ZM21.9277 92.293C18.832 92.293 16.9766 89.4609 16.9766 84.9688V84.9395C16.9766 80.4375 18.832 77.6152 21.9277 77.6152C25.0234 77.6152 26.8984 80.4375 26.8984 84.9395V84.9688C26.8984 89.4707 25.0234 92.293 21.9277 92.293ZM21.9277 91.1211C24.2031 91.1211 25.5605 88.748 25.5605 84.9688V84.9395C25.5605 81.1504 24.2031 78.7969 21.9277 78.7969C19.6621 78.7969 18.3145 81.1602 18.3145 84.9395V84.9688C18.3145 88.748 19.6621 91.1211 21.9277 91.1211Z" fill="#BC1E24"/>
<path d="M5.56914 111L3.07451 101.84H4.26787L6.08965 109.286H6.16582L8.21611 101.84H9.37139L11.4217 109.286H11.4979L13.3196 101.84H14.513L12.0184 111H10.9393L8.83184 103.77H8.75566L6.64824 111H5.56914ZM14.9522 111V101.84H16.0948V111H14.9522ZM17.1308 111V101.84H18.2733V109.972H22.6913V111H17.1308ZM23.2194 111V101.84H26.3615C29.0783 101.84 30.6843 103.535 30.6843 106.411V106.423C30.6843 109.305 29.0847 111 26.3615 111H23.2194ZM24.362 109.972H26.2854C28.3293 109.972 29.5163 108.664 29.5163 106.436V106.423C29.5163 104.189 28.3166 102.869 26.2854 102.869H24.362V109.972Z" fill="#BC1E24"/>
</g>
<defs>
<clipPath id="clip0_3_6128">
<rect width="203" height="288" rx="10" fill="white"/>
</clipPath>
<clipPath id="clip1_3_6128">
<rect width="44" height="244" fill="white" transform="translate(80 22)"/>
</clipPath>
</defs>
</svg>
