<svg width="203" height="288" viewBox="0 0 203 288" fill="none" xmlns="http://www.w3.org/2000/svg">
<g clip-path="url(#clip0_5_509)">
<rect width="203" height="288" rx="10" fill="white"/>
<path d="M194.268 250.862C194.268 251.583 193.928 252.143 192.747 253.484L184.418 263.014C182.156 265.596 181.295 267.278 181.295 269.16C181.295 271.982 183.317 273.864 186.36 273.864C188.943 273.864 190.845 272.323 191.445 269.72C191.726 268.659 192.286 268.119 193.107 268.119C194.088 268.119 194.729 268.859 194.729 269.94C194.729 273.344 191.425 276.907 186.14 276.907C181.215 276.907 177.752 273.784 177.752 269.38C177.752 266.777 178.773 264.875 182.376 260.771L189.784 252.303L189.784 252.063L178.673 252.063C177.612 252.063 176.931 251.482 176.931 250.521C176.931 249.581 177.572 249 178.673 249L191.886 249C193.347 249 194.268 249.701 194.268 250.862Z" fill="black"/>
<path d="M187.762 220C187.973 220 188.143 220.164 188.143 220.365C188.143 220.795 187.066 223.617 186.806 225.517C186.774 225.745 187.064 225.836 187.195 225.65C187.823 224.76 188.456 223.808 190.178 223.785C193.385 223.743 195.233 226.79 194.224 229.563C193.729 230.922 186.925 240 186 240C185.075 240 178.271 230.922 177.776 229.563C176.767 226.79 178.615 223.743 181.823 223.785C183.544 223.808 184.177 224.76 184.805 225.65C184.936 225.836 185.226 225.745 185.194 225.517C184.934 223.617 183.857 220.795 183.857 220.365C183.857 220.164 184.027 220 184.238 220L187.762 220Z" fill="#211C1D"/>
<path d="M195.664 196L195.664 196.937L190.811 202.143C188.857 204.232 188.301 205.053 188.301 206.332L188.301 206.352C188.301 207.973 189.502 209.213 191.309 209.213C193.145 209.213 194.424 207.982 194.443 206.205L194.443 206.195L195.723 206.195L195.742 206.205C195.713 208.637 193.838 210.385 191.23 210.385C188.799 210.385 186.943 208.715 186.943 206.479L186.943 206.459C186.943 204.887 187.627 203.725 190.107 201.156L193.799 197.328L193.799 197.211L186.602 197.211L186.602 196L195.664 196ZM181.072 195.707C184.168 195.707 186.023 198.539 186.023 203.031L186.023 203.061C186.023 207.562 184.168 210.385 181.072 210.385C177.977 210.385 176.102 207.562 176.102 203.061L176.102 203.031C176.102 198.529 177.977 195.707 181.072 195.707ZM181.072 196.879C178.797 196.879 177.439 199.252 177.439 203.031L177.439 203.061C177.439 206.85 178.797 209.203 181.072 209.203C183.338 209.203 184.686 206.84 184.686 203.061L184.686 203.031C184.686 199.252 183.338 196.879 181.072 196.879Z" fill="black"/>
<path d="M197.431 177L199.925 186.16L198.732 186.16L196.91 178.714L196.834 178.714L194.784 186.16L193.629 186.16L191.578 178.714L191.502 178.714L189.68 186.16L188.487 186.16L190.982 177L192.061 177L194.168 184.23L194.244 184.23L196.352 177L197.431 177ZM188.048 177L188.048 186.16L186.905 186.16L186.905 177L188.048 177ZM185.869 177L185.869 186.16L184.727 186.16L184.727 178.028L180.309 178.028L180.309 177L185.869 177ZM179.781 177L179.781 186.16L176.638 186.16C173.922 186.16 172.316 184.465 172.316 181.589L172.316 181.577C172.316 178.695 173.915 177 176.638 177L179.781 177ZM178.638 178.028L176.715 178.028C174.671 178.028 173.484 179.336 173.484 181.564L173.484 181.577C173.484 183.811 174.683 185.131 176.715 185.131L178.638 185.131L178.638 178.028Z" fill="black"/>
<g clip-path="url(#clip1_5_509)">
<path d="M97.853 72C97.3588 72 96.9582 71.6076 96.9582 71.1235C96.9582 70.0926 99.4923 63.318 100.104 58.7596C100.178 58.2115 99.4958 57.993 99.1876 58.4389C97.7105 60.5759 96.2215 62.8613 92.1706 62.9157C84.6234 63.0172 80.2757 55.7041 82.6497 49.0496C83.8137 45.7867 99.8245 24 102 24C104.175 24 120.186 45.7867 121.35 49.0496C123.724 55.7041 119.377 63.0172 111.829 62.9157C107.779 62.8613 106.289 60.5759 104.812 58.4389C104.504 57.993 103.822 58.2115 103.896 58.7596C104.508 63.318 107.042 70.0926 107.042 71.1235C107.042 71.6076 106.641 72 106.147 72H97.853Z" fill="#211C1D"/>
<path d="M97.853 264C97.3588 264 96.9582 263.608 96.9582 263.123C96.9582 262.093 99.4923 255.318 100.104 250.76C100.178 250.211 99.4958 249.993 99.1876 250.439C97.7105 252.576 96.2215 254.861 92.1706 254.916C84.6234 255.017 80.2757 247.704 82.6497 241.05C83.8137 237.787 99.8245 216 102 216C104.175 216 120.186 237.787 121.35 241.05C123.724 247.704 119.377 255.017 111.829 254.916C107.779 254.861 106.289 252.576 104.812 250.439C104.504 249.993 103.822 250.211 103.896 250.76C104.508 255.318 107.042 262.093 107.042 263.123C107.042 263.608 106.641 264 106.147 264H97.853Z" fill="#211C1D"/>
</g>
<path d="M8.73193 37.1382C8.73193 36.4175 9.07227 35.8569 10.2534 34.5156L18.5815 24.9863C20.8438 22.4038 21.7046 20.7222 21.7046 18.8403C21.7046 16.0176 19.6826 14.1357 16.6396 14.1357C14.0571 14.1357 12.1553 15.6772 11.5547 18.2798C11.2744 19.3408 10.7139 19.8813 9.89307 19.8813C8.91211 19.8813 8.27148 19.1406 8.27148 18.0596C8.27148 14.6562 11.5747 11.0928 16.8599 11.0928C21.7847 11.0928 25.248 14.2158 25.248 18.6201C25.248 21.2227 24.2271 23.1245 20.6235 27.2285L13.2163 35.6968V35.937H24.3271C25.3882 35.937 26.0688 36.5176 26.0688 37.4785C26.0688 38.4194 25.4282 39 24.3271 39H11.1143C9.65283 39 8.73193 38.2993 8.73193 37.1382Z" fill="black"/>
<path d="M15.2375 68C15.0275 68 14.8572 67.8365 14.8572 67.6348C14.8572 67.2053 15.9342 64.3825 16.1943 62.4832C16.2256 62.2548 15.9357 62.1637 15.8047 62.3495C15.177 63.2399 14.5441 64.1922 12.8225 64.2149C9.61496 64.2572 7.76719 61.2101 8.77613 58.4373C9.2708 57.0778 16.0754 48 17 48C17.9245 48 24.7292 57.0778 25.2239 58.4373C26.2328 61.2101 24.385 64.2572 21.1775 64.2149C19.4559 64.1922 18.823 63.2399 18.1953 62.3495C18.0643 62.1637 17.7744 62.2548 17.8057 62.4832C18.0658 64.3825 19.1428 67.2053 19.1428 67.6348C19.1428 67.8365 18.9725 68 18.7625 68H15.2375Z" fill="#211C1D"/>
<path d="M7.33594 92V91.0625L12.1895 85.8574C14.1426 83.7676 14.6992 82.9473 14.6992 81.668V81.6484C14.6992 80.0273 13.498 78.7871 11.6914 78.7871C9.85547 78.7871 8.57617 80.0176 8.55664 81.7949V81.8047H7.27734L7.25781 81.7949C7.28711 79.3633 9.16211 77.6152 11.7695 77.6152C14.2012 77.6152 16.0566 79.2852 16.0566 81.5215V81.541C16.0566 83.1133 15.373 84.2754 12.8926 86.8438L9.20117 90.6719V90.7891H16.3984V92H7.33594ZM21.9277 92.293C18.832 92.293 16.9766 89.4609 16.9766 84.9688V84.9395C16.9766 80.4375 18.832 77.6152 21.9277 77.6152C25.0234 77.6152 26.8984 80.4375 26.8984 84.9395V84.9688C26.8984 89.4707 25.0234 92.293 21.9277 92.293ZM21.9277 91.1211C24.2031 91.1211 25.5605 88.748 25.5605 84.9688V84.9395C25.5605 81.1504 24.2031 78.7969 21.9277 78.7969C19.6621 78.7969 18.3145 81.1602 18.3145 84.9395V84.9688C18.3145 88.748 19.6621 91.1211 21.9277 91.1211Z" fill="black"/>
<path d="M5.56914 111L3.07451 101.84H4.26787L6.08965 109.286H6.16582L8.21611 101.84H9.37139L11.4217 109.286H11.4979L13.3196 101.84H14.513L12.0184 111H10.9393L8.83184 103.77H8.75566L6.64824 111H5.56914ZM14.9522 111V101.84H16.0948V111H14.9522ZM17.1308 111V101.84H18.2733V109.972H22.6913V111H17.1308ZM23.2194 111V101.84H26.3615C29.0783 101.84 30.6843 103.535 30.6843 106.411V106.423C30.6843 109.305 29.0847 111 26.3615 111H23.2194ZM24.362 109.972H26.2854C28.3293 109.972 29.5163 108.664 29.5163 106.436V106.423C29.5163 104.189 28.3166 102.869 26.2854 102.869H24.362V109.972Z" fill="black"/>
</g>
<defs>
<clipPath id="clip0_5_509">
<rect width="203" height="288" rx="10" fill="white"/>
</clipPath>
<clipPath id="clip1_5_509">
<rect width="44" height="244" fill="white" transform="translate(80 22)"/>
</clipPath>
</defs>
</svg>
